<?xml version="1.0" encoding="UTF-8"?>
<svg id="b" data-name="Layer 2" xmlns="http://www.w3.org/2000/svg" width="100" height="100" viewBox="0 0 100 100">
  <g id="c" data-name="Layer 2">
    <g>
      <rect width="100" height="100" fill="#b4ee40" opacity="0"/>
      <g>
        <polygon points="30.17 75.5 18.91 24.5 42 24.5 53.26 75.5 30.17 75.5" fill="#fff"/>
        <path d="M41.6,25l11.03,50h-22.07l-11.03-50h22.07M42.4,24h-24.12l.27,1.22,11.03,50,.17.78h24.12l-.27-1.22-11.03-50-.17-.78h0Z"/>
      </g>
      <g>
        <polygon points="57.75 75.5 46.49 24.5 69.58 24.5 80.84 75.5 57.75 75.5" fill="#fff"/>
        <path d="M69.18,25l11.03,50h-22.07l-11.03-50h22.07M69.99,24h-24.12l.27,1.22,11.03,50,.17.78h24.12l-.27-1.22-11.03-50-.17-.78h0Z"/>
      </g>
      <rect y="87.5" width="12.5" height="12.5" fill="#b4ee40"/>
    </g>
  </g>
</svg>