<?xml version="1.0" encoding="UTF-8"?>
<svg id="b" data-name="Layer 2" xmlns="http://www.w3.org/2000/svg" width="200" height="200" viewBox="0 0 200 200">
  <defs>
    <style>
      .d {
        opacity: 0;
      }
    </style>
  </defs>
  <g id="c" data-name="Layer 1">
    <rect class="d" width="200" height="200"/>
    <path d="M169.65,100.01c0-3.74-.31-7.4-.88-10.98l20.24-14.29c-1.88-6.55-4.46-12.79-7.67-18.65l-24.35,4.19c-4.47-6.29-9.97-11.79-16.26-16.26l4.19-24.35c-5.86-3.21-12.1-5.8-18.65-7.67l-14.29,20.24c-3.57-.57-7.24-.88-10.98-.88-4.02,0-7.96.37-11.79,1.03l-14.23-20.16c-6.58,1.95-12.86,4.62-18.73,7.91l4.21,24.47c-6,4.4-11.25,9.74-15.54,15.82l-24.33-4.19c-3.26,5.98-5.87,12.36-7.74,19.05l20.29,14.33c-.52,3.39-.78,6.86-.78,10.4,0,3.82.33,7.56.93,11.21l-20.21,14.27c1.95,6.72,4.64,13.13,7.99,19.12l24.45-4.21c4.22,5.79,9.32,10.88,15.1,15.1l-4.21,24.45c5.99,3.35,12.39,6.05,19.12,7.99l14.27-20.21c3.65.6,7.39.93,11.21.93,3.54,0,7.01-.27,10.4-.78l14.33,20.29c6.69-1.87,13.07-4.48,19.05-7.74l-4.19-24.33c6.07-4.3,11.42-9.55,15.82-15.54l24.47,4.21c3.3-5.87,5.97-12.15,7.91-18.73l-20.16-14.23c.66-3.83,1.03-7.77,1.03-11.79ZM100.99,134.79c-19.21,0-34.79-15.57-34.79-34.79s15.57-34.79,34.79-34.79,34.79,15.57,34.79,34.79-15.57,34.79-34.79,34.79Z"/>
  </g>
</svg>