<?xml version="1.0" encoding="UTF-8"?>
<svg id="b" data-name="Layer 2" xmlns="http://www.w3.org/2000/svg" width="350" height="337" xmlns:xlink="http://www.w3.org/1999/xlink" viewBox="0 0 350 337">
  <defs>
    <style>
      .e {
        fill: #757575;
      }

      .f {
        fill: lime;
        opacity: 0;
      }

      .g {
        fill: #f2f2f2;
      }

      .h {
        fill: #737373;
      }

      .i {
        fill: #929292;
      }

      .j {
        isolation: isolate;
      }

      .k {
        fill: #939393;
      }

      .l {
        fill: #333;
      }

      .m {
        fill: #595959;
      }

      .n {
        fill: #484848;
      }

      .o {
        fill: url(#d);
        opacity: .17;
        stroke: #f2f2f2;
        stroke-miterlimit: 10;
        stroke-width: 7px;
      }

      .p {
        fill: #a3a3a3;
      }

      .q {
        fill: #343434;
      }

      .r {
        fill: #414141;
      }
    </style>
    <linearGradient id="d" x1="175" y1="12" x2="175" y2="312" gradientUnits="userSpaceOnUse">
      <stop offset="0" stop-color="#b5b5b5"/>
      <stop offset="1" stop-color="gray"/>
    </linearGradient>
  </defs>
  <g id="c" data-name="Layer 1">
    <rect class="f" width="350" height="337"/>
    <rect class="o" x="25" y="12" width="300" height="300"/>
    <g class="j">
      <polygon class="n" points="120.11 294.11 97.32 281.71 101.77 281.08 124.57 293.48 120.11 294.11"/>
      <polygon class="l" points="81.15 328.39 58.36 315.99 57.06 314.78 79.85 327.17 81.15 328.39"/>
      <polygon class="n" points="92.27 298.02 69.47 285.62 97.32 281.71 120.11 294.11 92.27 298.02"/>
      <polygon class="h" points="83 323.33 60.21 310.94 32.8 285.15 55.59 297.55 83 323.33"/>
      <polygon class="l" points="79.85 327.17 57.06 314.78 29.65 288.99 52.44 301.39 79.85 327.17"/>
      <polygon class="l" points="52.44 301.39 29.65 288.99 28.35 287.76 51.14 300.16 52.44 301.39"/>
      <polygon class="q" points="51.14 300.16 28.35 287.76 28.35 285.77 51.15 298.17 51.14 300.16"/>
      <polygon class="e" points="55.59 297.55 32.8 285.15 32.98 188.36 55.77 200.76 55.59 297.55"/>
      <polygon class="q" points="51.15 298.17 28.35 285.77 28.53 191.09 51.32 203.49 51.15 298.17"/>
      <polygon class="k" points="40.44 187.66 17.65 175.27 33.48 157.3 56.28 169.7 40.44 187.66"/>
      <polygon class="h" points="55.77 200.76 32.98 188.36 17.65 175.27 40.44 187.66 55.77 200.76"/>
      <polygon class="l" points="51.32 203.49 28.53 191.09 14.63 179.22 37.42 191.62 51.32 203.49"/>
      <polygon class="r" points="37.43 184.56 14.64 172.16 29.03 155.82 51.83 168.22 37.43 184.56"/>
      <polygon class="n" points="120.6 29.45 97.81 17.05 102.26 16.42 125.06 28.82 120.6 29.45"/>
      <polygon class="l" points="37.42 191.62 14.63 179.22 11.08 176.2 33.87 188.6 37.42 191.62"/>
      <polygon class="r" points="33.87 188.6 11.08 176.2 14.64 172.16 37.43 184.56 33.87 188.6"/>
      <polygon class="p" points="83.98 39.39 61.19 26.99 97.8 21.85 120.6 34.25 83.98 39.39"/>
      <polygon class="n" points="83.99 34.59 61.2 22.19 97.81 17.05 120.6 29.45 83.99 34.59"/>
      <polygon class="n" points="82.15 34.85 59.35 22.45 61.2 22.19 83.99 34.59 82.15 34.85"/>
      <polygon class="r" points="80.84 36.45 58.04 24.05 59.35 22.45 82.15 34.85 80.84 36.45"/>
      <polygon class="e" points="56.28 169.7 33.48 157.3 33.66 60.5 56.46 72.9 56.28 169.7"/>
      <polygon class="i" points="56.46 72.9 33.66 60.5 61.19 26.99 83.98 39.39 56.46 72.9"/>
      <path class="m" d="M120.6,29.45l4.45-.63v4.8s-.04,19.22-.04,19.22v4.8s-4.46.63-4.46.63l-22.29,3.13-5.11.72-14.46,17.61-.18,95.26v2.1s-1.44,1.63-1.44,1.63l-3.8,4.31,3.33,2.84,1.43,1.23v2.11s-.18,95.28-.18,95.28l14.41,13.54,27.84-3.91,4.45-.63v4.81s-.04,19.21-.04,19.21v4.8s-4.46.63-4.46.63l-37.06,5.21-1.84.26-1.3-1.22-27.4-25.79-1.3-1.23v-1.99s.18-94.68.18-94.68l-13.9-11.87-3.55-3.03,3.56-4.03,14.4-16.34.18-94.7v-1.99s1.31-1.59,1.31-1.59l27.52-33.5,1.31-1.59,1.84-.26,36.62-5.15ZM120.56,53.47l.04-19.22-36.62,5.15-27.52,33.51-.18,96.8-15.83,17.97,15.33,13.09-.18,96.79,27.41,25.79,37.06-5.21.04-19.21-29.69,4.17-17-16,.18-97.27-6.88-5.87,7.35-8.35.18-97.25,17.07-20.78,6.95-.98,22.29-3.13"/>
      <polygon class="g" points="120.6 34.25 120.56 53.47 98.27 56.6 91.31 57.58 74.24 78.36 74.06 175.61 66.71 183.96 73.59 189.83 73.41 287.09 90.42 303.09 120.1 298.91 120.07 318.13 83 323.33 55.59 297.55 55.77 200.76 40.44 187.66 56.28 169.7 56.46 72.9 83.98 39.39 120.6 34.25"/>
      <polygon class="q" points="51.83 168.22 29.03 155.82 29.21 61.13 52 73.53 51.83 168.22"/>
      <polygon class="r" points="53.31 69.94 30.52 57.55 58.04 24.05 80.84 36.45 53.31 69.94"/>
      <polygon class="r" points="52.01 71.54 29.21 59.14 30.52 57.55 53.31 69.94 52.01 71.54"/>
      <polygon class="q" points="52 73.53 29.21 61.13 29.21 59.14 52.01 71.54 52 73.53"/>
    </g>
    <g class="j">
      <polygon class="i" points="282.17 306.27 259.37 293.87 276.45 273.08 299.24 285.48 282.17 306.27"/>
      <polygon class="r" points="280.33 301.72 257.54 289.32 272 271.72 294.79 284.12 280.33 301.72"/>
      <polygon class="q" points="247.98 335.07 225.19 322.67 225.2 317.88 247.99 330.28 247.98 335.07"/>
      <polygon class="e" points="252.44 329.65 229.65 317.25 229.69 298.04 252.48 310.44 252.44 329.65"/>
      <polygon class="p" points="252.48 310.44 229.69 298.04 259.37 293.87 282.17 306.27 252.48 310.44"/>
      <polygon class="n" points="252.49 305.63 229.7 293.23 257.54 289.32 280.33 301.72 252.49 305.63"/>
      <polygon class="q" points="247.99 330.28 225.2 317.88 225.23 298.67 248.03 311.06 247.99 330.28"/>
      <polygon class="q" points="248.03 311.06 225.23 298.67 225.24 293.86 248.04 306.26 248.03 311.06"/>
      <polygon class="n" points="248.04 306.26 225.24 293.86 229.7 293.23 252.49 305.63 248.04 306.26"/>
      <polygon class="k" points="299.42 188.22 276.63 175.82 283.53 168.01 306.32 180.41 299.42 188.22"/>
      <polygon class="e" points="299.24 285.48 276.45 273.08 276.63 175.82 299.42 188.22 299.24 285.48"/>
      <polygon class="q" points="294.79 284.12 272 271.72 272.17 176.44 294.97 188.84 294.79 284.12"/>
      <polygon class="r" points="296.41 185.1 273.62 172.7 276.97 168.92 299.76 181.32 296.41 185.1"/>
      <polygon class="q" points="294.97 188.84 272.17 176.44 272.18 174.33 294.97 186.73 294.97 188.84"/>
      <polygon class="r" points="294.97 186.73 272.18 174.33 273.62 172.7 296.41 185.1 294.97 186.73"/>
      <polygon class="h" points="306.32 180.41 283.53 168.01 276.2 161.73 299 174.13 306.32 180.41"/>
      <polygon class="l" points="299.76 181.32 276.97 168.92 273.19 165.68 295.98 178.08 299.76 181.32"/>
      <polygon class="l" points="295.98 178.08 273.19 165.68 271.75 164.45 294.55 176.85 295.98 178.08"/>
      <polygon class="q" points="294.55 176.85 271.75 164.45 271.76 162.35 294.55 174.75 294.55 176.85"/>
      <polygon class="e" points="299 174.13 276.2 161.73 276.39 64.48 299.18 76.88 299 174.13"/>
      <polygon class="q" points="294.55 174.75 271.76 162.35 271.94 67.09 294.73 79.49 294.55 174.75"/>
      <polygon class="l" points="294.73 79.49 271.94 67.09 276 62 280.32 65.94 294.73 79.49"/>
      <polygon class="n" points="289.6 35.83 266.8 23.43 268.65 23.17 291.44 35.57 289.6 35.83"/>
      <polygon class="q" points="248.47 70.42 225.68 58.02 225.69 53.22 248.48 65.62 248.47 70.42"/>
      <polygon class="p" points="252.97 45.77 230.18 33.37 266.79 28.23 289.59 40.62 252.97 45.77"/>
      <polygon class="g" points="289.59 40.62 317 66.41 316.82 163.21 332.6 176.73 317.2 194.14 317.02 290.93 289.51 324.44 252.44 329.65 252.48 310.44 282.17 306.27 299.24 285.48 299.42 188.22 306.32 180.41 299 174.13 299.18 76.88 282.18 60.88 275.22 61.86 252.94 64.99 252.97 45.77 289.59 40.62"/>
      <polygon class="e" points="252.94 64.99 230.14 52.59 230.18 33.37 252.97 45.77 252.94 64.99"/>
      <polygon class="n" points="252.98 40.97 230.19 28.57 266.8 23.43 289.6 35.83 252.98 40.97"/>
      <polygon class="q" points="248.48 65.62 225.69 53.22 225.72 34 248.52 46.4 248.48 65.62"/>
      <polygon class="q" points="248.52 46.4 225.72 34 225.73 29.2 248.53 41.6 248.52 46.4"/>
      <polygon class="n" points="248.53 41.6 225.73 29.2 230.19 28.57 252.98 40.97 248.53 41.6"/>
      <path class="m" d="M335.61,172.78l3.54,3.04-3.56,4.03-13.95,15.78-.18,94.68v1.99s-1.31,1.59-1.31,1.59l-27.52,33.51-1.3,1.58-1.84.26-37.06,5.21-4.45.63v-4.8s.04-19.21.04-19.21v-4.81s4.46-.63,4.46-.63l27.84-3.91,14.46-17.6.18-95.28v-2.11s1.45-1.63,1.45-1.63l3.35-3.78-3.78-3.25-1.43-1.23v-2.1s.18-95.26.18-95.26l-14.41-13.55-5.11.72-22.29,3.13-4.45.63v-4.8s.04-19.22.04-19.22v-4.8s4.46-.63,4.46-.63l36.62-5.15,1.84-.26,1.3,1.23,27.4,25.78,1.3,1.23v1.99s-.18,94.7-.18,94.7l14.34,12.3ZM317.2,194.14l15.39-17.41-15.78-13.52.18-96.8-27.41-25.79-36.62,5.15-.04,19.22,22.29-3.13,6.96-.98,17,16-.18,97.25,7.32,6.28-6.9,7.81-.18,97.27-17.07,20.78-29.69,4.17-.04,19.21,37.06-5.21,27.51-33.51.18-96.79"/>
    </g>
  </g>
</svg>