<?xml version="1.0" encoding="UTF-8"?>
<svg id="b" data-name="Layer 2" xmlns="http://www.w3.org/2000/svg" width="200" height="200" viewBox="0 0 200 200">
  <defs>
    <style>
      .d, .e {
        fill: #fff;
      }

      .e {
        opacity: 0;
      }
    </style>
  </defs>
  <g id="c" data-name="Layer 1">
    <g>
      <rect class="e" width="200" height="200"/>
      <path d="M120.42,8.33l-8.9,1.25-34.04,4.78-5.55.78-2.45,5.73-32.85,76.64-.91,2.12v2.23s-.07,36.02-.07,36.02l-.02,9.61,22.79,12.4,8.9-1.25.98-.14-.02,10.81-.02,9.61,22.79,12.4,8.9-1.25,34.04-4.78,8.9-1.25.02-9.61.27-144.1.02-9.61-22.79-12.4ZM134.03,175.69l-34.04,4.78.07-36.03-22.96,3.23-8.75-4.76v5.99s-1,.14-1,.14l.07-36.02,32.84-76.65,34.04-4.78-.27,144.1Z"/>
      <polygon class="d" points="134.3 31.59 134.03 175.69 99.98 180.47 100.05 144.44 67.34 149.04 67.41 113.02 100.25 36.37 134.3 31.59"/>
    </g>
  </g>
</svg>