<?xml version="1.0" encoding="UTF-8"?>
<svg id="b" data-name="Layer 2" xmlns="http://www.w3.org/2000/svg" width="350" height="337" xmlns:xlink="http://www.w3.org/1999/xlink" viewBox="0 0 350 337">
  <defs>
    <style>
      .e {
        fill: #757575;
      }

      .f {
        fill: lime;
        opacity: 0;
      }

      .g {
        fill: #3f3f3f;
      }

      .h {
        fill: #424242;
      }

      .i {
        fill: #8e8e8e;
      }

      .j {
        fill: #f2f2f2;
      }

      .k {
        fill: #737373;
      }

      .l {
        fill: #3b3b3b;
      }

      .m {
        isolation: isolate;
      }

      .n {
        fill: #8c8c8c;
      }

      .o {
        fill: #333;
      }

      .p {
        fill: #595959;
      }

      .q {
        fill: #999;
      }

      .r {
        fill: url(#d);
        opacity: .17;
        stroke: #f2f2f2;
        stroke-miterlimit: 10;
        stroke-width: 7px;
      }

      .s {
        fill: #959595;
      }

      .t {
        fill: #343434;
      }

      .u {
        fill: #414141;
      }
    </style>
    <linearGradient id="d" x1="175" y1="12" x2="175" y2="312" gradientUnits="userSpaceOnUse">
      <stop offset="0" stop-color="#b5b5b5"/>
      <stop offset="1" stop-color="gray"/>
    </linearGradient>
  </defs>
  <g id="c" data-name="Layer 1">
    <rect class="f" width="350" height="337"/>
    <rect class="r" x="25" y="12" width="300" height="300"/>
    <g class="m">
      <polygon class="o" points="111.96 264.6 89.17 252.2 85.74 249.62 108.54 262.02 111.96 264.6"/>
      <polygon class="h" points="108.82 108.19 86.03 95.79 89.46 92.25 112.26 104.65 108.82 108.19"/>
      <polygon class="k" points="111.38 257.92 88.59 245.52 18.72 192.91 41.52 205.3 111.38 257.92"/>
      <polygon class="o" points="108.54 262.02 85.74 249.62 15.88 197.01 38.67 209.41 108.54 262.02"/>
      <polygon class="o" points="38.67 209.41 15.88 197.01 14.26 195.8 37.06 208.2 38.67 209.41"/>
      <polygon class="t" points="37.06 208.2 14.26 195.8 14.27 193.53 37.06 205.93 37.06 208.2"/>
      <polygon class="s" points="41.56 183.78 18.76 171.38 88.86 99.1 111.65 111.5 41.56 183.78"/>
      <polygon class="e" points="41.52 205.3 18.72 192.91 18.76 171.38 41.56 183.78 41.52 205.3"/>
      <path class="p" d="M64.39,191.33l61.2,46.09,3.42,2.58-2.84,4.1-11.37,16.4-2.84,4.1-3.42-2.58-69.86-52.61-1.62-1.22v-2.27s.04-21.53.04-21.53v-2.27s1.62-1.66,1.62-1.66l70.1-72.28,3.43-3.54,2.83,3.31,11.32,13.21,2.83,3.31-3.43,3.54-61.41,63.31ZM111.38,257.92l11.37-16.4-63.42-47.75v-3.44s63.63-65.61,63.63-65.61l-11.32-13.21-70.1,72.28-.04,21.53,69.86,52.61"/>
      <polygon class="j" points="111.65 111.5 122.97 124.71 59.34 190.32 59.33 193.76 122.75 241.51 111.38 257.92 41.52 205.3 41.56 183.78 111.65 111.5"/>
      <polygon class="t" points="37.06 205.93 14.27 193.53 14.31 172 37.1 184.4 37.06 205.93"/>
      <polygon class="h" points="38.73 180.47 15.93 168.07 86.03 95.79 108.82 108.19 38.73 180.47"/>
      <polygon class="t" points="37.1 184.4 14.31 172 14.31 169.74 37.11 182.14 37.1 184.4"/>
      <polygon class="h" points="37.11 182.14 14.31 169.74 15.93 168.07 38.73 180.47 37.11 182.14"/>
    </g>
    <g class="m">
      <polygon class="e" points="313.46 187.08 290.67 174.68 290.67 171.24 313.47 183.64 313.46 187.08"/>
      <polygon class="o" points="260.53 272.75 237.74 260.35 234.91 257.05 257.7 269.45 260.53 272.75"/>
      <polygon class="k" points="261.14 265.91 238.35 253.51 227.03 240.29 249.82 252.69 261.14 265.91"/>
      <polygon class="s" points="249.82 252.69 227.03 240.29 290.67 174.68 313.46 187.08 249.82 252.69"/>
      <polygon class="o" points="257.7 269.45 234.91 257.05 223.6 243.83 246.39 256.23 257.7 269.45"/>
      <polygon class="h" points="247 249.39 224.21 236.99 285.61 173.67 308.41 186.07 247 249.39"/>
      <polygon class="h" points="243.56 252.93 220.77 240.53 224.21 236.99 247 249.39 243.56 252.93"/>
      <polygon class="o" points="246.39 256.23 223.6 243.83 220.77 240.53 243.56 252.93 246.39 256.23"/>
      <polygon class="k" points="313.47 183.64 290.67 171.24 227.25 123.48 250.04 135.88 313.47 183.64"/>
      <polygon class="i" points="250.04 135.88 227.25 123.48 238.62 107.09 261.41 119.49 250.04 135.88"/>
      <path class="p" d="M334.12,167.99l1.61,1.21v2.27s-.04,21.53-.04,21.53v2.27s-1.62,1.67-1.62,1.67l-70.1,72.28-3.43,3.54-2.83-3.3-11.32-13.22-2.83-3.3,3.44-3.54,61.41-63.32-61.2-46.08-3.43-2.58,2.84-4.11,11.37-16.4,2.84-4.11,3.42,2.58,69.87,52.61ZM331.24,193.62l.04-21.53-69.87-52.6-11.37,16.4,63.43,47.75v3.44s-63.64,65.61-63.64,65.61l11.32,13.22,70.1-72.29"/>
      <polygon class="j" points="261.41 119.49 331.28 172.09 331.24 193.62 261.14 265.91 249.82 252.69 313.46 187.08 313.47 183.64 250.04 135.88 261.41 119.49"/>
      <polygon class="o" points="308.41 186.07 285.61 173.67 224.41 127.59 247.21 139.99 308.41 186.07"/>
      <polygon class="g" points="257.99 116.91 235.19 104.51 238.04 100.4 260.83 112.8 257.99 116.91"/>
      <polygon class="g" points="246.62 133.3 223.82 120.9 235.19 104.51 257.99 116.91 246.62 133.3"/>
      <polygon class="o" points="247.21 139.99 224.41 127.59 220.98 125.01 243.78 137.41 247.21 139.99"/>
      <polygon class="g" points="243.78 137.41 220.98 125.01 223.82 120.9 246.62 133.3 243.78 137.41"/>
    </g>
    <g class="m">
      <polygon class="u" points="241.85 90.42 219.05 78.02 222.98 79.72 245.77 92.12 241.85 90.42"/>
      <polygon class="l" points="134.02 272.28 111.23 259.88 113.33 255.35 136.12 267.75 134.02 272.28"/>
      <polygon class="n" points="140.04 269.45 117.25 257.06 201.26 75.72 224.06 88.12 140.04 269.45"/>
      <polygon class="q" points="224.06 88.12 201.26 75.72 216.96 82.55 239.75 94.95 224.06 88.12"/>
      <path class="p" d="M241.85,90.42l3.92,1.7-2.1,4.53-84.01,181.33-2.1,4.53-3.93-1.7-15.69-6.83-3.92-1.7,2.1-4.53,84.01-181.33,2.1-4.53,3.93,1.7,15.69,6.83ZM155.74,276.28l84.01-181.33-15.69-6.83-84.02,181.34,15.7,6.83"/>
      <polygon class="j" points="224.06 88.12 239.75 94.95 155.74 276.28 140.04 269.45 224.06 88.12"/>
      <polygon class="u" points="226.16 83.59 203.36 71.19 219.05 78.02 241.85 90.42 226.16 83.59"/>
      <polygon class="l" points="136.12 267.75 113.33 255.35 197.34 74.02 220.13 86.42 136.12 267.75"/>
      <polygon class="u" points="222.23 81.89 199.43 69.49 203.36 71.19 226.16 83.59 222.23 81.89"/>
      <polygon class="l" points="220.13 86.42 197.34 74.02 199.43 69.49 222.23 81.89 220.13 86.42"/>
    </g>
  </g>
</svg>