<?xml version="1.0" encoding="UTF-8"?>
<svg id="b" data-name="Layer 2" xmlns="http://www.w3.org/2000/svg" width="350" height="350" viewBox="0 0 350 350">
  <defs>
    <style>
      .d {
        fill: lime;
        opacity: 0;
      }

      .e {
        fill: #fff;
      }

      .f {
        fill: #a0a0a0;
      }

      .g {
        isolation: isolate;
      }

      .h {
        fill: #878787;
      }

      .i {
        fill: #dfdfdf;
      }

      .j {
        fill: #9e9e9e;
      }

      .k {
        fill: #828282;
      }

      .l {
        fill: gray;
      }

      .m {
        fill: #afafaf;
      }
    </style>
  </defs>
  <g id="c" data-name="Layer 1">
    <rect class="d" width="350" height="350"/>
    <g class="g">
      <polygon points="329.14 193.78 304.91 180.6 304.95 155.67 329.19 168.85 329.14 193.78"/>
      <polygon points="248.64 308.64 224.4 295.46 304.91 180.6 329.14 193.78 248.64 308.64"/>
      <polygon points="249 323.99 224.77 310.81 217.48 303.41 241.71 316.59 249 323.99"/>
      <polygon class="k" points="311.35 187.64 287.12 174.46 287.13 166.82 311.36 180 311.35 187.64"/>
      <polygon class="l" points="248.64 308.64 224.4 295.46 211.49 282.36 235.73 295.54 248.64 308.64"/>
      <polygon class="j" points="235.73 295.54 211.49 282.36 287.12 174.46 311.35 187.64 235.73 295.54"/>
      <polygon points="241.71 316.59 217.48 303.41 204.57 290.3 228.8 303.49 241.71 316.59"/>
      <polygon points="228.48 290 204.25 276.82 277.66 172.07 301.9 185.26 228.48 290"/>
      <polygon points="223.09 297.69 198.86 284.51 204.25 276.82 228.48 290 223.09 297.69"/>
      <polygon points="228.8 303.49 204.57 290.3 198.86 284.51 223.09 297.69 228.8 303.49"/>
      <polygon points="329.19 168.85 304.95 155.67 224.83 63.38 249.07 76.56 329.19 168.85"/>
      <polygon class="l" points="311.36 180 287.13 166.82 211.87 80.12 236.1 93.3 311.36 180"/>
      <polygon class="f" points="236.1 93.3 211.87 80.12 224.83 63.38 249.07 76.56 236.1 93.3"/>
      <path d="M336.46,161.28l2.2,2.53v3.71s-.05,24.93-.05,24.93v3.71s-2.21,3.15-2.21,3.15l-80.51,114.87-6.87,9.82-7.29-7.4-12.91-13.1-5.71-5.79,5.39-7.69,73.41-104.75-73.06-84.38-5.36-6.17,5.73-7.41,12.96-16.74,7.32-9.46,6.84,7.89,80.13,92.29ZM329.14,193.78l.05-24.93-80.12-92.29-12.96,16.74,75.26,86.7v7.64s-75.64,107.89-75.64,107.89l12.91,13.1,80.5-114.86"/>
      <polygon class="i" points="249.07 76.56 329.19 168.85 329.14 193.78 248.64 308.64 235.73 295.54 311.35 187.64 311.36 180 236.1 93.3 249.07 76.56"/>
      <polygon points="301.9 185.26 277.66 172.07 204.6 87.69 228.83 100.88 301.9 185.26"/>
      <polygon points="242.17 70.56 217.93 57.37 225.26 47.92 249.49 61.1 242.17 70.56"/>
      <polygon points="229.2 87.3 204.97 74.11 217.93 57.37 242.17 70.56 229.2 87.3"/>
      <polygon points="228.83 100.88 204.6 87.69 199.24 81.52 223.47 94.71 228.83 100.88"/>
      <polygon points="223.47 94.71 199.24 81.52 204.97 74.11 229.2 87.3 223.47 94.71"/>
    </g>
    <g class="g">
      <polygon points="155.89 326.04 131.66 312.85 149.1 314.66 173.34 327.85 155.89 326.04"/>
      <polygon points="144.98 335.38 120.75 322.2 122.34 312.39 146.58 325.57 144.98 335.38"/>
      <polygon points="173.34 327.85 149.1 314.66 194.11 36.96 218.35 50.14 173.34 327.85"/>
      <polygon points="220.45 39.88 196.22 26.7 205.01 27.62 229.25 40.8 220.45 39.88"/>
      <polygon class="h" points="155.89 326.04 131.66 312.85 176.66 35.15 200.89 48.34 155.89 326.04"/>
      <polygon class="m" points="200.89 48.34 176.66 35.15 194.11 36.96 218.35 50.14 200.89 48.34"/>
      <polygon class="i" points="200.89 48.34 218.35 50.14 173.34 327.85 155.89 326.04 200.89 48.34"/>
      <polygon points="203 38.08 178.77 24.9 196.22 26.7 220.45 39.88 203 38.08"/>
      <polygon points="146.58 325.57 122.34 312.39 167.35 34.68 191.58 47.86 146.58 325.57"/>
      <path d="M220.45,39.88l8.8.92-1.59,9.81-45.01,277.71-1.75,10.78-9.66-1-17.45-1.8-8.8-.92,1.6-9.81L191.58,47.86l1.75-10.78,9.67,1,17.45,1.8ZM173.34,327.85L218.35,50.14l-17.45-1.81-45,277.7,17.45,1.81"/>
      <polygon points="193.33 37.08 169.1 23.9 178.77 24.9 203 38.08 193.33 37.08"/>
      <polygon points="191.58 47.86 167.35 34.68 169.1 23.9 193.33 37.08 191.58 47.86"/>
    </g>
    <g class="g">
      <polygon points="125.67 299.62 101.43 286.44 114.4 269.7 138.63 282.88 125.67 299.62"/>
      <polygon points="125.24 315.08 101.01 301.9 94.17 294.01 118.4 307.19 125.24 315.08"/>
      <polygon points="138.63 282.88 114.4 269.7 39.14 183.01 63.37 196.19 138.63 282.88"/>
      <polygon points="63.38 188.55 39.15 175.36 114.77 67.46 139.01 80.64 63.38 188.55"/>
      <polygon points="63.37 196.19 39.14 183.01 39.15 175.36 63.38 188.55 63.37 196.19"/>
      <polygon points="139.01 80.64 114.77 67.46 101.86 54.36 126.1 67.54 139.01 80.64"/>
      <polygon class="l" points="125.67 299.62 101.43 286.44 21.31 194.15 45.55 207.33 125.67 299.62"/>
      <polygon points="118.4 307.19 94.17 294.01 14.04 201.72 38.28 214.9 118.4 307.19"/>
      <polygon points="118.86 62 94.63 48.82 101.5 39 125.73 52.19 118.86 62"/>
      <polygon points="38.28 214.9 14.04 201.72 11.85 199.19 36.08 212.37 38.28 214.9"/>
      <polygon points="36.08 212.37 11.85 199.19 11.85 195.48 36.09 208.66 36.08 212.37"/>
      <polygon class="k" points="45.55 207.33 21.31 194.15 21.36 169.22 45.59 182.4 45.55 207.33"/>
      <polygon class="j" points="45.59 182.4 21.36 169.22 101.86 54.36 126.1 67.54 45.59 182.4"/>
      <polygon class="i" points="126.1 67.54 139.01 80.64 63.38 188.55 63.37 196.19 138.63 282.88 125.67 299.62 45.55 207.33 45.59 182.4 126.1 67.54"/>
      <polygon points="36.09 208.66 11.85 195.48 11.9 170.55 36.13 183.73 36.09 208.66"/>
      <polygon points="38.35 176.87 14.11 163.69 94.63 48.82 118.86 62 38.35 176.87"/>
      <path d="M72.84,190.93l73.06,84.38,5.36,6.18-5.73,7.4-12.96,16.74-7.32,9.46-6.84-7.89-80.13-92.29-2.2-2.53v-3.71s.05-24.93.05-24.93v-3.71s2.22-3.15,2.22-3.15L118.86,62l6.87-9.82,7.29,7.4,12.91,13.1,5.71,5.8-5.39,7.68-73.41,104.75ZM125.67,299.62l12.96-16.74-75.26-86.69v-7.64s75.64-107.9,75.64-107.9l-12.91-13.1-80.5,114.86-.05,24.93,80.12,92.29"/>
      <polygon points="36.13 183.73 11.9 170.55 11.91 166.84 36.14 180.02 36.13 183.73"/>
      <polygon points="36.14 180.02 11.91 166.84 14.11 163.69 38.35 176.87 36.14 180.02"/>
    </g>
    <g>
      <g>
        <rect class="e" x="116.75" y="103.75" width="142.5" height="142.5"/>
        <path d="M255.5,107.5v135H120.5V107.5h135M263,100H113v150h150V100h0Z"/>
      </g>
      <polygon points="131.75 118.75 131.75 137.5 244.25 137.5 244.25 128.12 169.25 128.12 159.87 118.75 131.75 118.75"/>
      <rect x="150.5" y="152.5" width="93.75" height="3.75"/>
      <rect x="150.5" y="162.25" width="93.75" height="3.75"/>
      <rect x="150.5" y="171.25" width="93.75" height="3.75"/>
    </g>
  </g>
</svg>