<?xml version="1.0" encoding="UTF-8"?>
<svg id="b" data-name="Layer 2" xmlns="http://www.w3.org/2000/svg" width="400" height="362.5" viewBox="0 0 400 362.5">
  <g id="c" data-name="Layer 2">
    <g>
      <rect width="400" height="362.5" fill="none"/>
      <g id="d" data-name="leftBr" isolation="isolate">
        <polygon points="112.88 20.36 103.98 21.61 67.37 26.75 63.67 27.27 61.06 30.45 33.54 63.96 30.93 67.13 30.93 71.11 30.75 163.71 17.78 178.42 10.67 186.49 17.77 192.54 30.23 203.19 30.06 295.76 30.05 299.74 32.66 302.19 60.06 327.97 62.67 330.42 85.46 342.82 89.15 342.3 126.21 337.09 135.11 335.84 135.13 326.23 135.16 307.02 135.18 297.42 112.39 285.02 103.49 286.27 88.49 288.38 88.65 197.93 88.66 193.72 86.25 191.18 89.11 187.93 89.12 183.72 89.29 90.45 101.14 76.02 104.41 75.56 126.7 72.43 135.6 71.18 135.62 61.57 135.66 42.36 135.67 32.76 112.88 20.36"/>
        <polygon points="126.76 43.61 126.72 62.82 104.43 65.96 97.47 66.93 80.4 87.72 80.22 184.97 72.87 193.31 79.75 199.18 79.57 296.45 96.58 312.44 126.26 308.27 126.23 327.48 89.17 332.69 61.75 306.91 61.93 210.12 46.6 197.03 62.44 179.06 62.62 82.26 90.14 48.76 126.76 43.61" fill="#fff"/>
      </g>
      <g id="e" data-name="right" isolation="isolate">
        <polygon points="382.41 86.3 345.15 38.16 342.53 34.77 319.74 22.37 315.38 22.92 277.21 27.74 268.31 28.87 268.17 38.49 267.9 57.74 267.76 67.36 290.56 79.76 299.46 78.63 312.53 76.98 325.78 94.1 325.49 249.55 301.31 288.82 276.72 291.93 267.82 293.05 267.68 302.67 267.41 321.91 267.27 331.54 290.07 343.93 298.97 342.81 337.4 337.96 342.01 337.38 344.73 332.97 382.17 272.17 383.87 269.41 383.88 266.3 384.2 91.84 384.21 88.62 382.41 86.3"/>
        <polygon id="f" data-name="important" points="299.86 49.76 338.04 44.94 375.3 93.09 374.98 267.55 337.54 328.33 299.1 333.19 299.37 313.95 328.58 310.26 357.19 263.81 357.49 102.03 329.06 65.29 299.59 69.01 299.86 49.76" fill="#fff"/>
      </g>
      <g isolation="isolate">
        <polygon points="308.22 112.72 300.77 113.76 102.26 141.66 94.81 142.71 94.8 150.75 94.6 257.88 94.58 265.91 107.29 272.83 114.74 271.78 313.25 243.88 320.7 242.83 320.71 234.8 320.91 127.67 320.93 119.63 308.22 112.72"/>
        <path d="M114.95,156.61l198.51-27.9-.2,107.13-198.51,27.9.2-107.13ZM179.96,214.42l.04-20.09-12.41,1.74.02-13.39-18.61,2.62-.02,13.39-12.4,1.74-.04,20.09,12.4-1.74-.02,13.39,18.61-2.62.02-13.39,12.41-1.74M283.71,213.22c7.79-1.09,14.11-8.79,14.13-17.2.02-8.4-6.28-14.33-14.07-13.24-7.79,1.09-14.11,8.8-14.12,17.2-.02,8.4,6.28,14.33,14.07,13.23M234.36,220.16c7.79-1.09,14.11-8.79,14.13-17.2.02-8.4-6.28-14.33-14.07-13.24-7.79,1.09-14.11,8.8-14.12,17.2-.02,8.4,6.28,14.33,14.07,13.23" fill="#fff"/>
        <path d="M283.76,182.79c7.79-1.09,14.09,4.83,14.07,13.24-.02,8.4-6.34,16.1-14.13,17.2-7.79,1.09-14.08-4.83-14.07-13.23.02-8.4,6.34-16.11,14.12-17.2Z" fill="#df0000"/>
        <path d="M234.42,189.72c7.79-1.09,14.09,4.83,14.07,13.24-.02,8.4-6.34,16.1-14.13,17.2-7.79,1.09-14.08-4.83-14.07-13.23.02-8.4,6.34-16.11,14.12-17.2Z" fill="#df0000"/>
      </g>
    </g>
  </g>
</svg>