<?xml version="1.0" encoding="UTF-8"?>
<svg id="b" data-name="Layer 2" xmlns="http://www.w3.org/2000/svg" width="200" height="200" viewBox="0 0 200 200">
  <defs>
    <style>
      .d {
        fill: #fff;
      }

      .e {
        isolation: isolate;
      }

      .f {
        fill: red;
        opacity: 0;
      }
    </style>
  </defs>
  <g id="c" data-name="Layer 1">
    <g>
      <rect class="f" width="200" height="200"/>
      <polygon class="d" points="119.16 24.12 119.04 88.51 110.41 109.33 110.36 135.81 100.24 137.23 100.45 26.75 119.16 24.12"/>
      <path d="M103.45,3.09l-32.84,4.62-.23,125.74,22.79,12.4,24.26-3.41.06-32.39,8.62-20.82.14-73.73-22.79-12.4ZM119.04,88.51l-8.63,20.83-.05,26.47-10.12,1.42.21-110.48,18.71-2.63-.12,64.39Z"/>
      <g class="e">
        <polygon class="d" points="112.6 167.01 119.43 173.26 119.4 187.45 100.35 190.13 100.39 168.72 112.6 167.01"/>
        <path d="M115.49,158.97l-22.79-12.4-22.16,3.11-.07,36.67,22.79,12.4,33.19-4.66.05-25.04-11.01-10.08ZM119.4,187.45l-19.06,2.68.04-21.41,12.22-1.72,6.83,6.25-.03,14.2Z"/>
      </g>
    </g>
  </g>
</svg>