<?xml version="1.0" encoding="UTF-8"?>
<svg id="b" data-name="Layer 2" xmlns="http://www.w3.org/2000/svg" width="200" height="200" viewBox="0 0 200 200">
  <defs>
    <style>
      .d, .e {
        fill: #fff;
      }

      .e {
        opacity: 0;
      }
    </style>
  </defs>
  <g id="c" data-name="Layer 1">
    <rect class="e" width="200" height="200"/>
    <path d="M136.59,29.97l-22.79-12.4-73.11,10.28,31.09,29.25,22.79,12.4,12.84-1.8-.02,10.82-44.51,6.25-.08,45.62,22.79,12.4,31.15-4.38.02-12,19.65-2.76,24.91-30.33.07-40-24.81-23.33ZM152.43,90.58l-19.69,23.96-24.86,3.49-.02,12.01-13.35,1.88.05-26.41,44.51-6.25.08-45.63-22.95,3.22-8.76-4.77v6s-9.17,1.29-9.17,1.29l-13.33-12.54,47.93-6.74,19.61,18.45-.06,32.04Z"/>
    <polygon class="d" points="105.02 153.72 111.3 159.63 111.28 172.06 93.47 174.56 93.51 155.34 105.02 153.72"/>
    <path d="M108.72,143.6l-22.79-12.4-24.1,3.39-.07,38.43,22.79,12.4,35.61-5,.05-26.01-11.49-10.81ZM111.28,172.06l-17.81,2.5.04-19.22,11.51-1.62,6.28,5.91-.02,12.42Z"/>
    <polygon class="d" points="132.88 40.1 152.49 58.54 152.43 90.58 132.74 114.55 107.88 118.04 107.86 130.05 94.51 131.92 94.56 105.51 139.06 99.26 139.15 53.62 98.27 59.37 84.94 46.83 132.88 40.1"/>
  </g>
</svg>