<?xml version="1.0" encoding="UTF-8"?>
<svg id="b" data-name="Layer 2" xmlns="http://www.w3.org/2000/svg" width="350" height="350" viewBox="0 0 350 350">
  <defs>
    <style>
      .d {
        fill: #838383;
      }

      .e {
        fill: #9a9a9a;
      }

      .f {
        fill: lime;
        opacity: 0;
      }

      .g {
        fill: #fff;
      }

      .h {
        fill: #9b9b9b;
      }

      .i {
        isolation: isolate;
      }

      .j {
        fill: #dfdfdf;
      }

      .k {
        fill: #b4b4b4;
      }

      .l {
        fill: #828282;
      }

      .m {
        fill: gray;
      }
    </style>
  </defs>
  <g id="c" data-name="Layer 1">
    <g class="i">
      <polygon points="118.59 316.59 95.8 304.19 95.6 285.01 118.39 297.41 118.59 316.59"/>
      <polygon points="118.29 287.82 95.5 275.42 104.4 274.04 127.19 286.44 118.29 287.82"/>
      <polygon points="80.15 322.54 57.36 310.14 95.8 304.19 118.59 316.59 80.15 322.54"/>
      <polygon class="k" points="89.19 301.93 66.39 289.53 95.6 285.01 118.39 297.41 89.19 301.93"/>
      <polygon points="93.7 291.62 70.91 279.22 95.5 275.42 118.29 287.82 93.7 291.62"/>
      <polygon points="75.64 332.84 52.85 320.44 50.15 316.79 72.94 329.19 75.64 332.84"/>
      <polygon points="89.19 301.93 66.39 289.53 37.94 251.1 60.73 263.5 89.19 301.93"/>
      <polygon class="m" points="80.16 322.54 57.36 310.14 20.13 259.84 42.92 272.24 80.16 322.54"/>
      <polygon points="72.94 329.19 50.15 316.79 12.92 266.49 35.71 278.89 72.94 329.19"/>
      <polygon points="35.71 278.89 12.92 266.49 11.22 264.21 34.02 276.6 35.71 278.89"/>
      <polygon points="34.02 276.6 11.22 264.21 11.23 261.09 34.02 273.49 34.02 276.6"/>
      <polygon points="119.08 52.41 96.29 40.01 96.09 20.83 118.88 33.23 119.08 52.41"/>
      <polygon points="118.78 23.64 95.99 11.24 104.89 9.87 127.68 22.27 118.78 23.64"/>
      <polygon points="89.62 56.97 66.82 44.57 96.29 40.01 119.08 52.41 89.62 56.97"/>
      <polygon points="60.73 263.5 37.94 251.1 38.24 89.33 61.03 101.72 60.73 263.5"/>
      <polygon points="61.03 101.72 38.24 89.33 66.82 44.57 89.62 56.97 61.03 101.72"/>
      <polygon class="k" points="80.71 39.14 57.91 26.74 96.09 20.83 118.88 33.23 80.71 39.14"/>
      <polygon points="80.6 29.55 57.81 17.15 95.99 11.24 118.78 23.64 80.6 29.55"/>
      <polygon class="l" points="42.92 272.24 20.13 259.84 20.45 85.39 43.25 97.78 42.92 272.24"/>
      <polygon class="h" points="43.25 97.78 20.45 85.39 57.91 26.74 80.71 39.14 43.25 97.78"/>
      <path d="M127.29,296.03l.2,19.18.1,9.59-8.9,1.38-38.44,5.95-4.61.72-2.7-3.65-37.23-50.3-1.69-2.29v-3.11s.33-174.46.33-174.46v-3.22s1.81-2.83,1.81-2.83l37.45-58.64,2.63-4.13,4.36-.67,38.18-5.91,8.9-1.37.1,9.59.2,19.18.1,9.59-8.9,1.37-25.11,3.89-24.14,37.8-.29,155.44,24.05,32.49,24.59-3.8,8.9-1.38.1,9.59ZM80.15,322.54l38.44-5.95-.2-19.18-29.21,4.52-28.45-38.43.3-161.77,28.58-44.75,29.46-4.56-.2-19.18-38.18,5.91-37.46,58.65-.32,174.46,37.23,50.29"/>
      <polygon class="j" points="118.88 33.23 119.08 52.41 89.62 56.97 61.03 101.72 60.73 263.5 89.19 301.93 118.39 297.41 118.59 316.59 80.16 322.54 42.92 272.24 43.25 97.78 80.71 39.14 118.88 33.23"/>
      <polygon points="76.25 30.22 53.45 17.82 57.81 17.15 80.6 29.55 76.25 30.22"/>
      <polygon points="73.61 34.35 50.82 21.95 53.45 17.82 76.25 30.22 73.61 34.35"/>
      <polygon points="34.02 273.49 11.23 261.09 11.55 86.64 34.35 99.04 34.02 273.49"/>
      <polygon points="36.16 92.99 13.37 80.59 50.82 21.95 73.61 34.35 36.16 92.99"/>
      <polygon points="34.35 99.04 11.55 86.64 11.56 83.42 34.35 95.82 34.35 99.04"/>
      <polygon points="34.35 95.82 11.56 83.42 13.37 80.59 36.16 92.99 34.35 95.82"/>
    </g>
    <g class="i">
      <polygon points="292.24 322.36 269.45 309.96 306.89 249.18 329.68 261.58 292.24 322.36"/>
      <polygon class="e" points="283.28 304.29 260.49 291.89 289.1 245.44 311.89 257.83 283.28 304.29"/>
      <polygon points="278.81 295.24 256.01 282.85 280.2 243.57 302.99 255.97 278.81 295.24"/>
      <polygon points="253.81 327.22 231.02 314.82 269.45 309.96 292.24 322.36 253.81 327.22"/>
      <polygon points="244.77 337.96 221.98 325.57 222.12 315.94 244.91 328.34 244.77 337.96"/>
      <polygon class="d" points="253.81 327.22 231.02 314.82 231.28 295.58 254.08 307.98 253.81 327.22"/>
      <polygon class="k" points="254.08 307.98 231.28 295.58 260.49 291.89 283.28 304.29 254.08 307.98"/>
      <polygon points="254.22 298.35 231.42 285.96 256.01 282.85 278.81 295.24 254.22 298.35"/>
      <polygon points="244.91 328.34 222.12 315.94 222.38 296.7 245.18 309.1 244.91 328.34"/>
      <polygon points="245.32 299.48 222.52 287.08 231.42 285.96 254.22 298.35 245.32 299.48"/>
      <polygon points="245.18 309.1 222.38 296.7 222.52 287.08 245.32 299.48 245.18 309.1"/>
      <polygon points="329.68 261.58 306.89 249.18 307.21 74.72 330.01 87.12 329.68 261.58"/>
      <polygon class="l" points="311.89 257.83 289.1 245.44 289.4 83.66 312.2 96.06 311.89 257.83"/>
      <polygon points="302.99 255.97 280.2 243.57 280.49 88.13 303.28 100.53 302.99 255.97"/>
      <polygon class="m" points="312.2 96.06 289.4 83.66 260.97 46.92 283.76 59.32 312.2 96.06"/>
      <polygon points="303.28 100.53 280.49 88.13 256.47 57.1 279.27 69.49 303.28 100.53"/>
      <polygon points="330.01 87.12 307.21 74.72 269.95 26.57 292.74 38.97 330.01 87.12"/>
      <polygon points="292.88 29.35 270.09 16.95 274.45 16.4 297.24 28.8 292.88 29.35"/>
      <polygon points="254.3 63.04 231.51 50.64 260.97 46.92 283.76 59.32 254.3 63.04"/>
      <polygon points="245.26 73.79 222.47 61.39 222.61 51.77 245.4 64.17 245.26 73.79"/>
      <polygon class="j" points="254.57 43.79 292.74 38.97 330.01 87.12 329.68 261.58 292.24 322.36 253.81 327.22 254.08 307.98 283.28 304.29 311.89 257.83 312.2 96.06 283.76 59.32 254.3 63.04 254.57 43.79"/>
      <polygon class="k" points="254.57 43.79 231.78 31.39 269.95 26.57 292.74 38.97 254.57 43.79"/>
      <polygon class="d" points="254.3 63.04 231.51 50.64 231.78 31.39 254.57 43.79 254.3 63.04"/>
      <polygon points="254.71 34.17 231.91 21.77 270.09 16.95 292.88 29.35 254.71 34.17"/>
      <polygon points="245.4 64.17 222.61 51.77 222.88 32.52 245.67 44.92 245.4 64.17"/>
      <path d="M337.11,80.33l1.8,2.32v3.22s-.33,174.46-.33,174.46v3.11s-1.71,2.76-1.71,2.76l-37.44,60.8-2.71,4.41-4.61.58-38.43,4.86-8.9,1.12.14-9.62.27-19.24.14-9.62,8.9-1.12,24.59-3.11,24.19-39.27.29-155.44-24.02-31.04-25.1,3.17-8.9,1.13.14-9.62.27-19.24.14-9.62,8.9-1.13,38.18-4.82,4.36-.55,2.62,3.39,37.25,48.14ZM329.68,261.58l.32-174.46-37.26-48.15-38.18,4.82-.27,19.24,29.46-3.72,28.43,36.74-.3,161.77-28.61,46.45-29.21,3.69-.27,19.24,38.43-4.86,37.44-60.79"/>
      <polygon points="245.67 44.92 222.88 32.52 223.01 22.9 245.81 35.3 245.67 44.92"/>
      <polygon points="245.81 35.3 223.01 22.9 231.91 21.77 254.71 34.17 245.81 35.3"/>
    </g>
    <rect class="f" width="350" height="350"/>
    <g>
      <g>
        <rect class="g" x="103.75" y="103.75" width="142.5" height="142.5"/>
        <path d="M242.5,107.5v135H107.5V107.5h135M250,100H100v150h150V100h0Z"/>
      </g>
      <polygon points="118.75 118.75 118.75 137.5 231.25 137.5 231.25 128.12 156.25 128.12 146.87 118.75 118.75 118.75"/>
      <rect x="137.5" y="152.5" width="93.75" height="3.75"/>
      <rect x="137.5" y="162.25" width="93.75" height="3.75"/>
      <rect x="137.5" y="171.25" width="93.75" height="3.75"/>
    </g>
  </g>
</svg>