<?xml version="1.0" encoding="UTF-8"?>
<svg id="b" data-name="Layer 2" xmlns="http://www.w3.org/2000/svg" width="350" height="350" viewBox="0 0 350 350">
  <defs>
    <style>
      .i {
        fill: lime;
        opacity: 0;
      }

      .j {
        fill: #fff;
      }

      .k {
        isolation: isolate;
      }

      .l {
        fill: #006837;
      }

      .m {
        fill: #dfdfdf;
      }

      .n {
        fill: #fbb03b;
      }

      .o {
        fill: #ff0;
      }
    </style>
  </defs>
  <g id="c" data-name="Layer 1">
    <g>
      <rect id="d" data-name="bg" class="i" width="350" height="350"/>
      <g id="e" data-name="leftBr" class="k">
        <polygon points="106.59 8.85 97.69 10.1 61.07 15.24 57.38 15.76 54.77 18.94 27.25 52.45 24.64 55.62 24.63 59.6 24.46 152.2 11.49 166.91 4.38 174.98 11.48 181.03 23.94 191.68 23.77 284.25 23.76 288.23 26.37 290.68 53.77 316.46 56.38 318.91 79.17 331.31 82.85 330.79 119.92 325.58 128.82 324.33 128.84 314.72 128.87 295.51 128.89 285.91 106.1 273.51 97.2 274.76 82.19 276.87 82.36 186.42 82.37 182.21 79.96 179.67 82.82 176.42 82.83 172.21 83 78.94 94.85 64.51 98.12 64.05 120.41 60.92 129.31 59.67 129.33 50.06 129.36 30.85 129.38 21.25 106.59 8.85"/>
        <polygon class="m" points="120.46 32.1 120.43 51.31 98.14 54.45 91.18 55.42 74.11 76.21 73.93 173.46 66.58 181.8 73.46 187.67 73.28 284.94 90.29 300.93 119.97 296.76 119.94 315.97 82.87 321.18 55.46 295.4 55.64 198.61 40.31 185.52 56.15 167.55 56.33 70.75 83.85 37.25 120.46 32.1"/>
      </g>
      <g id="f" data-name="rightBr">
        <polygon points="338.77 166.98 325.86 155.9 326.03 63.31 326.04 59.33 323.43 56.89 296.03 31.1 293.42 28.66 270.63 16.26 266.94 16.78 230.33 21.92 221.43 23.17 221.41 32.78 221.37 51.99 221.36 61.59 244.15 73.99 253.05 72.74 267.6 70.7 267.44 161.12 267.43 165.33 270.53 167.99 267.87 171 267.86 175.21 267.68 268.5 255.84 282.93 229.84 286.58 220.94 287.83 220.92 297.44 220.88 316.65 220.87 326.25 243.66 338.65 252.56 337.4 289.62 332.19 293.31 331.67 295.92 328.5 323.44 294.99 326.05 291.82 326.05 287.83 326.23 195.26 338.74 181.11 345.86 173.05 338.77 166.98"/>
        <polygon id="g" data-name="important" class="m" points="289.72 38.78 317.13 64.56 316.95 161.36 332.73 174.89 317.33 192.3 317.15 289.08 289.64 322.59 252.58 327.8 252.61 308.59 282.3 304.41 299.37 283.63 299.55 186.36 306.45 178.56 299.13 172.27 299.31 75.02 282.31 59.03 275.35 60.01 253.07 63.14 253.1 43.93 289.72 38.78"/>
      </g>
    </g>
    <g>
      <g id="h" data-name="frame">
        <rect class="j" x="108.65" y="104.65" width="140.7" height="140.7"/>
        <path d="M246,108v134H112V108h134M252.7,101.3H105.3v147.4h147.4V101.3h0Z"/>
      </g>
      <rect x="120.04" y="116.04" width="58.29" height="8.71"/>
      <rect x="120.04" y="149.54" width="27.96" height="8.71"/>
      <rect x="152.04" y="149.54" width="15.96" height="8.71"/>
      <rect x="156" y="132.79" width="31.04" height="8.71"/>
      <rect x="120.04" y="166.29" width="20.96" height="8.71"/>
      <rect x="120.04" y="183.04" width="66.96" height="8.71"/>
      <rect x="190.04" y="183.04" width="16.96" height="8.71"/>
      <rect x="120.04" y="216.54" width="29.96" height="8.71"/>
      <rect x="174.04" y="216.54" width="29.96" height="8.71"/>
      <rect class="l" x="120.04" y="199.79" width="15.96" height="8.71"/>
      <rect class="l" x="139.04" y="199.79" width="49.96" height="8.71"/>
      <rect class="o" x="120.04" y="132.79" width="33.5" height="8.71"/>
      <rect class="n" x="145.5" y="166.29" width="25.46" height="8.71"/>
      <rect class="n" x="153.54" y="216.54" width="17.42" height="8.71"/>
    </g>
  </g>
</svg>