<?xml version="1.0" encoding="UTF-8"?>
<svg id="b" data-name="Layer 2" xmlns="http://www.w3.org/2000/svg" width="350" height="350" viewBox="0 0 350 350">
  <defs>
    <style>
      .d {
        fill: lime;
        opacity: 0;
      }

      .e {
        fill: #fff;
      }

      .f {
        isolation: isolate;
      }

      .g {
        fill: #dfdfdf;
      }

      .h {
        fill: #b4b4b4;
      }

      .i {
        fill: #828282;
      }

      .j {
        fill: #a3a3a3;
      }

      .k {
        fill: gray;
      }

      .l {
        fill: #a2a2a2;
      }
    </style>
  </defs>
  <g id="c" data-name="Layer 1">
    <g class="f">
      <polygon points="119.94 315.97 97.14 303.57 97.18 284.36 119.97 296.76 119.94 315.97"/>
      <polygon points="119.99 287.16 97.2 274.76 106.1 273.51 128.89 285.91 119.99 287.16"/>
      <polygon points="82.87 321.18 60.08 308.78 97.14 303.57 119.94 315.97 82.87 321.18"/>
      <polygon points="79.17 331.31 56.38 318.91 53.77 316.46 76.56 328.86 79.17 331.31"/>
      <polygon class="h" points="90.29 300.93 67.49 288.54 97.18 284.36 119.97 296.76 90.29 300.93"/>
      <polygon points="93.99 290.81 71.2 278.41 97.2 274.76 119.99 287.16 93.99 290.81"/>
      <polygon points="90.29 300.93 67.49 288.54 50.49 272.54 73.28 284.94 90.29 300.93"/>
      <polygon class="k" points="82.87 321.18 60.08 308.78 32.67 283 55.46 295.4 82.87 321.18"/>
      <polygon points="76.56 328.86 53.77 316.46 26.37 290.68 49.16 303.08 76.56 328.86"/>
      <polygon points="49.16 303.08 26.37 290.68 23.76 288.23 46.55 300.63 49.16 303.08"/>
      <polygon points="46.55 300.63 23.76 288.23 23.77 284.25 46.56 296.65 46.55 300.63"/>
      <polygon points="73.28 284.94 50.49 272.54 50.67 175.27 73.46 187.67 73.28 284.94"/>
      <polygon points="73.46 187.67 50.67 175.27 43.78 169.4 66.58 181.8 73.46 187.67"/>
      <polygon points="66.58 181.8 43.78 169.4 51.14 161.06 73.93 173.46 66.58 181.8"/>
      <polygon class="i" points="55.46 295.4 32.67 283 32.85 186.22 55.64 198.61 55.46 295.4"/>
      <polygon points="46.56 296.65 23.77 284.25 23.94 191.68 46.73 204.08 46.56 296.65"/>
      <polygon class="j" points="40.31 185.52 17.52 173.12 33.35 155.15 56.15 167.55 40.31 185.52"/>
      <polygon class="k" points="55.64 198.61 32.85 186.22 17.52 173.12 40.31 185.52 55.64 198.61"/>
      <polygon points="46.73 204.08 23.94 191.68 11.48 181.03 34.27 193.43 46.73 204.08"/>
      <polygon points="120.43 51.31 97.64 38.92 97.67 19.7 120.46 32.1 120.43 51.31"/>
      <polygon points="120.48 22.5 97.69 10.1 106.59 8.85 129.38 21.25 120.48 22.5"/>
      <polygon points="34.29 179.31 11.49 166.91 24.46 152.2 47.25 164.6 34.29 179.31"/>
      <polygon points="34.27 193.43 11.48 181.03 4.38 174.98 27.17 187.38 34.27 193.43"/>
      <polygon points="27.17 187.38 4.38 174.98 11.49 166.91 34.29 179.31 27.17 187.38"/>
      <polygon points="98.14 54.45 75.34 42.05 97.64 38.92 120.43 51.31 98.14 54.45"/>
      <polygon points="91.18 55.42 68.39 43.03 75.34 42.05 98.14 54.45 91.18 55.42"/>
      <polygon points="74.11 76.21 51.32 63.81 68.39 43.03 91.18 55.42 74.11 76.21"/>
      <polygon points="73.93 173.46 51.14 161.06 51.32 63.81 74.11 76.21 73.93 173.46"/>
      <polygon class="h" points="83.85 37.25 61.06 24.85 97.67 19.7 120.46 32.1 83.85 37.25"/>
      <polygon points="83.87 27.64 61.07 15.24 97.69 10.1 120.48 22.5 83.87 27.64"/>
      <polygon points="80.17 28.16 57.38 15.76 61.07 15.24 83.87 27.64 80.17 28.16"/>
      <polygon class="l" points="56.33 70.75 33.53 58.35 61.06 24.85 83.85 37.25 56.33 70.75"/>
      <polygon class="i" points="56.15 167.55 33.35 155.15 33.53 58.35 56.33 70.75 56.15 167.55"/>
      <path d="M120.48,22.5l8.9-1.25-.02,9.61-.04,19.21-.02,9.61-8.9,1.25-22.29,3.13-3.27.46-11.85,14.42-.17,93.27v4.21s-2.87,3.26-2.87,3.26l2.41,2.54v4.21s-.18,93.29-.18,93.29l11.8,11.1,26-3.65,8.9-1.25-.02,9.61-.04,19.21-.02,9.61-8.9,1.25-37.06,5.21-3.68.52-2.61-2.44-27.4-25.79-2.61-2.44v-3.99s.18-92.57.18-92.57l-12.46-10.64-7.1-6.06,7.11-8.07,12.97-14.71.17-92.6v-3.98s2.62-3.18,2.62-3.18l27.52-33.51,2.61-3.18,3.69-.52,36.62-5.15ZM120.43,51.31l.04-19.21-36.62,5.15-27.52,33.5-.18,96.8-15.83,17.97,15.33,13.09-.18,96.78,27.41,25.79,37.06-5.21.04-19.21-29.69,4.17-17-16,.18-97.27-6.88-5.87,7.35-8.35.18-97.25,17.07-20.78,6.95-.98,22.29-3.13"/>
      <polygon class="g" points="120.46 32.1 120.43 51.31 98.14 54.45 91.18 55.42 74.11 76.21 73.93 173.46 66.58 181.8 73.46 187.67 73.28 284.94 90.29 300.93 119.97 296.76 119.94 315.97 82.87 321.18 55.46 295.4 55.64 198.61 40.31 185.52 56.15 167.55 56.33 70.75 83.85 37.25 120.46 32.1"/>
      <polygon points="77.56 31.34 54.77 18.94 57.38 15.76 80.17 28.16 77.56 31.34"/>
      <polygon points="47.25 164.6 24.46 152.2 24.63 59.6 47.43 72 47.25 164.6"/>
      <polygon points="50.04 64.85 27.25 52.45 54.77 18.94 77.56 31.34 50.04 64.85"/>
      <polygon points="47.43 68.02 24.64 55.62 27.25 52.45 50.04 64.85 47.43 68.02"/>
      <polygon points="47.43 72 24.63 59.6 24.64 55.62 47.43 68.02 47.43 72"/>
    </g>
    <g class="f">
      <polygon points="289.64 322.59 266.85 310.19 294.36 276.68 317.15 289.08 289.64 322.59"/>
      <polygon class="l" points="282.3 304.41 259.5 292.01 276.58 271.23 299.37 283.63 282.3 304.41"/>
      <polygon points="278.63 295.33 255.84 282.93 267.68 268.5 290.48 280.9 278.63 295.33"/>
      <polygon points="252.58 327.8 229.78 315.4 266.85 310.19 289.64 322.59 252.58 327.8"/>
      <polygon points="243.66 338.65 220.87 326.25 220.88 316.65 243.68 329.05 243.66 338.65"/>
      <polygon points="317.33 192.3 294.54 179.9 309.93 162.49 332.73 174.89 317.33 192.3"/>
      <polygon points="317.15 289.08 294.36 276.68 294.54 179.9 317.33 192.3 317.15 289.08"/>
      <polygon class="h" points="252.61 308.59 229.82 296.19 259.5 292.01 282.3 304.41 252.61 308.59"/>
      <polygon class="i" points="252.58 327.8 229.78 315.4 229.82 296.19 252.61 308.59 252.58 327.8"/>
      <polygon points="252.63 298.98 229.84 286.58 255.84 282.93 278.63 295.33 252.63 298.98"/>
      <polygon points="243.68 329.05 220.88 316.65 220.92 297.44 243.71 309.84 243.68 329.05"/>
      <polygon points="243.71 309.84 220.92 297.44 220.94 287.83 243.73 300.23 243.71 309.84"/>
      <polygon points="243.73 300.23 220.94 287.83 229.84 286.58 252.63 298.98 243.73 300.23"/>
      <polygon points="332.73 174.89 309.93 162.49 294.16 148.96 316.95 161.36 332.73 174.89"/>
      <polygon class="j" points="299.55 186.36 276.76 173.96 283.66 166.16 306.45 178.56 299.55 186.36"/>
      <polygon class="i" points="299.37 283.63 276.58 271.23 276.76 173.96 299.55 186.36 299.37 283.63"/>
      <polygon class="k" points="306.45 178.56 283.66 166.16 276.34 159.87 299.13 172.27 306.45 178.56"/>
      <polygon points="290.48 280.9 267.68 268.5 267.86 175.21 290.65 187.61 290.48 280.9"/>
      <polygon points="290.66 183.4 267.87 171 270.53 167.99 293.32 180.39 290.66 183.4"/>
      <polygon points="290.65 187.61 267.86 175.21 267.87 171 290.66 183.4 290.65 187.61"/>
      <polygon points="293.32 180.39 270.53 167.99 267.43 165.33 290.22 177.73 293.32 180.39"/>
      <polygon points="290.22 177.73 267.43 165.33 267.44 161.12 290.23 173.52 290.22 177.73"/>
      <polygon points="316.95 161.36 294.16 148.96 294.34 52.16 317.13 64.56 316.95 161.36"/>
      <polygon class="i" points="299.13 172.27 276.34 159.87 276.52 62.62 299.31 75.02 299.13 172.27"/>
      <polygon points="290.23 173.52 267.44 161.12 267.61 67.85 290.4 80.25 290.23 173.52"/>
      <polygon points="290.4 80.25 267.61 67.85 255.81 56.75 278.6 69.15 290.4 80.25"/>
      <polygon class="k" points="299.31 75.02 276.52 62.62 259.52 46.63 282.31 59.03 299.31 75.02"/>
      <polygon points="317.13 64.56 294.34 52.16 266.93 26.38 289.72 38.78 317.13 64.56"/>
      <polygon points="275.35 60.01 252.56 47.61 259.52 46.63 282.31 59.03 275.35 60.01"/>
      <polygon points="289.74 29.17 266.94 16.78 270.63 16.26 293.42 28.66 289.74 29.17"/>
      <polygon points="253.07 63.14 230.27 50.74 252.56 47.61 275.35 60.01 253.07 63.14"/>
      <polygon points="244.15 73.99 221.36 61.59 221.37 51.99 244.17 64.39 244.15 73.99"/>
      <polygon class="i" points="253.07 63.14 230.27 50.74 230.31 31.53 253.1 43.93 253.07 63.14"/>
      <polygon class="h" points="253.1 43.93 230.31 31.53 266.93 26.38 289.72 38.78 253.1 43.93"/>
      <polygon class="g" points="289.72 38.78 317.13 64.56 316.95 161.36 332.73 174.89 317.33 192.3 317.15 289.08 289.64 322.59 252.58 327.8 252.61 308.59 282.3 304.41 299.37 283.63 299.55 186.36 306.45 178.56 299.13 172.27 299.31 75.02 282.31 59.03 275.35 60.01 253.07 63.14 253.1 43.93 289.72 38.78"/>
      <polygon points="253.12 34.32 230.33 21.92 266.94 16.78 289.74 29.17 253.12 34.32"/>
      <polygon points="244.17 64.39 221.37 51.99 221.41 32.78 244.2 45.18 244.17 64.39"/>
      <polygon points="244.2 45.18 221.41 32.78 221.43 23.17 244.22 35.57 244.2 45.18"/>
      <path d="M338.77,166.98l7.08,6.07-7.12,8.05-12.51,14.15-.17,92.57v3.99s-2.62,3.18-2.62,3.18l-27.52,33.51-2.61,3.18-3.68.52-37.06,5.21-8.9,1.25.02-9.61.04-19.21.02-9.61,8.9-1.25,26-3.65,11.85-14.42.17-93.29v-4.21s2.67-3.01,2.67-3.01l-3.1-2.66v-4.21s.18-93.27.18-93.27l-11.8-11.1-3.27.46-22.28,3.13-8.9,1.25.02-9.61.04-19.21.02-9.61,8.9-1.25,36.62-5.15,3.68-.52,2.61,2.44,27.4,25.79,2.61,2.44v3.98s-.18,92.6-.18,92.6l12.91,11.07ZM317.33,192.3l15.39-17.41-15.78-13.53.18-96.8-27.41-25.78-36.62,5.15-.04,19.21,22.28-3.13,6.96-.98,17,16-.18,97.25,7.32,6.28-6.9,7.81-.18,97.27-17.07,20.78-29.69,4.17-.04,19.21,37.06-5.21,27.51-33.51.18-96.78"/>
      <polygon points="244.22 35.57 221.43 23.17 230.33 21.92 253.12 34.32 244.22 35.57"/>
    </g>
    <rect class="d" width="350" height="350"/>
    <g>
      <g>
        <rect class="e" x="103.75" y="103.75" width="142.5" height="142.5"/>
        <path d="M242.5,107.5v135H107.5V107.5h135M250,100H100v150h150V100h0Z"/>
      </g>
      <polygon points="118.75 118.75 118.75 137.5 231.25 137.5 231.25 128.12 156.25 128.12 146.87 118.75 118.75 118.75"/>
      <rect x="137.5" y="152.5" width="93.75" height="3.75"/>
      <rect x="137.5" y="162.25" width="93.75" height="3.75"/>
      <rect x="137.5" y="171.25" width="93.75" height="3.75"/>
    </g>
  </g>
</svg>