<?xml version="1.0" encoding="UTF-8"?>
<svg id="b" data-name="Layer 2" xmlns="http://www.w3.org/2000/svg" width="328.08" height="323.07" xmlns:xlink="http://www.w3.org/1999/xlink" viewBox="0 0 328.08 323.07">
  <defs>
    <style>
      .e {
        fill: #757575;
      }

      .f {
        fill: #c9c9c9;
      }

      .g {
        fill: #737373;
      }

      .h {
        fill: #929292;
      }

      .i {
        isolation: isolate;
      }

      .j {
        fill: #939393;
      }

      .k {
        fill: #333;
      }

      .l {
        fill: #595959;
      }

      .m {
        fill: #484848;
      }

      .n {
        fill: #a3a3a3;
      }

      .o {
        fill: url(#d);
        opacity: .57;
      }

      .p {
        fill: #343434;
      }

      .q {
        fill: #414141;
      }
    </style>
    <linearGradient id="d" x1="163.92" y1="0" x2="163.92" y2="300" gradientUnits="userSpaceOnUse">
      <stop offset="0" stop-color="#b5b5b5"/>
      <stop offset="1" stop-color="gray"/>
    </linearGradient>
  </defs>
  <g id="c" data-name="Layer 1">
    <g>
      <rect class="o" x="13.92" width="300" height="300"/>
      <g class="i">
        <polygon class="m" points="109.03 282.11 86.24 269.71 90.69 269.08 113.49 281.48 109.03 282.11"/>
        <polygon class="k" points="70.07 316.39 47.28 303.99 45.97 302.78 68.77 315.17 70.07 316.39"/>
        <polygon class="m" points="81.19 286.02 58.39 273.62 86.24 269.71 109.03 282.11 81.19 286.02"/>
        <polygon class="g" points="71.92 311.33 49.13 298.94 21.72 273.15 44.51 285.55 71.92 311.33"/>
        <polygon class="k" points="68.77 315.17 45.97 302.78 18.57 276.99 41.36 289.39 68.77 315.17"/>
        <polygon class="k" points="41.36 289.39 18.57 276.99 17.27 275.76 40.06 288.16 41.36 289.39"/>
        <polygon class="p" points="40.06 288.16 17.27 275.76 17.27 273.77 40.06 286.17 40.06 288.16"/>
        <polygon class="e" points="44.51 285.55 21.72 273.15 21.9 176.36 44.69 188.76 44.51 285.55"/>
        <polygon class="p" points="40.06 286.17 17.27 273.77 17.45 179.09 40.24 191.49 40.06 286.17"/>
        <polygon class="j" points="29.36 175.66 6.57 163.27 22.4 145.3 45.2 157.7 29.36 175.66"/>
        <polygon class="g" points="44.69 188.76 21.9 176.36 6.57 163.27 29.36 175.66 44.69 188.76"/>
        <polygon class="k" points="40.24 191.49 17.45 179.09 3.55 167.22 26.34 179.62 40.24 191.49"/>
        <polygon class="q" points="26.35 172.56 3.56 160.16 17.95 143.82 40.75 156.22 26.35 172.56"/>
        <polygon class="m" points="109.52 17.45 86.73 5.05 91.18 4.42 113.98 16.82 109.52 17.45"/>
        <polygon class="k" points="26.34 179.62 3.55 167.22 0 164.2 22.79 176.6 26.34 179.62"/>
        <polygon class="q" points="22.79 176.6 0 164.2 3.56 160.16 26.35 172.56 22.79 176.6"/>
        <polygon class="n" points="72.9 27.39 50.11 14.99 86.72 9.85 109.51 22.25 72.9 27.39"/>
        <polygon class="m" points="72.91 22.59 50.11 10.19 86.73 5.05 109.52 17.45 72.91 22.59"/>
        <polygon class="m" points="71.06 22.85 48.27 10.45 50.11 10.19 72.91 22.59 71.06 22.85"/>
        <polygon class="q" points="69.76 24.45 46.96 12.05 48.27 10.45 71.06 22.85 69.76 24.45"/>
        <polygon class="e" points="45.2 157.7 22.4 145.3 22.58 48.5 45.38 60.9 45.2 157.7"/>
        <polygon class="h" points="45.38 60.9 22.58 48.5 50.11 14.99 72.9 27.39 45.38 60.9"/>
        <path class="l" d="M109.52,17.45l4.45-.63v4.8s-.04,19.22-.04,19.22v4.8s-4.46.63-4.46.63l-22.29,3.13-5.11.72-14.46,17.61-.18,95.26v2.1s-1.44,1.63-1.44,1.63l-3.8,4.31,3.33,2.84,1.43,1.23v2.11s-.18,95.28-.18,95.28l14.41,13.54,27.84-3.91,4.45-.63v4.81s-.04,19.21-.04,19.21v4.8s-4.46.63-4.46.63l-37.06,5.21-1.84.26-1.3-1.22-27.4-25.79-1.3-1.23v-1.99s.18-94.68.18-94.68l-13.9-11.87-3.55-3.03,3.56-4.03,14.4-16.34.18-94.7v-1.99s1.31-1.59,1.31-1.59l27.52-33.5,1.31-1.59,1.84-.26,36.62-5.15ZM109.48,41.47l.04-19.22-36.62,5.15-27.52,33.51-.18,96.8-15.83,17.97,15.33,13.09-.18,96.79,27.41,25.79,37.06-5.21.04-19.21-29.69,4.17-17-16,.18-97.27-6.88-5.87,7.35-8.35.18-97.25,17.07-20.78,6.95-.98,22.29-3.13"/>
        <polygon class="f" points="109.51 22.25 109.48 41.47 87.19 44.6 80.23 45.58 63.16 66.36 62.98 163.61 55.63 171.96 62.51 177.83 62.33 275.09 79.34 291.09 109.02 286.91 108.99 306.13 71.92 311.33 44.51 285.55 44.69 188.76 29.36 175.66 45.2 157.7 45.38 60.9 72.9 27.39 109.51 22.25"/>
        <polygon class="p" points="40.75 156.22 17.95 143.82 18.13 49.13 40.92 61.53 40.75 156.22"/>
        <polygon class="q" points="42.23 57.94 19.44 45.55 46.96 12.05 69.76 24.45 42.23 57.94"/>
        <polygon class="q" points="40.93 59.54 18.13 47.14 19.44 45.55 42.23 57.94 40.93 59.54"/>
        <polygon class="p" points="40.92 61.53 18.13 49.13 18.13 47.14 40.93 59.54 40.92 61.53"/>
      </g>
      <g class="i">
        <polygon class="h" points="271.09 294.27 248.29 281.87 265.36 261.08 288.16 273.48 271.09 294.27"/>
        <polygon class="q" points="269.25 289.72 246.46 277.32 260.91 259.72 283.71 272.12 269.25 289.72"/>
        <polygon class="p" points="236.9 323.07 214.11 310.67 214.12 305.88 236.91 318.28 236.9 323.07"/>
        <polygon class="e" points="241.36 317.65 218.57 305.25 218.61 286.04 241.4 298.44 241.36 317.65"/>
        <polygon class="n" points="241.4 298.44 218.61 286.04 248.29 281.87 271.09 294.27 241.4 298.44"/>
        <polygon class="m" points="241.41 293.63 218.61 281.23 246.46 277.32 269.25 289.72 241.41 293.63"/>
        <polygon class="p" points="236.91 318.28 214.12 305.88 214.15 286.67 236.95 299.06 236.91 318.28"/>
        <polygon class="p" points="236.95 299.06 214.15 286.67 214.16 281.86 236.95 294.26 236.95 299.06"/>
        <polygon class="m" points="236.95 294.26 214.16 281.86 218.61 281.23 241.41 293.63 236.95 294.26"/>
        <polygon class="j" points="288.34 176.22 265.55 163.82 272.45 156.01 295.24 168.41 288.34 176.22"/>
        <polygon class="e" points="288.16 273.48 265.36 261.08 265.55 163.82 288.34 176.22 288.16 273.48"/>
        <polygon class="p" points="283.71 272.12 260.91 259.72 261.09 164.44 283.88 176.84 283.71 272.12"/>
        <polygon class="q" points="285.33 173.1 262.54 160.7 265.89 156.92 288.68 169.32 285.33 173.1"/>
        <polygon class="p" points="283.88 176.84 261.09 164.44 261.1 162.33 283.89 174.73 283.88 176.84"/>
        <polygon class="q" points="283.89 174.73 261.1 162.33 262.54 160.7 285.33 173.1 283.89 174.73"/>
        <polygon class="g" points="295.24 168.41 272.45 156.01 265.12 149.73 287.92 162.13 295.24 168.41"/>
        <polygon class="k" points="288.68 169.32 265.89 156.92 262.1 153.68 284.9 166.08 288.68 169.32"/>
        <polygon class="k" points="284.9 166.08 262.1 153.68 260.67 152.45 283.47 164.85 284.9 166.08"/>
        <polygon class="p" points="283.47 164.85 260.67 152.45 260.68 150.35 283.47 162.75 283.47 164.85"/>
        <polygon class="e" points="287.92 162.13 265.12 149.73 265.3 52.48 288.1 64.88 287.92 162.13"/>
        <polygon class="p" points="283.47 162.75 260.68 150.35 260.85 55.09 283.65 67.49 283.47 162.75"/>
        <polygon class="k" points="283.65 67.49 260.85 55.09 264.92 50 269.24 53.94 283.65 67.49"/>
        <polygon class="m" points="278.52 23.83 255.72 11.43 257.56 11.17 280.36 23.57 278.52 23.83"/>
        <polygon class="p" points="237.39 58.42 214.6 46.02 214.61 41.22 237.4 53.62 237.39 58.42"/>
        <polygon class="n" points="241.89 33.77 219.1 21.37 255.71 16.23 278.51 28.62 241.89 33.77"/>
        <polygon class="f" points="278.51 28.62 305.92 54.41 305.74 151.21 321.51 164.73 306.12 182.14 305.94 278.93 278.43 312.44 241.36 317.65 241.4 298.44 271.09 294.27 288.16 273.48 288.34 176.22 295.24 168.41 287.92 162.13 288.1 64.88 271.1 48.88 264.14 49.86 241.86 52.99 241.89 33.77 278.51 28.62"/>
        <polygon class="e" points="241.86 52.99 219.06 40.59 219.1 21.37 241.89 33.77 241.86 52.99"/>
        <polygon class="m" points="241.9 28.97 219.11 16.57 255.72 11.43 278.52 23.83 241.9 28.97"/>
        <polygon class="p" points="237.4 53.62 214.61 41.22 214.64 22 237.44 34.4 237.4 53.62"/>
        <polygon class="p" points="237.44 34.4 214.64 22 214.65 17.2 237.45 29.6 237.44 34.4"/>
        <polygon class="m" points="237.45 29.6 214.65 17.2 219.11 16.57 241.9 28.97 237.45 29.6"/>
        <path class="l" d="M324.53,160.78l3.54,3.04-3.56,4.03-13.95,15.78-.18,94.68v1.99s-1.31,1.59-1.31,1.59l-27.52,33.51-1.3,1.58-1.84.26-37.06,5.21-4.45.63v-4.8s.04-19.21.04-19.21v-4.81s4.46-.63,4.46-.63l27.84-3.91,14.46-17.6.18-95.28v-2.11s1.45-1.63,1.45-1.63l3.35-3.78-3.78-3.25-1.43-1.23v-2.1s.18-95.26.18-95.26l-14.41-13.55-5.11.72-22.29,3.13-4.45.63v-4.8s.04-19.22.04-19.22v-4.8s4.46-.63,4.46-.63l36.62-5.15,1.84-.26,1.3,1.23,27.4,25.78,1.3,1.23v1.99s-.18,94.7-.18,94.7l14.34,12.3ZM306.12,182.14l15.39-17.41-15.78-13.52.18-96.8-27.41-25.79-36.62,5.15-.04,19.22,22.29-3.13,6.96-.98,17,16-.18,97.25,7.32,6.28-6.9,7.81-.18,97.27-17.07,20.78-29.69,4.17-.04,19.21,37.06-5.21,27.51-33.51.18-96.79"/>
      </g>
    </g>
  </g>
</svg>