<?xml version="1.0" encoding="UTF-8"?>
<svg id="b" data-name="Layer 2" xmlns="http://www.w3.org/2000/svg" width="350" height="350" viewBox="0 0 350 350">
  <g id="c" data-name="Layer 1">
    <g>
      <rect id="d" data-name="bg" width="350" height="350" fill="lime" opacity="0"/>
      <g id="e" data-name="left">
        <g isolation="isolate">
          <polygon points="127.29 296.03 127.19 286.44 104.4 274.04 95.5 275.42 83.12 277.34 69.65 259.13 69.93 103.69 94.08 65.89 119.18 61.99 128.08 60.62 127.98 51.03 127.78 31.86 127.68 22.27 104.89 9.87 95.99 11.24 57.81 17.15 53.45 17.82 50.82 21.95 13.37 80.59 11.56 83.42 11.55 86.64 11.23 261.09 11.22 264.21 12.92 266.49 50.15 316.79 52.85 320.44 75.64 332.84 80.26 332.12 118.69 326.18 127.59 324.8 127.49 315.21 127.29 296.03"/>
          <polygon points="118.88 33.23 119.08 52.41 89.62 56.97 61.03 101.72 60.73 263.5 89.19 301.93 118.39 297.41 118.59 316.59 80.16 322.54 42.92 272.24 43.25 97.78 80.71 39.14 118.88 33.23" fill="#fff"/>
        </g>
      </g>
      <g id="f" data-name="right" isolation="isolate">
        <polygon points="337.11 80.33 299.86 32.19 297.24 28.8 274.45 16.4 270.09 16.95 231.91 21.77 223.01 22.9 222.88 32.52 222.61 51.77 222.47 61.39 245.26 73.79 254.16 72.66 267.24 71.01 280.49 88.13 280.2 243.57 256.01 282.85 231.42 285.96 222.52 287.08 222.39 296.7 222.12 315.94 221.98 325.57 244.77 337.96 253.67 336.84 292.1 331.99 296.72 331.41 299.43 327 336.87 266.2 338.58 263.44 338.58 260.33 338.91 85.87 338.91 82.65 337.11 80.33"/>
        <polygon id="g" data-name="important" points="254.57 43.79 292.74 38.97 330.01 87.12 329.68 261.58 292.24 322.36 253.81 327.22 254.08 307.98 283.28 304.29 311.89 257.83 312.2 96.06 283.76 59.32 254.3 63.04 254.57 43.79" fill="#fff"/>
      </g>
      <g>
        <g isolation="isolate">
          <polygon points="250.93 179.28 246.66 179.88 86.73 202.36 82.46 202.96 82.45 207.56 82.37 253.6 82.36 258.19 104.2 270.08 108.47 269.48 268.41 247 272.67 246.4 272.68 241.8 272.77 195.77 272.78 191.17 250.93 179.28"/>
          <polygon points="268.41 242.4 108.48 264.88 108.57 218.84 268.5 196.37 268.41 242.4" fill="#82c5f5"/>
        </g>
        <g isolation="isolate">
          <path d="M260.9,141.19s.1.05.15.07l-21.84-11.88c-.26-.14-.52-.27-.78-.4-.1-.05-.2-.08-.29-.13-.43-.2-.86-.39-1.3-.56-.17-.07-.35-.14-.52-.21-.62-.22-1.24-.42-1.88-.59-.01,0-.03,0-.04-.01-.47-.12-.95-.22-1.43-.31-.11-.02-.22-.04-.33-.06-.5-.09-1.01-.16-1.53-.21-.07,0-.14,0-.21-.02-.48-.04-.97-.07-1.46-.08-.09,0-.18,0-.28,0-.53,0-1.06,0-1.59.04-.11,0-.23.02-.34.02-.55.04-1.11.09-1.67.17-.66.09-1.32.22-1.98.36-.22.05-.43.12-.65.17-.43.11-.87.22-1.29.35-.26.08-.51.17-.76.26-.38.13-.76.26-1.14.41-.27.1-.53.22-.79.34-.28.12-.56.23-.84.36-.07.03-.13.07-.2.1-.49.24-.98.5-1.46.76-.18.1-.36.19-.53.29-.65.38-1.29.78-1.92,1.21-.02.01-.03.02-.05.03-.55.38-1.08.77-1.6,1.19-.02.02-.04.04-.07.05-.5.4-.99.81-1.46,1.24-.02.02-.04.03-.05.05-.12.11-.23.22-.35.33-.37.35-.74.7-1.1,1.07-.17.17-.33.36-.5.53-.21.22-.42.43-.62.66-.09.1-.17.21-.26.31-.17.2-.34.4-.5.6-.27.33-.53.66-.78.99-.16.21-.32.43-.48.64-.09.13-.19.25-.28.38-.15.21-.28.43-.42.64-.16.24-.33.49-.48.73-.16.25-.31.51-.46.77l-17.36-9.44-4.26.6-95.96,13.49-4.27.6v4.6s-.09,46.04-.09,46.04v4.6s21.84,11.88,21.84,11.88l4.27-.6,95.96-13.49,4.26-.6v-4.6s.03-13.81.03-13.81l14.26-2c3.54,10.36,13.17,16.56,24.09,15.02,14.11-1.98,25.62-15.98,25.65-31.21.02-9.88-4.8-17.88-12.04-21.74ZM249.07,138.74c.11,0,.23-.02.34-.02.04,0,.07,0,.1,0-.15,0-.3.02-.45.03,0,0,0,0,0,0ZM251,138.68s.06,0,.08,0c-.07,0-.14,0-.22,0,.04,0,.09,0,.13,0ZM252.94,138.78c.07,0,.13.02.2.03-.12-.01-.25-.03-.37-.04.06,0,.12,0,.17.01ZM254.46,138.99c.07.01.14.03.22.04-.1-.02-.2-.03-.3-.05.03,0,.06,0,.09.01ZM247.3,189.54c-10.32,1.45-18.9-5.25-20.86-15.47l-21.75,3.06-.03,18.41-95.96,13.49.09-46.04,80.02-11.25,15.92,8.66v7.51s21.73-3.06,21.73-3.06c2-10.78,10.61-19.9,20.93-21.35,11.78-1.66,21.31,7.31,21.28,20.02-.02,12.71-9.59,24.36-21.37,26.02Z"/>
          <path d="M247.39,143.51c11.78-1.66,21.31,7.31,21.28,20.02-.02,12.71-9.59,24.36-21.37,26.02-10.32,1.45-18.9-5.25-20.86-15.47l-21.75,3.06-.03,18.41-95.96,13.49.09-46.04,95.96-13.49-.03,18.41,21.75-3.06c2-10.78,10.61-19.9,20.93-21.35Z" fill="lime"/>
        </g>
        <g isolation="isolate">
          <path d="M260.9,84.96s.1.05.15.07l-21.84-11.88c-.26-.14-.52-.27-.78-.4-.1-.05-.2-.08-.29-.13-.43-.2-.86-.39-1.3-.56-.17-.07-.35-.14-.52-.21-.62-.22-1.24-.42-1.88-.59-.01,0-.03,0-.04-.01-.47-.12-.95-.22-1.43-.31-.11-.02-.22-.04-.33-.06-.5-.09-1.01-.16-1.53-.21-.07,0-.14,0-.21-.02-.48-.04-.97-.07-1.46-.08-.09,0-.18,0-.28,0-.53,0-1.06,0-1.59.04-.11,0-.23.02-.34.02-.55.04-1.11.09-1.67.17-.66.09-1.32.22-1.98.36-.22.05-.43.12-.65.17-.43.11-.87.22-1.29.35-.26.08-.51.17-.76.26-.38.13-.76.26-1.14.41-.27.1-.53.22-.79.34-.28.12-.56.23-.84.36-.07.03-.13.07-.2.1-.49.24-.98.5-1.46.76-.18.1-.36.19-.53.29-.65.38-1.29.78-1.92,1.21-.02.01-.03.02-.05.03-.55.38-1.08.77-1.6,1.19-.02.02-.04.04-.07.05-.5.4-.99.81-1.46,1.24-.02.02-.04.03-.05.05-.12.11-.23.22-.35.33-.37.35-.74.7-1.1,1.07-.17.17-.33.36-.5.53-.21.22-.42.43-.62.66-.09.1-.17.21-.26.31-.17.2-.34.4-.5.6-.27.33-.53.66-.78.99-.16.21-.32.43-.48.64-.09.13-.19.25-.28.38-.15.21-.28.43-.42.64-.16.24-.33.49-.48.73-.16.25-.31.51-.46.77l-17.36-9.44-4.26.6-95.96,13.49-4.27.6v4.6s-.09,46.04-.09,46.04v4.6s21.84,11.88,21.84,11.88l4.27-.6,95.96-13.49,4.26-.6v-4.6s.03-13.81.03-13.81l14.26-2c3.54,10.36,13.17,16.56,24.09,15.02,14.11-1.98,25.62-15.98,25.65-31.21.02-9.88-4.8-17.88-12.04-21.74ZM249.07,82.51c.11,0,.23-.02.34-.02.04,0,.07,0,.1,0-.15,0-.3.02-.45.03,0,0,0,0,0,0ZM251,82.45s.06,0,.08,0c-.07,0-.14,0-.22,0,.04,0,.09,0,.13,0ZM252.94,82.56c.07,0,.13.02.2.03-.12-.01-.25-.03-.37-.04.06,0,.12,0,.17.01ZM254.46,82.76c.07.01.14.03.22.04-.1-.02-.2-.03-.3-.05.03,0,.06,0,.09.01ZM247.3,133.32c-10.32,1.45-18.9-5.25-20.86-15.47l-21.75,3.06-.03,18.41-95.96,13.49.09-46.04,80.02-11.25,15.92,8.66v7.51s21.73-3.06,21.73-3.06c2-10.78,10.61-19.9,20.93-21.35,11.78-1.66,21.31,7.31,21.28,20.02-.02,12.71-9.59,24.36-21.37,26.02Z"/>
          <path d="M247.39,87.28c11.78-1.66,21.31,7.31,21.28,20.02-.02,12.71-9.59,24.36-21.37,26.02-10.32,1.45-18.9-5.25-20.86-15.47l-21.75,3.06-.03,18.41-95.96,13.49.09-46.04,95.96-13.49-.03,18.41,21.75-3.06c2-10.78,10.61-19.9,20.93-21.35Z" fill="#ff6e6e"/>
        </g>
      </g>
    </g>
  </g>
</svg>