<?xml version="1.0" encoding="UTF-8"?>
<svg id="b" data-name="Layer 2" xmlns="http://www.w3.org/2000/svg" width="200" height="200" viewBox="0 0 200 200">
  <defs>
    <style>
      .d {
        fill: #434343;
      }

      .e {
        fill: #757575;
        opacity: 0;
      }

      .f {
        fill: #272727;
      }

      .g {
        fill: #c9c9c9;
      }

      .h {
        fill: #363636;
      }
    </style>
  </defs>
  <g id="c" data-name="Layer 1">
    <rect class="e" width="200" height="200"/>
    <g>
      <path class="d" d="M69.29,150.5l103.52-14.55-.07,37.49-103.52,14.55.07-37.49ZM172.4,173.12l.07-36.75-102.83,14.45-.07,36.75,102.83-14.45"/>
      <polygon class="g" points="172.47 136.37 172.4 173.12 69.57 187.57 69.64 150.83 172.47 136.37"/>
      <polygon class="f" points="69.23 187.99 25.19 164.04 25.26 126.55 69.29 150.5 69.23 187.99"/>
      <polygon class="h" points="69.29 150.5 25.26 126.55 128.78 112 172.81 135.96 69.29 150.5"/>
    </g>
    <g>
      <path class="d" d="M69.29,100.5l103.52-14.55-.07,37.49-103.52,14.55.07-37.49ZM172.4,123.12l.07-36.75-102.83,14.45-.07,36.75,102.83-14.45"/>
      <polygon class="g" points="172.47 86.37 172.4 123.12 69.57 137.57 69.64 100.83 172.47 86.37"/>
      <polygon class="f" points="69.23 137.99 25.19 114.04 25.26 76.55 69.29 100.5 69.23 137.99"/>
      <polygon class="h" points="69.29 100.5 25.26 76.55 128.78 62 172.81 85.96 69.29 100.5"/>
    </g>
    <g>
      <path class="d" d="M69.29,50.5l103.52-14.55-.07,37.49-103.52,14.55.07-37.49ZM172.4,73.12l.07-36.75-102.83,14.45-.07,36.75,102.83-14.45"/>
      <polygon class="g" points="172.47 36.37 172.4 73.12 69.57 87.57 69.64 50.83 172.47 36.37"/>
      <polygon class="f" points="69.23 87.99 25.19 64.04 25.26 26.55 69.29 50.5 69.23 87.99"/>
      <polygon class="h" points="69.29 50.5 25.26 26.55 128.78 12 172.81 35.96 69.29 50.5"/>
    </g>
  </g>
</svg>