<?xml version="1.0" encoding="UTF-8"?>
<svg id="b" data-name="Layer 2" xmlns="http://www.w3.org/2000/svg" width="350" height="350" viewBox="0 0 350 350">
  <defs>
    <style>
      .h {
        fill: lime;
        opacity: 0;
      }

      .i {
        fill: #fff;
      }

      .j {
        isolation: isolate;
      }

      .k {
        fill: #dfdfdf;
      }
    </style>
  </defs>
  <g id="c" data-name="Layer 1">
    <g>
      <rect id="d" data-name="bg" class="h" width="350" height="350"/>
      <g id="e" data-name="left">
        <g class="j">
          <polygon points="127.29 296.03 127.19 286.44 104.4 274.04 95.5 275.42 83.12 277.34 69.65 259.13 69.93 103.69 94.08 65.89 119.18 61.99 128.08 60.62 127.98 51.03 127.78 31.86 127.68 22.27 104.89 9.87 95.99 11.24 57.81 17.15 53.45 17.82 50.82 21.95 13.37 80.59 11.56 83.42 11.55 86.64 11.23 261.09 11.22 264.21 12.92 266.49 50.15 316.79 52.85 320.44 75.64 332.84 80.26 332.12 118.69 326.18 127.59 324.8 127.49 315.21 127.29 296.03"/>
          <polygon class="i" points="118.88 33.23 119.08 52.41 89.62 56.97 61.03 101.72 60.73 263.5 89.19 301.93 118.39 297.41 118.59 316.59 80.16 322.54 42.92 272.24 43.25 97.78 80.71 39.14 118.88 33.23"/>
        </g>
      </g>
      <g id="f" data-name="right" class="j">
        <polygon points="337.11 80.33 299.86 32.19 297.24 28.8 274.45 16.4 270.09 16.95 231.91 21.77 223.01 22.9 222.88 32.52 222.61 51.77 222.47 61.39 245.26 73.79 254.16 72.66 267.24 71.01 280.49 88.13 280.2 243.57 256.01 282.85 231.42 285.96 222.52 287.08 222.39 296.7 222.12 315.94 221.98 325.57 244.77 337.96 253.67 336.84 292.1 331.99 296.72 331.41 299.43 327 336.87 266.2 338.58 263.44 338.58 260.33 338.91 85.87 338.91 82.65 337.11 80.33"/>
        <polygon id="g" data-name="important" class="k" points="254.57 43.79 292.74 38.97 330.01 87.12 329.68 261.58 292.24 322.36 253.81 327.22 254.08 307.98 283.28 304.29 311.89 257.83 312.2 96.06 283.76 59.32 254.3 63.04 254.57 43.79"/>
      </g>
    </g>
  </g>
</svg>