<?xml version="1.0" encoding="UTF-8"?>
<svg id="b" data-name="Layer 2" xmlns="http://www.w3.org/2000/svg" width="350" height="337" xmlns:xlink="http://www.w3.org/1999/xlink" viewBox="0 0 350 337">
  <defs>
    <style>
      .e {
        fill: #757575;
      }

      .f {
        fill: #8b8b8b;
      }

      .g {
        fill: #3e3e3e;
      }

      .h {
        fill: #767676;
      }

      .i {
        fill: lime;
        opacity: 0;
      }

      .j {
        fill: #f2f2f2;
      }

      .k {
        fill: #737373;
      }

      .l {
        isolation: isolate;
      }

      .m {
        fill: #8c8c8c;
      }

      .n {
        fill: #333;
      }

      .o {
        fill: #595959;
      }

      .p {
        fill: #484848;
      }

      .q {
        fill: url(#d);
        opacity: .17;
        stroke: #f2f2f2;
        stroke-miterlimit: 10;
        stroke-width: 7px;
      }

      .r {
        fill: #a3a3a3;
      }

      .s {
        fill: #343434;
      }

      .t {
        fill: #a2a2a2;
      }
    </style>
    <linearGradient id="d" x1="175.64" y1="12" x2="175.64" y2="312" gradientUnits="userSpaceOnUse">
      <stop offset="0" stop-color="#b5b5b5"/>
      <stop offset="1" stop-color="gray"/>
    </linearGradient>
  </defs>
  <g id="c" data-name="Layer 1">
    <rect class="i" width="350" height="337"/>
    <rect class="q" x="25.64" y="12" width="300" height="300"/>
    <g class="l">
      <polygon class="p" points="118.98 294.61 96.19 282.21 100.64 281.53 123.43 293.93 118.98 294.61"/>
      <polygon class="n" points="78.54 329.68 55.75 317.28 54.4 315.46 77.19 327.86 78.54 329.68"/>
      <polygon class="p" points="92.08 298.77 78.64 285 96.19 282.21 118.98 294.61 92.08 298.77"/>
      <polygon class="k" points="80.79 324.53 58 312.14 20.77 261.83 43.56 274.23 80.79 324.53"/>
      <polygon class="n" points="77.19 327.86 54.4 315.46 17.16 265.16 39.96 277.56 77.19 327.86"/>
      <polygon class="n" points="39.96 277.56 17.16 265.16 16.32 264.01 39.11 276.41 39.96 277.56"/>
      <polygon class="s" points="39.11 276.41 16.32 264.01 16.32 262.46 39.11 274.86 39.11 276.41"/>
      <polygon class="p" points="119.47 30.44 96.68 18.04 101.13 17.34 123.92 29.74 119.47 30.44"/>
      <polygon class="r" points="81.34 41.14 58.55 28.74 96.73 22.83 119.52 35.23 81.34 41.14"/>
      <polygon class="p" points="81.29 36.34 58.49 23.94 96.68 18.04 119.47 30.44 81.29 36.34"/>
      <polygon class="p" points="79.11 36.68 56.32 24.28 58.49 23.94 81.29 36.34 79.11 36.68"/>
      <polygon class="g" points="77.79 38.74 55 26.34 56.32 24.28 79.11 36.68 77.79 38.74"/>
      <polygon class="e" points="43.56 274.23 20.77 261.83 21.09 87.38 43.88 99.78 43.56 274.23"/>
      <polygon class="m" points="43.88 99.78 21.09 87.38 58.55 28.74 81.34 41.14 43.88 99.78"/>
      <polygon class="j" points="119.52 35.23 119.72 54.4 90.25 58.97 61.67 103.72 61.37 265.5 89.82 303.93 119.03 299.41 119.23 318.59 80.79 324.53 43.56 274.23 43.88 99.78 81.34 41.14 119.52 35.23"/>
      <polygon class="s" points="39.11 274.86 16.32 262.46 16.64 88.01 39.44 100.41 39.11 274.86"/>
      <polygon class="g" points="40.34 97.39 17.55 84.99 55 26.34 77.79 38.74 40.34 97.39"/>
      <path class="o" d="M123.48,298.71l.2,19.18.05,4.8-4.45.69-38.44,5.95-2.31.36-1.35-1.82-37.23-50.3-.85-1.14v-1.56s.33-174.45.33-174.45v-1.61s.9-1.41.9-1.41l37.45-58.65,1.32-2.06,2.18-.34,38.19-5.9,4.45-.69.06,4.8.2,19.18.05,4.79-4.45.69-27.28,4.22-26.37,41.29-.29,158.61,26.25,35.46,26.91-4.16,4.45-.69.06,4.79ZM80.79,324.53l38.44-5.95-.2-19.18-29.21,4.52-28.45-38.43.3-161.77,28.58-44.75,29.46-4.56-.2-19.18-38.18,5.91-37.46,58.65-.32,174.45,37.23,50.3"/>
      <polygon class="s" points="39.44 100.41 16.64 88.01 16.65 86.4 39.44 98.8 39.44 100.41"/>
      <polygon class="g" points="39.44 98.8 16.65 86.4 17.55 84.99 40.34 97.39 39.44 98.8"/>
    </g>
    <g class="l">
      <polygon class="f" points="283.93 306.29 261.13 293.9 289.75 247.44 312.54 259.84 283.93 306.29"/>
      <polygon class="g" points="281.69 301.77 258.9 289.37 285.29 246.51 308.09 258.91 281.69 301.77"/>
      <polygon class="s" points="249.93 334.6 227.14 322.2 227.21 317.39 250 329.79 249.93 334.6"/>
      <polygon class="h" points="254.45 329.23 231.66 316.83 231.93 297.59 254.72 309.98 254.45 329.23"/>
      <polygon class="t" points="254.72 309.98 231.93 297.59 261.13 293.9 283.93 306.29 254.72 309.98"/>
      <polygon class="p" points="254.79 305.17 231.99 292.77 258.9 289.37 281.69 301.77 254.79 305.17"/>
      <polygon class="s" points="250 329.79 227.21 317.39 227.47 298.14 250.27 310.54 250 329.79"/>
      <polygon class="p" points="250.34 305.73 227.55 293.33 231.99 292.77 254.79 305.17 250.34 305.73"/>
      <polygon class="s" points="250.27 310.54 227.47 298.14 227.55 293.33 250.34 305.73 250.27 310.54"/>
      <polygon class="e" points="312.54 259.84 289.75 247.44 290.05 85.67 312.84 98.07 312.54 259.84"/>
      <polygon class="s" points="308.09 258.91 285.29 246.51 285.59 87.9 308.38 100.3 308.09 258.91"/>
      <polygon class="n" points="308.38 100.3 285.59 87.9 270.64 65 282.15 66.41 308.38 100.3"/>
      <polygon class="p" points="293.46 36.16 270.67 23.76 272.85 23.49 295.64 35.89 293.46 36.16"/>
      <polygon class="s" points="250.43 70.42 227.63 58.02 227.7 53.21 250.49 65.61 250.43 70.42"/>
      <polygon class="j" points="255.21 45.8 293.39 40.98 330.65 89.13 330.33 263.57 292.89 324.37 254.45 329.23 254.72 309.98 283.93 306.29 312.54 259.84 312.84 98.07 284.41 61.33 254.94 65.04 255.21 45.8"/>
      <polygon class="t" points="255.21 45.8 232.42 33.4 270.6 28.58 293.39 40.98 255.21 45.8"/>
      <polygon class="h" points="254.94 65.04 232.15 52.65 232.42 33.4 255.21 45.8 254.94 65.04"/>
      <polygon class="p" points="255.28 40.99 232.48 28.6 270.67 23.76 293.46 36.16 255.28 40.99"/>
      <polygon class="s" points="250.49 65.61 227.7 53.21 227.97 33.97 250.76 46.37 250.49 65.61"/>
      <path class="o" d="M334.2,85.73l.89,1.16v1.61s-.33,174.45-.33,174.45v1.56s-.85,1.38-.85,1.38l-37.44,60.8-1.36,2.2-2.31.29-38.43,4.86-4.45.56.07-4.81.27-19.24.07-4.81,4.45-.56,26.91-3.4,26.4-42.86.29-158.61-26.23-33.9-27.28,3.45-4.45.56.07-4.81.27-19.24.07-4.82,4.45-.56,38.18-4.83,2.18-.27,1.31,1.69,37.25,48.15ZM330.33,263.57l.32-174.45-37.26-48.15-38.18,4.82-.27,19.24,29.46-3.72,28.43,36.74-.3,161.77-28.61,46.45-29.21,3.69-.27,19.24,38.43-4.86,37.44-60.8"/>
      <polygon class="s" points="250.76 46.37 227.97 33.97 228.04 29.15 250.83 41.55 250.76 46.37"/>
      <polygon class="p" points="250.83 41.55 228.04 29.15 232.48 28.6 255.28 40.99 250.83 41.55"/>
    </g>
  </g>
</svg>