<?xml version="1.0" encoding="UTF-8"?>
<svg id="b" data-name="Layer 2" xmlns="http://www.w3.org/2000/svg" width="350" height="350" viewBox="0 0 350 350">
  <defs>
    <style>
      .i {
        fill: lime;
        opacity: 0;
      }

      .j {
        fill: #fff;
      }

      .k {
        fill: #3fa9f5;
      }

      .l {
        fill: #c9c;
      }

      .m {
        fill: #ebeb00;
      }

      .n {
        isolation: isolate;
      }

      .o {
        fill: #f7931e;
      }
    </style>
  </defs>
  <g id="c" data-name="Layer 1">
    <g>
      <rect id="d" data-name="bg" class="i" width="350" height="350"/>
      <g id="e" data-name="leftBr" class="n">
        <polygon points="106.59 8.85 97.69 10.1 61.07 15.24 57.38 15.76 54.77 18.94 27.25 52.45 24.64 55.62 24.63 59.6 24.46 152.2 11.49 166.91 4.38 174.98 11.48 181.03 23.94 191.68 23.77 284.25 23.76 288.23 26.37 290.68 53.77 316.46 56.38 318.91 79.17 331.31 82.85 330.79 119.92 325.58 128.82 324.33 128.84 314.72 128.87 295.51 128.89 285.91 106.1 273.51 97.2 274.76 82.19 276.87 82.36 186.42 82.37 182.21 79.96 179.67 82.82 176.42 82.83 172.21 83 78.94 94.85 64.51 98.12 64.05 120.41 60.92 129.31 59.67 129.33 50.06 129.36 30.85 129.38 21.25 106.59 8.85"/>
        <polygon class="j" points="120.46 32.1 120.43 51.31 98.14 54.45 91.18 55.42 74.11 76.21 73.93 173.46 66.58 181.8 73.46 187.67 73.28 284.94 90.29 300.93 119.97 296.76 119.94 315.97 82.87 321.18 55.46 295.4 55.64 198.61 40.31 185.52 56.15 167.55 56.33 70.75 83.85 37.25 120.46 32.1"/>
      </g>
      <g id="f" data-name="rightBr">
        <polygon points="338.77 166.98 325.86 155.9 326.03 63.31 326.04 59.33 323.43 56.89 296.03 31.1 293.42 28.66 270.63 16.26 266.94 16.78 230.33 21.92 221.43 23.17 221.41 32.78 221.37 51.99 221.36 61.59 244.15 73.99 253.05 72.74 267.6 70.7 267.44 161.12 267.43 165.33 270.53 167.99 267.87 171 267.86 175.21 267.68 268.5 255.84 282.93 229.84 286.58 220.94 287.83 220.92 297.44 220.88 316.65 220.87 326.25 243.66 338.65 252.56 337.4 289.62 332.19 293.31 331.67 295.92 328.5 323.44 294.99 326.05 291.82 326.05 287.83 326.23 195.26 338.74 181.11 345.86 173.05 338.77 166.98"/>
        <polygon id="g" data-name="important" class="j" points="289.72 38.78 317.13 64.56 316.95 161.36 332.73 174.89 317.33 192.3 317.15 289.08 289.64 322.59 252.58 327.8 252.61 308.59 282.3 304.41 299.37 283.63 299.55 186.36 306.45 178.56 299.13 172.27 299.31 75.02 282.31 59.03 275.35 60.01 253.07 63.14 253.1 43.93 289.72 38.78"/>
      </g>
    </g>
  </g>
  <g id="h" data-name="Layer 2">
    <g class="n">
      <polygon class="m" points="248.96 185.59 248.94 192.8 216.59 197.34 216.61 190.14 248.96 185.59"/>
      <polygon class="m" points="236.61 201.18 236.6 208.38 184.74 215.67 184.75 208.47 236.61 201.18"/>
      <polygon class="k" points="249.01 157.88 249 164.53 184.82 173.55 184.83 166.9 249.01 157.88"/>
      <polygon class="o" points="248.98 171.74 248.97 178.94 159.11 191.57 159.13 184.37 248.98 171.74"/>
      <polygon class="k" points="178.59 209.33 178.57 216.54 140.07 221.95 140.08 214.74 178.59 209.33"/>
      <polygon class="o" points="210.45 191.01 210.43 198.21 120.58 210.84 120.59 203.63 210.45 191.01"/>
      <polygon class="k" points="152.97 185.23 152.95 192.43 120.61 196.98 120.62 189.78 152.97 185.23"/>
      <polygon class="o" points="192.11 117.12 192.09 124.33 153.58 129.74 153.6 122.53 192.11 117.12"/>
      <polygon class="o" points="178.66 167.77 178.65 174.42 120.63 182.57 120.65 175.92 178.66 167.77"/>
      <polygon class="m" points="211.04 149.92 211.02 156.57 121.17 169.2 121.18 162.55 211.04 149.92"/>
      <polygon class="l" points="146.92 123.47 146.91 131.23 121.23 134.84 121.25 127.08 146.92 123.47"/>
      <path d="M108.96,108.31l154.04-21.65-.31,166.26-154.04,21.65.31-166.26ZM257.57,248.1l.29-155.17-143.77,20.21-.29,155.17,143.77-20.21"/>
      <polygon class="m" points="242.72 228.02 242.71 235.23 210.36 239.77 210.37 232.57 242.72 228.02"/>
      <polygon class="o" points="204.21 233.44 204.2 240.64 139.5 249.73 139.51 242.53 204.21 233.44"/>
      <path class="j" d="M114.09,113.13l143.77-20.21-.29,155.17-143.77,20.21.29-155.17ZM242.73,220.82v-7.21s-102.68,14.43-102.68,14.43v7.21s102.68-14.43,102.68-14.43M120.59,203.63v7.2s89.84-12.63,89.84-12.63v-7.2s-89.84,12.63-89.84,12.63M248.97,178.94v-7.2s-89.84,12.63-89.84,12.63v7.2s89.84-12.63,89.84-12.63M121.18,162.55v6.65s89.84-12.63,89.84-12.63v-6.65s-89.84,12.63-89.84,12.63M204.2,240.64v-7.2s-64.68,9.09-64.68,9.09v7.2s64.68-9.09,64.68-9.09M249,164.53v-6.65s-64.17,9.02-64.17,9.02v6.65s64.17-9.02,64.17-9.02M120.65,175.92v6.65s58.01-8.15,58.01-8.15v-6.65s-58.01,8.15-58.01,8.15M236.61,201.18l-51.86,7.29v7.21s51.85-7.29,51.85-7.29v-7.21M153.6,122.53v7.21s38.5-5.41,38.5-5.41v-7.21s-38.5,5.41-38.5,5.41M178.59,209.33l-38.51,5.41v7.21s38.5-5.41,38.5-5.41v-7.21M120.62,189.78v7.2s32.33-4.55,32.33-4.55v-7.2s-32.33,4.55-32.33,4.55M248.94,192.8v-7.2s-32.33,4.55-32.33,4.55v7.2s32.33-4.55,32.33-4.55M242.71,235.23v-7.2s-32.33,4.55-32.33,4.55v7.2s32.33-4.55,32.33-4.55M121.25,127.08v7.76s25.66-3.61,25.66-3.61v-7.76s-25.66,3.61-25.66,3.61M121.22,140.94v7.21s25.66-3.61,25.66-3.61v-7.21s-25.66,3.61-25.66,3.61M153.57,136.39v7.21s25.14-3.54,25.14-3.54v-7.21s-25.14,3.54-25.14,3.54"/>
      <polygon class="o" points="242.75 213.61 242.73 220.82 140.04 235.25 140.05 228.05 242.75 213.61"/>
      <polygon class="o" points="178.73 132.85 178.72 140.06 153.56 143.6 153.57 136.39 178.73 132.85"/>
      <polygon class="l" points="146.89 137.33 146.88 144.54 121.21 148.14 121.22 140.94 146.89 137.33"/>
      <polygon points="108.65 274.57 87.61 263.12 87.92 96.86 108.96 108.31 108.65 274.57"/>
      <polygon points="108.96 108.31 87.92 96.86 241.96 75.21 263 86.66 108.96 108.31"/>
    </g>
  </g>
</svg>