<?xml version="1.0" encoding="UTF-8"?>
<svg id="b" data-name="Layer 2" xmlns="http://www.w3.org/2000/svg" width="400" height="400" viewBox="0 0 400 400">
  <g id="c" data-name="Layer 2">
    <g>
      <polygon points="50.04 326.22 77.7 234.39 331.26 236.48 359.43 327.26 50.04 326.22" fill="#fff"/>
      <rect width="400" height="400" opacity="0"/>
      <path d="M277.83,239.24c.47,2.79.94,5.58,1.41,8.36H75.19c.8-2.79,1.61-5.58,2.41-8.36h200.23M281.8,233.81H74.29c-1.92,6.4-3.84,12.81-5.76,19.21h216.73c-1.15-6.4-2.31-12.81-3.46-19.21h0Z"/>
      <path d="M282.7,268.06c3.17,18.8,6.34,37.6,9.51,56.4H53c5.43-18.8,10.86-37.6,16.28-56.4h213.41M286.99,262.63H65.65c-6.72,22.42-13.45,44.83-20.17,67.25h253.62c-4.03-22.42-8.07-44.83-12.1-67.25t0,0Z"/>
      <path d="M330.36,239.24c8.2,28.41,16.4,56.81,24.6,85.22h-50.94c-5.43-28.41-10.87-56.81-16.3-85.22h42.64M333.68,233.81h-51.88c5.76,32.02,11.53,64.05,17.29,96.07h63.41c-9.61-32.02-19.21-64.05-28.82-96.07h0Z"/>
      <g>
        <path d="M84.73,219.36c-5.73,0-10.39-4.66-10.39-10.39V55.21c0-5.73,4.66-10.39,10.39-10.39h221.57c5.73,0,10.39,4.66,10.39,10.39v153.75c0,5.73-4.66,10.39-10.39,10.39H84.73ZM167.24,111.74v-3.14h-33.14v3.14h33.14ZM99.61,108.05l25.04-19.56-25.04-19.56-1.93,2.47,21.88,17.08-21.88,17.08,1.93,2.47Z" fill="#fff"/>
        <path d="M306.29,47.32c4.36,0,7.89,3.53,7.89,7.89v153.75c0,4.36-3.53,7.89-7.89,7.89H84.73c-4.36,0-7.89-3.53-7.89-7.89V55.21c0-4.36,3.53-7.89,7.89-7.89h221.56M99.17,111.56l29.54-23.06-29.54-23.06-5.01,6.41,21.32,16.65-21.32,16.65,5.01,6.41M131.6,114.24h38.14v-8.14h-38.14v8.14M306.29,42.32H84.73c-7.11,0-12.89,5.78-12.89,12.89v153.75c0,7.11,5.78,12.89,12.89,12.89h221.56c7.11,0,12.89-5.78,12.89-12.89V55.21c0-7.11-5.78-12.89-12.89-12.89h0Z"/>
      </g>
    </g>
  </g>
</svg>