<?xml version="1.0" encoding="UTF-8"?>
<svg id="b" data-name="Layer 2" xmlns="http://www.w3.org/2000/svg" width="400" height="400" viewBox="0 0 400 400">
  <g id="c" data-name="Layer 2">
    <g>
      <g>
        <g>
          <path d="M161.47,191.01l-87.12-87.12c-3.02-3.02-2.8-8.16.49-11.45l17.12-17.12c1.67-1.67,3.92-2.63,6.17-2.63,2.02,0,3.9.76,5.27,2.14l87.12,87.12,53.33,70.87-11.52,11.52-70.87-53.33Z" fill="#fff"/>
          <path d="M98.13,75.11c1.33,0,2.61.47,3.57,1.43l87,87,51.96,69.06-8.55,8.55-69.06-51.96-87-87c-2.08-2.08-1.86-5.68.49-8.03l17.12-17.12c1.27-1.27,2.9-1.92,4.46-1.92M98.13,70.28h0c-2.89,0-5.76,1.22-7.88,3.33l-17.12,17.12c-4.23,4.23-4.45,10.9-.49,14.87l87,87,.24.24.27.2,69.06,51.96,3.36,2.53,2.97-2.97,8.55-8.55,2.97-2.97-2.53-3.36-51.96-69.06-.2-.27-.24-.24-87-87c-1.83-1.83-4.31-2.84-6.98-2.84h0Z"/>
        </g>
        <g>
          <rect x="260.91" y="224.65" width="16.92" height="90.41" transform="translate(-111.92 269.52) rotate(-45)" fill="#fff"/>
          <path d="M243.38,235.32l60.51,60.51-8.55,8.55-60.51-60.51,8.55-8.55M243.38,228.49l-3.42,3.42-8.55,8.55-3.42,3.42,3.42,3.42,60.51,60.51,3.42,3.42,3.42-3.42,8.55-8.55,3.42-3.42-3.42-3.42-60.51-60.51-3.42-3.42h0Z"/>
        </g>
        <g>
          <path d="M302.88,319.53c-2.5,0-4.85-.97-6.62-2.74-1.77-1.77-2.74-4.12-2.74-6.62s.97-4.85,2.74-6.62l6.81-6.81c1.77-1.77,4.12-2.74,6.62-2.74s4.85.97,6.62,2.74c1.77,1.77,2.74,4.12,2.74,6.62s-.97,4.85-2.74,6.62l-6.81,6.81c-1.77,1.77-4.12,2.74-6.62,2.74Z" fill="#fff"/>
          <path d="M309.68,296.41c1.78,0,3.56.68,4.91,2.04,2.71,2.71,2.71,7.11,0,9.83l-6.81,6.81c-1.36,1.36-3.14,2.04-4.91,2.04s-3.56-.68-4.91-2.04c-2.71-2.71-2.71-7.11,0-9.83l6.81-6.81c1.36-1.36,3.14-2.04,4.91-2.04M309.68,291.58c-3.15,0-6.11,1.23-8.33,3.45l-6.81,6.81c-2.23,2.23-3.45,5.18-3.45,8.33s1.23,6.11,3.45,8.33c2.23,2.23,5.18,3.45,8.33,3.45s6.11-1.23,8.33-3.45l6.81-6.81c4.59-4.59,4.59-12.07,0-16.66-2.23-2.23-5.18-3.45-8.33-3.45h0Z"/>
        </g>
      </g>
      <g>
        <path d="M199.54,264.37c-1.76-.05-6.56-.39-6.77-.4h-.11c-.85-.11-1.7-.22-2.55-.35l-.12-.02c-2.55-.4-5.1-.96-7.58-1.66l-.13-.04c-.85-.24-1.65-.49-2.45-.75l-.12-.04c-1.6-.53-3.21-1.14-4.79-1.8l-.21-.09c-.75-.32-1.5-.66-2.25-1.01l-.26-.12c-.76-.36-1.51-.74-2.25-1.13l-.09-.05c-.67-.35-1.4-.76-2.13-1.18l-.22-.12c-.7-.41-1.39-.84-2.08-1.27l-.35-.23c-.67-.43-1.35-.89-2.01-1.35l-.23-.17c-.65-.46-1.3-.94-1.94-1.43l-.17-.13c-.64-.49-1.28-1.01-1.91-1.54l-.35-.3c-.61-.52-1.22-1.05-1.82-1.6l-.31-.29c-.62-.58-1.24-1.17-1.85-1.77-25.1-25.1-25.1-65.94,0-91.04,12.16-12.16,28.32-18.85,45.52-18.85s33.36,6.7,45.52,18.85c25.1,25.1,25.1,65.94,0,91.04-.39.39-.79.78-1.19,1.16l-.34.32c-.32.3-.6.56-.88.81l-.41.36c-.32.28-.57.51-.82.73l-.58.49c-.22.19-.45.38-.68.56,0,0-1.07.85-1.28,1.02l-.59.45c-.24.18-.47.36-.71.53l-.54.39c-.26.19-.52.37-.78.56l-.39.26c-.36.25-.66.45-.95.64l-.39.25c-.32.2-.64.41-.96.62l-.36.22c-.33.21-.68.41-1.02.62l-.32.18c-.36.21-.71.41-1.07.61l-.3.16c-.36.2-.73.4-1.1.59l-.26.13c-.39.2-.78.4-1.16.59l-.16.08c-.48.23-.88.42-1.28.61l-.14.06c-.48.22-.89.4-1.31.58l-.12.05c-.49.21-.91.39-1.34.56l-.12.05c-.48.19-.92.36-1.36.53l-.13.05c-.45.17-.9.33-1.36.49l-.1.03c-.46.16-.93.31-1.4.46-.56.18-1.03.32-1.51.46-.54.16-1.03.29-1.51.42l-.12.03c-.41.11-.9.24-1.4.35l-.07.02c-.38.09-.76.18-1.13.26l-.59.13c-4.34.89-11.06,1.38-13.36,1.38,0,0-.26,0-.36,0Z" fill="#fff"/>
        <path d="M200,138.13c15.83,0,31.67,6.04,43.75,18.12,24.16,24.16,24.16,63.34,0,87.5-.38.38-.76.75-1.15,1.12-.11.1-.22.2-.33.3-.28.26-.56.52-.84.78-.13.12-.26.23-.4.35-.26.23-.53.47-.8.7-.14.12-.28.24-.43.36-.26.22-.52.44-.79.66-.15.12-.29.23-.44.35-.26.21-.53.42-.79.63-.14.11-.28.21-.42.32-.28.21-.55.42-.83.63-.13.09-.26.18-.39.28-.29.21-.59.42-.88.63-.12.09-.25.17-.38.26-.3.21-.6.41-.91.61-.12.08-.25.16-.37.24-.31.2-.62.4-.93.6-.11.07-.23.14-.34.21-.33.2-.65.4-.98.59-.1.06-.21.12-.31.18-.34.2-.68.4-1.03.59-.1.05-.19.1-.29.16-.35.19-.71.39-1.06.57-.09.05-.17.09-.26.13-.37.19-.74.38-1.11.56-.08.04-.15.07-.23.11-.38.19-.77.37-1.15.55-.07.03-.14.06-.2.09-.4.18-.79.36-1.19.53-.06.03-.12.05-.18.08-.41.17-.82.35-1.23.51-.05.02-.1.04-.15.06-.42.17-.84.33-1.27.49-.04.02-.08.03-.12.04-.43.16-.87.32-1.31.47-.03.01-.06.02-.1.03-.44.15-.89.3-1.34.44-.03,0-.06.02-.09.03-.45.14-.9.28-1.36.41-.02,0-.04.01-.06.02-.46.13-.93.26-1.39.39-.01,0-.02,0-.04,0-.47.13-.95.25-1.43.36,0,0-.01,0-.02,0-.48.12-.97.23-1.45.33,0,0,0,0,0,0-4.2.9-10.97,1.38-13.1,1.38-.11,0-.2,0-.28,0-1.73-.05-6.66-.4-6.66-.4-.82-.09-1.64-.2-2.46-.33-.04,0-.07-.01-.11-.02-2.45-.38-4.89-.92-7.29-1.6-.05-.02-.11-.03-.16-.05-.78-.22-1.55-.46-2.32-.71-.04-.01-.08-.03-.11-.04-1.55-.51-3.08-1.09-4.6-1.73-.07-.03-.14-.06-.2-.09-.72-.31-1.44-.63-2.16-.97-.08-.04-.17-.08-.25-.12-.73-.35-1.45-.71-2.16-1.08,0,0-.01,0-.02-.01-.71-.38-1.42-.77-2.11-1.17-.07-.04-.14-.08-.21-.12-.67-.39-1.34-.8-2-1.22-.11-.07-.22-.14-.33-.21-.65-.42-1.3-.86-1.94-1.31-.07-.05-.15-.11-.22-.16-.63-.45-1.25-.9-1.87-1.37-.05-.04-.1-.08-.15-.12-.62-.48-1.24-.98-1.85-1.49-.11-.09-.23-.19-.34-.28-.59-.5-1.18-1.01-1.76-1.54-.1-.09-.2-.19-.3-.28-.6-.55-1.19-1.12-1.78-1.7-24.16-24.16-24.16-63.34,0-87.5,12.08-12.08,27.92-18.12,43.75-18.12M210.56,144.96c.02-1,.01-2.01-.01-3l-9.9.26c.02.85.03,1.71.01,2.57l9.9.17M208.96,158.38c.22-.97.42-1.96.59-2.95l-9.75-1.72c-.15.84-.32,1.68-.5,2.51l9.66,2.16M204.7,171.19c.41-.91.8-1.84,1.17-2.77l-9.2-3.65c-.31.78-.65,1.58-1,2.35l9.03,4.06M197.92,182.89c.59-.81,1.16-1.65,1.71-2.48l-8.27-5.44c-.47.71-.95,1.42-1.46,2.11l8.02,5.81M188.83,193.08c.74-.67,1.47-1.37,2.17-2.08l.09-.09-7-7-.09.09c-.6.6-1.23,1.2-1.85,1.77l6.68,7.3M251.86,199.5c.86-.07,1.72-.11,2.56-.14l-.31-9.9c-.99.03-2,.09-3.01.16l.76,9.87M240.52,201.53c.81-.23,1.65-.45,2.48-.65l-2.3-9.63c-.98.23-1.96.49-2.91.76l2.73,9.52M177.99,201.15c.86-.51,1.71-1.05,2.55-1.6l-5.46-8.26c-.71.47-1.44.93-2.17,1.36l5.08,8.5M229.83,205.81c.75-.4,1.53-.78,2.3-1.14l-4.2-8.96c-.91.43-1.82.88-2.7,1.34l4.6,8.77M165.72,206.87c.94-.33,1.89-.68,2.82-1.05l-3.67-9.19c-.79.32-1.6.62-2.41.9l3.25,9.35M152.56,209.99c1-.13,2-.29,2.98-.46l-1.74-9.75c-.83.15-1.68.28-2.53.39l1.3,9.81M142.06,210.55l.25-9.9c-.85-.02-1.71-.06-2.56-.12l-.69,9.88c1,.07,2.01.12,3,.14M220.23,212.17c.66-.54,1.34-1.07,2.02-1.58l-5.92-7.93c-.8.6-1.6,1.22-2.37,1.85l6.28,7.66M212.09,220.33c.54-.66,1.1-1.32,1.67-1.95l-7.38-6.6c-.66.74-1.32,1.51-1.95,2.29l7.67,6.26M205.75,229.94c.39-.75.81-1.51,1.24-2.24l-8.56-4.97c-.5.87-.99,1.75-1.45,2.64l8.78,4.58M201.5,240.63c.23-.81.49-1.64.75-2.44l-9.39-3.14c-.32.95-.61,1.91-.89,2.87l9.52,2.7M199.49,251.96c.06-.85.15-1.71.25-2.55l-9.83-1.19c-.12.99-.22,1.99-.29,2.99l9.87.74M200,133.13c-17.86,0-34.66,6.96-47.29,19.59-26.07,26.07-26.07,68.5,0,94.57.57.57,1.2,1.17,1.92,1.84l.1.09.23.21c.6.55,1.24,1.11,1.89,1.66l.29.24.08.06c.71.6,1.37,1.12,1.99,1.61l.14.11c.67.52,1.35,1.02,2.04,1.5l.07.05.17.12c.67.47,1.36.93,2.11,1.42l.35.23c.74.47,1.46.92,2.16,1.32l.17.1.06.03c.79.46,1.53.87,2.25,1.25h.02s.06.04.06.04c.71.38,1.48.76,2.32,1.16l.07.04.19.09c.78.37,1.56.72,2.34,1.05l.15.06.06.03c1.63.69,3.31,1.32,4.97,1.87l.13.04c.81.27,1.66.53,2.5.77l.19.05c2.57.73,5.22,1.31,7.87,1.72l.12.02c.9.14,1.8.26,2.66.36h.11s.11.02.11.02c.21.01,5.06.36,6.87.41.13,0,.27,0,.43,0,2.43,0,9.15-.48,13.71-1.4h.08s.42-.1.42-.1c.49-.11.98-.22,1.47-.33h0s.05-.01.05-.01c.52-.12,1.03-.25,1.54-.39.54-.14,1.04-.28,1.54-.43h.04c.52-.16,1.01-.31,1.49-.47l.1-.03c.48-.15.96-.31,1.44-.48l.09-.03c.49-.17.96-.34,1.43-.51l.12-.04c.47-.18.93-.35,1.38-.54l.18-.07c.43-.17.87-.36,1.31-.55l.19-.08c.43-.19.86-.38,1.29-.57l.03-.02.19-.09c.41-.19.82-.39,1.24-.59l.06-.03.19-.09c.4-.2.8-.4,1.19-.6l.07-.04.21-.11c.38-.2.77-.41,1.15-.62l.08-.04.24-.13c.37-.2.74-.42,1.11-.63l.1-.06.23-.13c.36-.21.72-.43,1.07-.65l.11-.07.26-.16c.34-.21.67-.42,1-.64l.13-.08c.09-.06.19-.12.28-.18.32-.21.65-.43.97-.66l.14-.09c.09-.06.18-.12.28-.19.31-.21.6-.43.9-.64l.06-.04.13-.09c.09-.07.19-.13.28-.2.27-.2.53-.4.79-.59l.12-.09.14-.1c.1-.08.21-.16.31-.24.25-.19.48-.38.72-.57l.14-.11.14-.11c.11-.09.22-.18.33-.27.24-.2.48-.4.72-.6l.12-.1.14-.12c.11-.09.21-.18.32-.27.25-.22.5-.43.74-.65l.11-.1.13-.11c.1-.09.2-.18.3-.27.28-.26.56-.52.85-.78l.06-.06.11-.1c.08-.07.16-.15.24-.22.42-.4.84-.81,1.25-1.21,26.07-26.07,26.07-68.5,0-94.57-12.63-12.63-29.42-19.59-47.29-19.59h0Z"/>
      </g>
      <g>
        <g>
          <path d="M150.88,233.99l55.15-73.29,90.09-90.09c1.42-1.42,3.36-2.21,5.46-2.21,2.33,0,4.66.99,6.38,2.72l17.71,17.71c1.61,1.61,2.57,3.69,2.7,5.87.14,2.29-.64,4.41-2.19,5.97l-90.09,90.09-73.29,55.15-11.91-11.91Z" fill="#fff"/>
          <path d="M301.58,70.9c1.61,0,3.3.67,4.61,1.98l17.71,17.71c2.43,2.43,2.66,6.15.51,8.3l-89.97,89.97-71.42,53.74-8.84-8.84,53.74-71.42,89.97-89.97c.99-.99,2.31-1.48,3.69-1.48M301.58,65.9h0c-2.76,0-5.33,1.04-7.22,2.94l-89.97,89.97-.25.25-.21.28-53.74,71.42-2.61,3.47,3.07,3.07,8.84,8.84,3.07,3.07,3.47-2.61,71.42-53.74.28-.21.25-.25,89.97-89.97c4.1-4.1,3.87-10.99-.51-15.37l-17.71-17.71c-2.19-2.19-5.16-3.45-8.15-3.45h0Z"/>
        </g>
        <g>
          <rect x="77.75" y="263.53" width="93.5" height="17.5" transform="translate(-156.07 167.79) rotate(-45)" fill="#fff"/>
          <path d="M151.37,236.58l8.84,8.84-62.58,62.58-8.84-8.84,62.58-62.58M151.37,229.5l-3.54,3.54-62.58,62.58-3.54,3.54,3.54,3.54,8.84,8.84,3.54,3.54,3.54-3.54,62.58-62.58,3.54-3.54-3.54-3.54-8.84-8.84-3.54-3.54h0Z"/>
        </g>
        <g>
          <path d="M89.85,323.66c-2.59,0-5.02-1.01-6.85-2.84l-7.04-7.04c-3.78-3.78-3.78-9.92,0-13.7,1.83-1.83,4.26-2.84,6.85-2.84s5.02,1.01,6.85,2.84l7.04,7.04c1.83,1.83,2.84,4.26,2.84,6.85s-1.01,5.02-2.84,6.85c-1.83,1.83-4.26,2.84-6.85,2.84Z" fill="#fff"/>
          <path d="M82.81,299.75c1.84,0,3.68.7,5.08,2.1l7.04,7.04c2.81,2.81,2.81,7.36,0,10.16-1.4,1.4-3.24,2.1-5.08,2.1s-3.68-.7-5.08-2.1l-7.04-7.04c-2.81-2.81-2.81-7.36,0-10.16,1.4-1.4,3.24-2.1,5.08-2.1M82.81,294.75c-3.25,0-6.31,1.27-8.62,3.57-4.75,4.75-4.75,12.48,0,17.23l7.04,7.04c2.3,2.3,5.36,3.57,8.62,3.57s6.31-1.27,8.62-3.57c4.75-4.75,4.75-12.48,0-17.23l-7.04-7.04c-2.3-2.3-5.36-3.57-8.62-3.57h0Z"/>
        </g>
      </g>
      <rect width="400" height="400" fill="#fff" opacity="0"/>
    </g>
  </g>
</svg>