<?xml version="1.0" encoding="UTF-8"?>
<svg id="b" data-name="Layer 2" xmlns="http://www.w3.org/2000/svg" width="400" height="400" viewBox="0 0 400 400">
  <g id="c" data-name="Layer 2">
    <g>
      <rect width="400" height="400" opacity="0"/>
      <g>
        <g>
          <line x1="80.95" y1="251.77" x2="135.73" y2="306.55" fill="#fff" stroke="#000" stroke-miterlimit="10" stroke-width="2.32"/>
          <g>
            <g>
              <rect x="36.75" y="250.3" width="89.87" height="4.4" transform="translate(-154.62 131.71) rotate(-45)" fill="#fff"/>
              <path d="M111.9,220.82l1.46,1.46-61.9,61.9-1.46-1.46,61.9-61.9M111.9,217.53l-1.64,1.64-61.9,61.9-1.64,1.64,1.64,1.64,1.46,1.46,1.64,1.64,1.64-1.64,61.9-61.9,1.64-1.64-1.64-1.64-1.46-1.46-1.64-1.64h0Z"/>
            </g>
            <g>
              <path d="M97.11,331.48l63.55-63.55,4.49,4.49-63.55,63.55-4.49-4.49ZM92.56,326.92l63.55-63.55,4.49,4.49-63.55,63.55-4.49-4.49ZM88,322.36l63.55-63.55,4.49,4.49-63.55,63.55-4.49-4.49ZM83.44,317.8l63.55-63.55,4.49,4.49-63.55,63.55-4.49-4.49ZM78.88,313.24l63.55-63.55,4.49,4.49-63.55,63.55-4.49-4.49ZM74.32,308.68l63.55-63.55,4.49,4.49-63.55,63.55-4.49-4.49ZM69.76,304.13l63.55-63.55,4.49,4.49-63.55,63.55-4.49-4.49ZM65.21,299.57l63.55-63.55,4.49,4.49-63.55,63.55-4.49-4.49ZM60.65,295.01l63.55-63.55,4.49,4.49-63.55,63.55-4.49-4.49ZM56.09,290.45l63.55-63.55,4.49,4.49-63.55,63.55-4.49-4.49ZM51.53,285.89l63.55-63.55,4.49,4.49-63.55,63.55-4.49-4.49Z" fill="#fff"/>
              <path d="M115.08,223.99l2.85,2.85-61.9,61.9-2.85-2.85,61.9-61.9M119.63,228.55l2.85,2.85-61.9,61.9-2.85-2.85,61.9-61.9M124.19,233.11l2.85,2.85-61.9,61.9-2.85-2.85,61.9-61.9M128.75,237.67l2.85,2.85-61.9,61.9-2.85-2.85,61.9-61.9M133.31,242.22l2.85,2.85-61.9,61.9-2.85-2.85,61.9-61.9M137.87,246.78l2.85,2.85-61.9,61.9-2.85-2.85,61.9-61.9M142.43,251.34l2.85,2.85-61.9,61.9-2.85-2.85,61.9-61.9M146.99,255.9l2.85,2.85-61.9,61.9-2.85-2.85,61.9-61.9M151.54,260.46l2.85,2.85-61.9,61.9-2.85-2.85,61.9-61.9M156.1,265.02l2.85,2.85-61.9,61.9-2.85-2.85,61.9-61.9M160.66,269.57l2.85,2.85-61.9,61.9-2.85-2.85,61.9-61.9M115.08,220.7l-1.64,1.64-61.9,61.9-1.64,1.64,1.64,1.64,2.85,2.85,1.06,1.06.65.65,2.85,2.85.07.07h0l1,1,.58.58.07.07,2.85,2.85.07.07h0l1.64,1.64,2.85,2.85,1.06,1.06.65.65,2.85,2.85.07.07h0l.9.9.68.68.07.07,2.85,2.85,1.06,1.06.65.65,2.85,2.85.07.07h0l.88.88.69.69.07.07,2.85,2.85.74.74.97.97,2.85,2.85.07.07h0l.67.67.91.91.07.07,2.85,2.85.97.97.74.74,2.85,2.85,1.64,1.64,1.64-1.64,61.9-61.9,1.64-1.64-1.64-1.64-2.85-2.85-.07-.07h0l-1.64-1.64-2.85-2.85-.85-.85-.85-.85-2.85-2.85-.07-.07h0l-.67-.67-.91-.91-.07-.07-2.85-2.85-1.06-1.06-.65-.65-2.85-2.85-.07-.07h0l-.88-.88-.69-.69-.07-.07-2.85-2.85-.74-.74-.97-.97-2.85-2.85-.07-.07h0l-.67-.67-.91-.91-.07-.07-2.85-2.85-.85-.85-.85-.85-2.85-2.85-.07-.07h0l-.91-.91-.67-.67-.07-.07-2.85-2.85-.97-.97-.74-.74-2.85-2.85-1.64-1.64h0Z"/>
            </g>
            <g>
              <rect x="90.07" y="303.62" width="89.87" height="4.4" transform="translate(-176.7 185.03) rotate(-45)" fill="#fff"/>
              <path d="M165.22,274.13l1.46,1.46-61.9,61.9-1.46-1.46,61.9-61.9M165.22,270.85l-1.64,1.64-61.9,61.9-1.64,1.64,1.64,1.64,1.46,1.46,1.64,1.64,1.64-1.64,61.9-61.9,1.64-1.64-1.64-1.64-1.46-1.46-1.64-1.64h0Z"/>
            </g>
          </g>
        </g>
        <g>
          <path d="M108.46,219.13l29.09-29.09c5.45-5.45,12.2-9.62,19.51-12.06l31.62-10.54,103.49-103.49c3.13-3.13,7.29-4.85,11.72-4.85s8.59,1.72,11.72,4.85l7.94,7.94c6.46,6.46,6.46,16.98,0,23.45l-103.49,103.49-10.54,31.62c-2.44,7.31-6.61,14.06-12.06,19.51l-29.09,29.09-59.91-59.91ZM303.36,76.47c-2.05,0-3.97.8-5.42,2.25-2.99,2.99-2.99,7.85,0,10.84,1.45,1.45,3.37,2.25,5.42,2.25s3.97-.8,5.42-2.25c1.45-1.45,2.25-3.37,2.25-5.42s-.8-3.97-2.25-5.42c-1.45-1.45-3.37-2.25-5.42-2.25Z" fill="#fff"/>
          <path d="M303.89,61.11c3.73,0,7.45,1.42,10.3,4.26l7.94,7.94c5.69,5.69,5.69,14.91,0,20.59l-103.82,103.82-10.69,32.07c-2.35,7.05-6.31,13.46-11.57,18.72l-27.67,27.67-57.06-57.06,27.67-27.67c5.26-5.26,11.67-9.22,18.72-11.57l32.07-10.69,103.82-103.82c2.84-2.84,6.57-4.26,10.3-4.26M303.36,93.82c2.48,0,4.96-.95,6.85-2.84,3.78-3.78,3.78-9.91,0-13.7-1.89-1.89-4.37-2.84-6.85-2.84s-4.96.95-6.85,2.84c-3.78,3.78-3.78,9.91,0,13.7,1.89,1.89,4.37,2.84,6.85,2.84M303.89,57.08c-4.97,0-9.64,1.93-13.15,5.45l-103.15,103.15-31.17,10.39c-7.61,2.54-14.63,6.87-20.3,12.54l-27.67,27.67-2.85,2.85,2.85,2.85,57.06,57.06,2.85,2.85,2.85-2.85,27.67-27.67c5.67-5.67,10.01-12.69,12.54-20.3l10.39-31.17,103.15-103.15c7.25-7.25,7.25-19.05,0-26.3l-7.94-7.94c-3.51-3.51-8.18-5.45-13.15-5.45h0ZM303.36,89.79c-1.51,0-2.93-.59-3.99-1.65-1.07-1.07-1.65-2.49-1.65-3.99s.59-2.93,1.65-3.99c1.07-1.07,2.49-1.65,3.99-1.65s2.93.59,3.99,1.65c1.07,1.07,1.65,2.49,1.65,3.99s-.59,2.93-1.65,3.99c-1.07,1.07-2.49,1.65-3.99,1.65h0Z"/>
        </g>
      </g>
      <g>
        <path d="M158.09,256.22v33.95c0,14.72,10.83,27.34,25.43,29.24,5.34.69,10.79,1.05,16.33,1.05,69.79-.05,126.42-58.05,124.88-127.82-1.5-67.81-57.01-122.31-125.21-122.18-68.6.13-124.67,56.23-124.76,124.83,0,.91,0,1.82.03,2.73.32,15.98,13.53,28.69,29.51,28.69h24.28c16.3,0,29.52,13.22,29.52,29.52Z" fill="#fff" stroke="#000" stroke-miterlimit="10" stroke-width="4.34"/>
        <path d="M306.62,167.73c-2.86,6.19,1.59,6.4,5.16,9.81-3.92.03-4.92-4.39-9.3-3.61v2.59s-2.1.33-2.1.33l.55,5.87c6.6-.33,6.07,5.02,4.64,9.82l-.91-.37c-.21,1.23-1.08.9-2.18.88.62-1.3.38-3.54-.65-4.52-.5-.48-1.67-.43-1.87-.71-.86-1.22,1.74-3.68-3.17-2l.54,1.77c-1.77.54-.8,1.66-1.06,3.03-.03.16-2.12,1.82-2.32,2.43l-.26-2.58c-1.71,1.09-3.28,2.03-3.08,4.37.08.87.78,1.5.9,2.21.27,1.5-.44,3.65,1.14,4.28l.52-1.55c.38,1.78.82,3.62,1.03,5.43.14,1.16.61,4.8.52,5.63-.15,1.48-1.77,3.4-1.04,5.47-1.77-.66-.6-3.45-.77-4.39-.35-1.96-1.97-5.5-2.22-7.35s1.82-3.75-.37-5.31l-1,.98-1.31-.47-1.3,3.1c-1.43-1.31-.38-3.22-1.16-5.03-.55-1.29-1.94-1.51-2.09-1.78-.37-.67.34-4.08-1.92-4.02-1.25.03-.11,3.65-.35,4.78-.48,2.21-3.6,2.91-3.01,5.55h-2.06c-.21-.28,2.09-4.96,2.09-6.45,0-1.02-.07-.85-1.05-.79-.55,1.29-.34,2.93-.76,4.16-.34.99-1.36,1.55-1.71,2.42-1.35,3.27-2.38,6.69-3.74,9.95-.93.12-.47-1.12-.38-1.67.65-4.12,2.37-8.34,5.04-11.49l-2.34-3.36c-1.05-.22-.63.28-.87.67-.83,1.31-.98,2.34-1.5,3.56-1.07,2.5-2.14,5.58-3.95,8.04-.33.45-.85,1.74-1.42.65-.62-1.19,2.63-5.19,3.11-6.71.3-.94,1.76-9,1.72-9.49-.06-.75-1.14-1.49-1.35-2.27-.36-1.38.28-2.67-.61-4.04-1.23-1.9-2.01,2.38-3.63-.49,3.55-1.66,1.5-4.27-.02-.77-2.21-.82-.14-2.49-.18-3.35-.03-.59-1.58-2.26-1.37-3.37-1.14-.78-3.76,3.42-5.68,3.09,1.55-1.54,2.16-5.09,3.26-6.55,1.46-1.95,4.76-2.33,1.65-6.35l-4.39,2.57c-1-2.67.44-1.79,1.53-3.88l-3.96-2.2-3.77,1.94c.54-1.83,2.7-2.42,4.25-3.61,1.16-.89,1.58-2.95,4.02-2.59l-.5-1.31-6.74-2.3,9.81-.52c.4-2.24-1.41-2.21-3.1-2.07,1.58-1.6,2.62-.52,2.07-3.61l2.07.79-1.03,2.31c1.04.19,1.37-.93,2.35-1.05s1.92.58,2.94.42,3.46-1.56,2.98-2.98l1.3,1.56c1.11-1.08,3.51-1.27,4.36-1.84,1.5-.99.08-4.56,3.83-3.89.46.08.08,1.6,1.35,1.06l1.04-3.61c-1.93,1.61-2.98-.4-5.8,1.04-.61.31-.65,1.33-1.13,1.4-.22.03-1.78-.39-1.88-.66-.64-1.86.93-1.77,1.31-2.31.4-.57-.58-1.88,1.12-2.5,1.87-.68,1.1,1.71,2.48,2.39l2.34-1.2c-.57-1.64-2.59-6.65-.17-7.41.68.3,4.08.59,4.29.72.52.35.46,1.81,2.09,1.3l-.52,1.54,1.54-1.03.79,2.58c1.54.24.35-1.71.85-2.5.11-.17,3.35-1.55,3.71-1.52,3.76.32,2.23,5.04,2.46,7.33s1.64,3.77,2.01,5.23c.07.27-4.37,2.96-.52,3.86l.51-2.06c.32,2.36,1.71,3.49,3.62,4.65l-1.91-2.83c1.19-2.98,2.84-1.69,2.47,1.24l2.98.8-.44,1.82c1.65.07,1.43-.89,1.03-2.06,1.81-.53,1.59,1.45,3.09,1.55.18.99-1.14.21-1.48.57-.22.23.07,1.34-.34,2.01s-2.06.52-1.28,3.1l-2.33-1.54-.76,1.02c3.85.42,3.19,3.44,4.96,5.64.66.83,4.84,3.49,4.84,3.93.05,2.49-5.16-2.22-6.18-1.29Z"/>
        <path d="M175.09,172.37c-.09-.59-1.31-3.95-1.63-4.21-1.18-1.08-7.03,3.57-7.31,4.02-.53.85-2.13,9.2-4.39,7.27l2.51-6.23-1.67-.43-4.17,9.16,3.32-10.83c-1.92.88-2.7-1.55-2.88-1.55-.87.02-2.95,1.57-3.78.3,4.13-3.2,3.92-8.29,4.99-12.92-4.74-.13-2.28,5.31-3.27,6.24-3.93,2.97-9.7-1.23-11.72,4.18l1.66,1.24c-7.6.86-1.4-4.71-2.5-5.82l-5.01.41,1.63-.49-.78-2.42h3.34s-.12-4.89-.12-4.89l-4.32-1.01c-1.24,2.59-4.15,5.3-5.98,1.72-2.43-4.77,2.68-3.24,3.6-4.31.36-.43,1.17-6.07,3.97-7.38.5,0,5.02,1.64,5.18,1.87.57.81.3,6.15,3.07,5.66,2.14-.38.38-3.03.4-3.68.03-.74,2.73-.05,1.69-2.14-2.23-.13-6.67-.18-6.66-3.33,5.13.13,5.29,3.38,9.14-1.24-.37-2.56-3.69-2.67-4.23-3.46-.77-1.14-.3-3.25-1.61-4.87-3.31-4.07-9.27-3.01-13.08-4.42-2.77-1.03-10.77-8.11-4.21-7.52,7.4.67,11.73,8.01,17.94,8.88,2.3.32,3.49-2.32,5.7-2.41,2.23-.08,4.47,3.73,6.58-.83,2.22-4.78-5.49-9.06-4.57-14.14,1.99-2.27,6.02,10.75,8.75,10.81,1.94-1.66,1.18-4.63,2.56-6.59,3.7-5.29,9.29-2.58,14.52-2.56.06-1.79-1.32-2.78-1.62-4.62-1.43-8.59,7.61-11.03,7.47-4.14-.07,3.28-3.98,9.31-.02,10.81l-1.65,4.18,2.07,1.27c2.29-.47,8.35-18.76,15.25-13.14,1.37,4.39,1.31,5.14-1.97,8.1l-6.09-2.36-4.26,9.06c1.96.11,1.77.5,2.72-1.04,2.57-4.19,2.34-2.87,7.28-2.28.53,3.11-3.44,1.91-4.26,2.99-.65.87-1.13,6.46-.73,7,6.7-4.85,13.93-2.36,13.35,6.66l4.99-.48.81,3.81-4.14-.45c-1.99,1.33-1.88,2.65-.85,4.62-1.33-1.28-10.07,1.29-9.98,2.09,3.61,1.52,2.32,3.65.84,6.6.23,1.17,10.03,5.59,8.31,7.14-3.85.54-6.73-3.89-10.37-3.35-2.73.4-3.14,4.51-7.12,2.53-.14,2.77.64,5.67,2.92,7.49.52-9.72,14.83-8.44,13.57,1.08-.65,4.93-7.06,7.27-10.65,3.93-1.08,1.46,6.78,10.42,8.37,12.05.82.85,2.56.85,3.08,1.49.65.78,1.49,6.17,1.88,6.46,1.55.13,2.34-1.39,3.79-1.66,7.75-1.44,7.17,9.43,2.29,9.83-5.99.49-7.26-4.56-10.24-8.35-.87-1.1-2.47-1.45-3.37-2.7-2.57-3.54-3.03-11.08-8.3-10.46-1.08-2.21,1.7-2.7,1.71-2.91.08-2.26-6.08-8.58-7.97-10.4-2.34-.22.25,2.43-.49,4.48-.35.98-1.49,1.19-2.36,1.44l1.62,4.92,5.26-.9,1.4,3.39-6.69,2.15c-2.82-2.43-.23-7.29-3.31-8.81v4.99c-.21-5.02-5.57-3.11-5.42-8.32-4.69,4.34,1.6,14.4-3.75,15.83-.38-3.79.53-8.43,0-12.08Z"/>
        <path d="M95.93,185.29c-2.24-2.39,7.36-5.65,8.89-6.52,9.94-5.68,14.17-7.75,25.07-11.56,1.01-.35.89-1.68,1.57-1.85.76-.19,3.2.6,4.46-.06-2.77,3.96-7.59,3.87-11.4,5.68-9.58,4.54-18.85,10.07-28.6,14.31Z"/>
        <path d="M159.94,200.46c1.6,7.87-10.24,6.77-8.04-.85.93-3.21,7.13-3.63,8.04.85Z"/>
        <path d="M237.41,107.56c1.52,1.45.79,7.11-3.53,6.46-6.47-.97-.87-10.64,3.53-6.46Z"/>
        <path d="M309.71,153.26c2.63.11,3.75.06,4.63,2.85-.9,1.23-.79.39-1.27.26-1.54-.4-3.75-1.02-3.36-3.11Z"/>
        <path d="M169.03,88.4c3.87,3.81-3.95,5.52-4.77,2.66-.7-2.43,2.58-4.82,4.77-2.66Z"/>
      </g>
      <g>
        <g>
          <line x1="259.81" y1="306.55" x2="314.59" y2="251.77" fill="#fff" stroke="#000" stroke-miterlimit="10" stroke-width="2.32"/>
          <g>
            <g>
              <rect x="258.35" y="260.88" width="4.4" height="89.87" transform="translate(-139.93 273.74) rotate(-44.99)" fill="#fff"/>
              <path d="M230.32,274.13l61.9,61.9-1.46,1.46-61.9-61.9,1.46-1.46M230.32,270.85l-1.64,1.64-1.46,1.46-1.64,1.64,1.64,1.64,61.9,61.9,1.64,1.64,1.64-1.64,1.46-1.46,1.64-1.64-1.64-1.64-61.9-61.9-1.64-1.64h0Z"/>
            </g>
            <g>
              <path d="M230.39,272.42l4.49-4.49,63.55,63.55-4.49,4.49-63.55-63.55ZM234.95,267.87l4.49-4.49,63.55,63.55-4.49,4.49-63.55-63.55ZM239.51,263.31l4.49-4.49,63.55,63.55-4.49,4.49-63.55-63.55ZM244.07,258.75l4.49-4.49,63.55,63.55-4.49,4.49-63.55-63.55ZM248.62,254.19l4.49-4.49,63.55,63.55-4.49,4.49-63.55-63.55ZM253.18,249.63l4.49-4.49,63.55,63.55-4.49,4.49-63.55-63.55ZM257.74,245.07l4.49-4.49,63.55,63.55-4.49,4.49-63.55-63.55ZM262.3,240.51l4.49-4.49,63.55,63.55-4.49,4.49-63.55-63.55ZM266.86,235.96l4.49-4.49,63.55,63.55-4.49,4.49-63.55-63.55ZM271.42,231.4l4.49-4.49,63.55,63.55-4.49,4.49-63.55-63.55ZM275.97,226.84l4.49-4.49,63.55,63.55-4.49,4.49-63.55-63.55Z" fill="#fff"/>
              <path d="M280.47,223.99l61.9,61.9-2.85,2.85-61.9-61.9,2.85-2.85M275.91,228.55l61.9,61.9-2.85,2.85-61.9-61.9,2.85-2.85M271.35,233.11l61.9,61.9-2.85,2.85-61.9-61.9,2.85-2.85M266.79,237.67l61.9,61.9-2.85,2.85-61.9-61.9,2.85-2.85M262.23,242.22l61.9,61.9-2.85,2.85-61.9-61.9,2.85-2.85M257.67,246.78l61.9,61.9-2.85,2.85-61.9-61.9,2.85-2.85M253.12,251.34l61.9,61.9-2.85,2.85-61.9-61.9,2.85-2.85M248.56,255.9l61.9,61.9-2.85,2.85-61.9-61.9,2.85-2.85M244,260.46l61.9,61.9-2.85,2.85-61.9-61.9,2.85-2.85M239.44,265.02l61.9,61.9-2.85,2.85-61.9-61.9,2.85-2.85M234.88,269.57l61.9,61.9-2.85,2.85-61.9-61.9,2.85-2.85M280.47,220.7l-1.64,1.64-2.85,2.85-.74.74-.97.97-2.85,2.85-.07.07h0l-.67.67-.91.91-.07.07-2.85,2.85-.97.97-.74.74-2.85,2.85-.07.07h0l-.58.58-1,1-.07.07-2.85,2.85-.65.65-1.06,1.06-2.85,2.85-.07.07h0l-.43.43-1.15,1.15-.07.07-2.85,2.85-.65.65-1.06,1.06-2.85,2.85-.07.07h0l-.96.96-.62.62-.07.07-2.85,2.85-.85.85-.85.85-2.85,2.85-.07.07h0l-1.15,1.15-.43.43-.07.07-2.85,2.85-1.64,1.64,1.64,1.64,61.9,61.9,1.64,1.64,1.64-1.64,2.85-2.85.74-.74.97-.97,2.85-2.85,1.64-1.64.07-.07,2.85-2.85.07-.07h0l.67-.67.91-.91.07-.07,2.85-2.85.85-.85.85-.85,2.85-2.85.07-.07h0l.9-.9.68-.68.07-.07,2.85-2.85,1.06-1.06.65-.65,2.85-2.85.07-.07h0l.88-.88.69-.69.07-.07,2.85-2.85.74-.74.97-.97,2.85-2.85.07-.07h0l.67-.67.91-.91.07-.07,2.85-2.85.97-.97.74-.74,2.85-2.85,1.64-1.64-1.64-1.64-61.9-61.9-1.64-1.64h0Z"/>
            </g>
            <g>
              <rect x="311.66" y="207.57" width="4.4" height="89.87" transform="translate(-86.61 295.95) rotate(-45.01)" fill="#fff"/>
              <path d="M283.64,220.82l61.9,61.9-1.46,1.46-61.9-61.9,1.46-1.46M283.64,217.53l-1.64,1.64-1.46,1.46-1.64,1.64,1.64,1.64,61.9,61.9,1.64,1.64,1.64-1.64,1.46-1.46,1.64-1.64-1.64-1.64-61.9-61.9-1.64-1.64h0Z"/>
            </g>
          </g>
        </g>
        <g>
          <path d="M198.08,249.95c-5.45-5.45-9.62-12.2-12.06-19.51l-10.54-31.62-103.49-103.49c-6.46-6.46-6.46-16.98,0-23.45l7.94-7.94c3.13-3.13,7.29-4.85,11.72-4.85s8.59,1.72,11.72,4.85l103.49,103.49,31.62,10.54c7.31,2.44,14.06,6.61,19.51,12.06l29.09,29.09-59.91,59.91-29.09-29.09ZM92.18,76.47c-2.05,0-3.97.8-5.42,2.25-1.45,1.45-2.25,3.37-2.25,5.42s.8,3.97,2.25,5.42c1.45,1.45,3.37,2.25,5.42,2.25s3.97-.8,5.42-2.25c2.99-2.99,2.99-7.85,0-10.84-1.45-1.45-3.37-2.25-5.42-2.25Z" fill="#fff"/>
          <path d="M91.66,61.11c3.73,0,7.45,1.42,10.3,4.26l103.82,103.82,32.07,10.69c7.05,2.35,13.46,6.31,18.72,11.57l27.67,27.67-57.06,57.06-27.67-27.67c-5.26-5.26-9.22-11.67-11.57-18.72l-10.69-32.07-103.82-103.82c-5.69-5.69-5.69-14.91,0-20.59l7.94-7.94c2.84-2.84,6.57-4.26,10.3-4.26M92.18,93.82c2.48,0,4.96-.95,6.85-2.84,3.78-3.78,3.78-9.91,0-13.7-1.89-1.89-4.37-2.84-6.85-2.84s-4.96.95-6.85,2.84c-3.78,3.78-3.78,9.91,0,13.7,1.89,1.89,4.37,2.84,6.85,2.84M91.66,57.08c-4.97,0-9.64,1.93-13.15,5.45l-7.94,7.94c-3.51,3.51-5.45,8.18-5.45,13.15s1.93,9.64,5.45,13.15l103.15,103.15,10.39,31.17c2.54,7.61,6.87,14.63,12.54,20.3l27.67,27.67,2.85,2.85,2.85-2.85,57.06-57.06,2.85-2.85-2.85-2.85-27.67-27.67c-5.67-5.67-12.69-10.01-20.3-12.54l-31.17-10.39L104.8,62.53c-3.51-3.51-8.18-5.45-13.15-5.45h0ZM92.18,89.79c-1.51,0-2.93-.59-3.99-1.65-1.07-1.07-1.65-2.49-1.65-3.99s.59-2.93,1.65-3.99c1.07-1.07,2.49-1.65,3.99-1.65s2.93.59,3.99,1.65c1.07,1.07,1.65,2.49,1.65,3.99s-.59,2.93-1.65,3.99c-1.07,1.07-2.49,1.65-3.99,1.65h0Z"/>
        </g>
      </g>
    </g>
  </g>
</svg>