<?xml version="1.0" encoding="UTF-8"?>
<svg id="b" xmlns="http://www.w3.org/2000/svg" version="1.1" viewBox="0 0 726 417.6">
  <!-- Generator: Adobe Illustrator 29.7.1, SVG Export Plug-In . SVG Version: 2.1.1 Build 8)  -->
  <defs>
    <style>
      .st0 {
        fill: #fff;
      }

      .st1 {
        fill-opacity: 0;
      }

      .st1, .st2 {
        fill: #ccc;
      }

      .st3 {
        fill: #333;
      }
    </style>
  </defs>
  <g id="c">
    <g>
      <path class="st3" d="M442.2,110.8h-30.4c0-27-21.8-48.8-48.8-48.8s-48.8,21.8-48.8,48.8h-30.4l-64.8,122.4,64.8,122.4h158.4l64.8-122.4-64.8-122.4Z"/>
      <rect class="st1" x="219" y="67.6" width="288" height="288"/>
      <polygon class="st0" points="319.8 278.4 339.7 278.4 339.7 216 386.3 278.4 406.2 278.4 406.2 190 386.3 190 386.3 247.2 339.7 190 319.8 190 319.8 278.4"/>
      <g>
        <polygon class="st2" points="422.5 283.6 465.7 283.6 492.6 233.2 465.7 182.8 422.5 182.8 449.4 233.2 422.5 283.6"/>
        <polygon class="st2" points="411 305.2 315 305.2 271.8 305.2 291 341.2 435 341.2 454.2 305.2 411 305.2"/>
        <polygon class="st2" points="303.5 283.6 276.6 233.2 303.5 182.8 260.3 182.8 233.4 233.2 260.3 283.6 303.5 283.6"/>
      </g>
      <path class="st2" d="M435,125.2h-39c1.9-4.4,3-9.3,3-14.4,0-19.9-16.1-36-36-36s-36,16.1-36,36,1.1,10,3,14.4h-39l-19.2,36h182.4s-19.2-36-19.2-36ZM363,127.1c-9,0-16.3-7.3-16.3-16.3s7.3-16.3,16.3-16.3,16.3,7.3,16.3,16.3-7.3,16.3-16.3,16.3Z"/>
    </g>
  </g>
</svg>