<?xml version="1.0" encoding="UTF-8"?>
<svg id="b" data-name="Layer 2" xmlns="http://www.w3.org/2000/svg" width="1599.83" height="912.5" xmlns:xlink="http://www.w3.org/1999/xlink" viewBox="0 0 1599.83 912.5">
  <defs>
    <linearGradient id="d" x1="799.91" y1="828.5" x2="799.91" y2="0" gradientUnits="userSpaceOnUse">
      <stop offset="0" stop-color="#fff"/>
      <stop offset="1" stop-color="#333"/>
    </linearGradient>
  </defs>
  <g id="c" data-name="Layer 1">
    <g>
      <path d="M800,0v23.02l50,42.86v38.67l-.09-.07-50,42.86v42.86l-50,42.86v-.86l-50-42.86-.09.07v-37.8l50-42.86v-42.86l-3.93-3.37h0l3.93,3.37,50-42.86V0H0v23.02l50,42.86v42.86l50,42.86v41.99l50,42.86,50-42.86,49.91,42.78v41.29l-50,42.86v42.86l50,42.86v42.86l50,42.86v41.99l50,42.86v42.86l50,42.86,50-42.86v-42.86l-50-42.86v-42.86l-50-42.86v-41.99l-50-42.86v-42.86l50-42.86v.43l50,42.86v42.43l50,42.86v42.86l50,42.86,50-42.86v-42.86l-50-42.86v-42.86l49.91-42.78v1.57l50,42.86.09-.07v37.09l-49.91,42.78v42.86l50,42.86v42.86l.52.44-49.34,42.29v42.86l50,42.86,50-42.86v-42.86l-.52-.44,49.26-42.22v1.14l50,42.86v42.86l50,42.86.09-.07v37.97l50,42.86,50-42.86v-40.13l49.83-42.71v-42.86l-49.91-42.78v-40.85l-50-42.86v-42.43l50-42.86,49.91,42.78v41.29l50,42.86,50-42.86v-42.86l-49.91-42.78v-37.09l.09.07,50-42.86v-1.57l49.91,42.78v42.86l-50,42.86v42.86l50,42.86v41.99l50,42.86v41.87l-49.13,42.11v41.51l-47.26,40.51v42.86l50,42.86,50-42.86v-41.51l47.26-40.51v-41.87l49.13-42.11v-42.86l-50-42.86v-42.86l50-42.86v-42.86l-50-42.86v-41.57l50-42.86v-.43l50,42.86,49.91-42.78v1.57l50,42.86,50-42.86v-42.86l50-42.86v-41.99l50-42.86v-33.73h.17v-9.28l49.83-42.71V0h-799.83ZM499.83,192.01l-49.91,42.78v.43l-50-42.86v-42.86l49.91-42.78v2.01l50,42.86v40.42ZM649.83,65.87h0s0,0,0,0h0ZM1149.91,106.65l-50,42.86v1.14l-49.91-42.78v-41.99l50-42.86,49.91,42.78v40.85ZM1399.83,193.58l-49.91,42.78v-1.57l-50-42.86v-40.42l49.91-42.78v-.86l50,42.86v42.86ZM1449.83,65.87h0s0,0,0,0h0Z" fill="url(#d)"/>
      <polygon points="800 826.79 800 869.64 850 912.5 900 869.64 900 826.79 850 783.93 800 826.79" fill="#fff"/>
    </g>
  </g>
</svg>