<?xml version="1.0" encoding="UTF-8"?>
<svg id="Layer_2" data-name="Layer 2" xmlns="http://www.w3.org/2000/svg" xmlns:xlink="http://www.w3.org/1999/xlink" viewBox="0 0 787.75 885.89">
  <defs>
    <style>
      .cls-1 {
        fill: #b3b3b3;
      }

      .cls-1, .cls-2, .cls-3, .cls-4, .cls-5, .cls-6, .cls-7, .cls-8, .cls-9, .cls-10, .cls-11 {
        stroke: #000;
        stroke-miterlimit: 10;
      }

      .cls-1, .cls-3, .cls-4, .cls-7 {
        stroke-width: 10px;
      }

      .cls-2, .cls-6 {
        stroke-width: 9px;
      }

      .cls-2, .cls-9 {
        fill: #fff;
      }

      .cls-3 {
        fill: gray;
      }

      .cls-4 {
        fill: #ccc;
      }

      .cls-6, .cls-8 {
        fill: #e6e6e6;
      }

      .cls-7 {
        fill: #666;
      }

      .cls-8, .cls-9 {
        stroke-width: 8px;
      }

      .cls-10 {
        stroke-width: .68px;
      }

      .cls-12 {
        fill: url(#linear-gradient);
      }

      .cls-11 {
        fill: none;
        stroke-width: 5px;
      }
    </style>
    <linearGradient id="linear-gradient" x1="31.11" y1="432" x2="749.93" y2="432" gradientUnits="userSpaceOnUse">
      <stop offset="0" stop-color="#999"/>
      <stop offset="1" stop-color="gray"/>
    </linearGradient>
  </defs>
  <g id="Bust">
    <g id="Frame">
      <rect class="cls-12" x="31.11" y="4.5" width="718.83" height="855"/>
      <path d="M745.43,9v846H35.61V9h709.83M754.43,0H26.61v864h727.83V0h0Z"/>
    </g>
    <polygon id="Neck" class="cls-8" points="283.3 368.61 290.35 636.26 500.87 663.65 518.87 447.65 283.3 368.61"/>
    <g id="Shirt">
      <polygon class="cls-7" points="559.56 544.7 577.17 612.78 511.82 606.52 559.56 544.7"/>
      <polygon class="cls-3" points="497.48 633.91 557.22 580.7 645.65 627.65 779.48 877.3 580.69 880.83 497.48 633.91"/>
      <polygon class="cls-1" points="499.3 637.83 559.56 544.7 510.19 504.17 499.3 637.83"/>
      <polygon id="LeftShounder" class="cls-1" points="466.43 586.17 525.13 643.3 635.48 880.83 5 880.83 5 709.04 251.22 549.39 466.43 586.17"/>
      <polygon id="LeftCollar" class="cls-4" points="271.56 473.48 251.22 549.39 448.43 699.65 466.43 586.17 271.56 473.48"/>
    </g>
    <g id="Head">
      <polygon id="HeadDark" class="cls-6" points="548.61 266.09 553.3 242.61 522.78 153.39 471.91 104.09 371.74 87.65 311.48 109.57 251.22 188.61 251.22 284.8 236.35 279.39 225.39 303.26 255.91 394.43 277.04 405.61 283.44 385.19 311.48 448.43 412.43 518.87 505.78 510.26 549.39 450 565.82 307.57 548.61 266.09"/>
      <polygon id="HeadLight" class="cls-2" points="511.82 413.48 476.35 408 429.26 396.26 395.61 394.57 415.82 373.04 511.82 391.7 496.69 318.91 461.08 278.22 467.22 240.78 490.95 206.61 543.54 214.06 522.78 153.39 471.91 104.09 371.74 87.65 311.48 109.57 251.22 188.61 251.22 284.8 236.35 279.39 225.39 303.26 255.91 394.43 277.04 405.61 283.44 385.19 311.48 448.43 412.43 518.87 505.78 510.26 516.64 495.26 511.82 413.48"/>
      <polyline id="EarCrease" class="cls-11" points="234.39 294.65 253.95 303.26 264.13 326.74 253.17 349.04 273.52 360.39 265.3 370.96"/>
      <polygon id="LeftEyebrow" class="cls-5" points="435.91 220.7 338.87 220.7 304.43 241.83 338.87 201.65 435.91 201.65 435.91 220.7"/>
      <polygon id="RightEyebrow" class="cls-10" points="484.38 218.01 535.25 218.01 553.3 236.88 548.61 210.61 535.25 199.65 484.38 199.65 484.38 218.01"/>
      <polygon id="LeftEye" points="349.04 264 376.17 247.83 397.04 247.83 415.82 255.91 395.61 260.35 370.17 260.35 349.04 264"/>
      <polygon id="RightEye" points="480 258.26 497.22 247.83 518.84 250.96 532.69 258.26 480 258.26"/>
      <polygon id="Lips" class="cls-6" points="416.93 401.46 450.78 411.91 493.3 413.48 511.82 391.7 483.65 373.04 461.74 377.48 434.87 374.87 400.69 387.39 416.93 401.46"/>
      <polyline id="Nose" class="cls-9" points="426.91 302.35 413.08 325.7 430.69 337.04 449.22 332.8 469.04 338.09 475.04 338.09 491.22 326.87 498.26 328.66 504.13 318.52 496.82 299.74 478.04 277.04 472.3 253.57 464.61 238.96 486.13 209.09 485.48 192"/>
      <polygon id="LeftNostril" points="433.04 330 441.39 332.8 453.23 328.66 438.52 324.52 433.04 330"/>
      <polygon id="RightNostril" points="495.31 324.88 486.96 327.68 484.63 324.29 489.97 322.73 495.31 324.88"/>
      <polyline id="MouthLine" class="cls-11" points="456.9 393.13 498.32 390.67 533.72 387.26"/>
    </g>
  </g>
</svg>