<?xml version="1.0" encoding="UTF-8"?>
<svg xmlns="http://www.w3.org/2000/svg" viewBox="0 0 200 200">
      <polygon points="200 7.07 200 0 192.93 0 200 7.07" fill="#1a1a1a"/>
      <polygon points="0 192.93 0 200 7.07 200 0 192.93" fill="#1a1a1a"/>
      <polygon points="0 107.18 0 121.47 78.53 200 92.82 200 0 107.18" fill="#1a1a1a"/>
      <polygon points="0 21.44 0 35.73 164.27 200 178.56 200 0 21.44" fill="#1a1a1a"/>
      <polygon points="0 50.02 0 64.31 135.69 200 149.98 200 0 50.02" fill="#1a1a1a"/>
      <polygon points="0 78.6 0 92.89 107.11 200 121.4 200 0 78.6" fill="#1a1a1a"/>
      <polygon points="21.36 200 35.65 200 0 164.35 0 178.64 21.36 200" fill="#1a1a1a"/>
      <polygon points="0 135.76 0 150.05 49.95 200 64.24 200 0 135.76" fill="#1a1a1a"/>
      <polygon points="121.47 0 107.18 0 200 92.82 200 78.53 121.47 0" fill="#1a1a1a"/>
      <polygon points="92.89 0 78.6 0 200 121.4 200 107.11 92.89 0" fill="#1a1a1a"/>
      <polygon points="200 197.99 200 192.85 7.15 0 0 0 0 2.01 0 7.15 192.85 200 200 200 200 197.99" fill="#1a1a1a"/>
      <polygon points="178.64 0 164.35 0 200 35.65 200 21.36 178.64 0" fill="#1a1a1a"/>
      <polygon points="150.06 0 135.77 0 200 64.23 200 49.94 150.06 0" fill="#1a1a1a"/>
      <polygon points="64.31 0 50.02 0 200 149.98 200 135.69 64.31 0" fill="#1a1a1a"/>
      <polygon points="35.73 0 21.44 0 200 178.56 200 164.27 35.73 0" fill="#1a1a1a"/>
    </svg>