<?xml version="1.0" encoding="UTF-8"?>
<svg id="Layer_2" data-name="Layer 2" xmlns="http://www.w3.org/2000/svg" viewBox="0 0 340 340">
  <defs>
    <style>
      .cls-1 {
        fill: #dbf227;
      }
    </style>
  </defs>
  <g id="Layer_1-2" data-name="Layer 1">
    <g>
      <polygon class="cls-1" points="179.5 222.69 179.5 320 320 320 320 20 179 20 179 20.5 179.5 20.5 179.5 192.31 266.5 92.89 266.5 232 246.5 232 246.5 146.11 179.5 222.69"/>
      <polygon class="cls-1" points="159.5 319.5 159 319.5 159 223.69 92 147.11 92 233 72 233 72 93.89 159 193.31 159 20 20 20 20 320 159.5 320 159.5 319.5"/>
      <path d="M320,0H0v340h340V0h-20ZM20,20h139v173.31l-87-99.43v139.11h20v-85.89l67,76.57v95.81h.5v.5H20V20ZM320,320h-140.5v-97.31l67-76.57v85.89h20V92.89l-87,99.43V20.5h-.5v-.5h141v300Z"/>
    </g>
  </g>
</svg>