<?xml version="1.0" encoding="UTF-8"?>
<svg id="b" data-name="Layer 2" xmlns="http://www.w3.org/2000/svg" width="400" height="312.5" viewBox="0 0 400 312.5">
  <g id="c" data-name="checkbox">
    <g>
      <g id="d" data-name="back" opacity="0">
        <rect width="400" height="312.5" fill="#fbb03b"/>
      </g>
      <g>
        <g id="e" data-name="back">
          <path d="M205.85,222.44H62.47c-7.1,0-12.87-5.77-12.87-12.87V49.64c0-7.1,5.77-12.87,12.87-12.87h275.06c7.1,0,12.87,5.77,12.87,12.87v159.93c0,7.1-5.77,12.87-12.87,12.87h-64.73l-66.94,58.72v-58.72Z"/>
          <path d="M337.53,42.63c3.87,0,7.01,3.15,7.01,7.01v159.93c0,3.87-3.15,7.01-7.01,7.01h-66.94l-3.31,2.91-55.57,48.75v-51.65H62.47c-3.87,0-7.01-3.15-7.01-7.01V49.64c0-3.87,3.15-7.01,7.01-7.01h275.06M337.53,30.92H62.47c-10.34,0-18.72,8.38-18.72,18.72v159.93c0,10.34,8.38,18.72,18.72,18.72h137.53v65.79l75-65.79h62.53c10.34,0,18.72-8.38,18.72-18.72V49.64c0-10.34-8.38-18.72-18.72-18.72h0Z" fill="#fff"/>
        </g>
        <polyline points="62.5 215.63 200 112.5 337.5 215.62" stroke="#fff" stroke-linecap="square" stroke-miterlimit="10" stroke-width="11.71"/>
        <g>
          <path d="M49.87,47.05c1.2-5.85,6.4-10.27,12.6-10.27h275.06c6.21,0,11.4,4.42,12.6,10.27l-150.13,120.45L49.87,47.05Z"/>
          <path d="M337.53,42.63c2.21,0,4.19,1.03,5.47,2.63l-143,114.73L57,45.26c1.29-1.6,3.26-2.63,5.47-2.63h275.06M337.53,30.92H62.47c-10.34,0-18.72,8.38-18.72,18.72l156.25,125.36,156.25-125.36c0-10.34-8.38-18.72-18.72-18.72h0Z" fill="#fff"/>
        </g>
      </g>
    </g>
  </g>
</svg>