<?xml version="1.0" encoding="UTF-8"?>
<svg id="b" data-name="Layer 2" xmlns="http://www.w3.org/2000/svg" width="200" height="200" viewBox="0 0 200 200">
  <defs>
    <style>
      .d {
        opacity: 0;
      }

      .d, .e {
        fill: lime;
      }
    </style>
  </defs>
  <g id="c" data-name="Layer 1">
    <g>
      <rect class="d" width="200" height="200"/>
      <g>
        <path class="e" d="M82.87,186.7l-43.05-114.8,29.96-51.89h60.45l29.96,51.89-43.05,114.8h-34.27ZM112.9,94.69l12.9-22.34-12.9-22.34h-25.79l-12.9,22.34,12.9,22.34h25.79Z"/>
        <path d="M127.34,25l27.34,47.35-41.01,109.35h-27.34l-41.01-109.35,27.34-47.35h54.67M84.22,99.69h31.57l15.78-27.34-15.78-27.34h-31.57l-15.78,27.34,15.78,27.34M133.11,15h-66.22l-2.89,5-27.34,47.35-2.36,4.09,1.66,4.42,41.01,109.35,2.43,6.49h41.2l2.43-6.49,41.01-109.35,1.66-4.42-2.36-4.09-27.34-47.35-2.89-5h0ZM89.99,55.01h20.02l10.01,17.34-10.01,17.34h-20.02l-10.01-17.34,10.01-17.34h0Z"/>
      </g>
    </g>
  </g>
</svg>