<?xml version="1.0" encoding="UTF-8"?>
<svg id="b" data-name="Layer 2" xmlns="http://www.w3.org/2000/svg" width="700" height="600" viewBox="0 0 700 600">
  <g id="c" data-name="Layer 1">
    <rect id="d" data-name="bg" width="700" height="600" fill="#e6e6e6"/>
    <g id="e" data-name="serverRight">
      <polygon points="663.44 554.45 623.09 529.88 623.36 369.22 663.71 393.8 663.44 554.45" fill="#686868"/>
      <polygon points="663.72 387.85 623.37 363.27 628.29 362.5 668.64 387.08 663.72 387.85" fill="#909090"/>
      <polygon points="540.62 407.22 500.28 382.64 505.2 381.87 545.55 406.44 540.62 407.22" fill="#909090"/>
      <g>
        <polygon points="545.44 536.1 505.09 511.53 623.26 492.93 663.61 517.51 545.44 536.1" fill="#6c6c6c"/>
        <path d="M545.44,536.1l118.17-18.59-.06,34.48-118.17,18.59.06-34.48ZM584.78,559.65v-5.95s-34.45,5.42-34.45,5.42v5.95s34.45-5.42,34.45-5.42M658.63,548.03v-5.95s-4.91.77-4.91.77v5.95s4.91-.77,4.91-.77" fill="#868686"/>
        <polygon points="658.64 542.08 658.63 548.03 653.71 548.81 653.72 542.86 658.64 542.08" fill="#00df00"/>
        <polygon points="584.79 553.7 584.78 559.65 550.31 565.08 550.32 559.13 584.79 553.7" fill="#626262"/>
      </g>
      <g>
        <polygon points="545.44 495.62 505.09 471.04 623.26 452.45 663.61 477.02 545.44 495.62" fill="#6c6c6c"/>
        <path d="M545.44,495.62l118.17-18.59-.06,34.48-118.17,18.59.06-34.48ZM584.78,519.17v-5.95s-34.45,5.42-34.45,5.42v5.95s34.45-5.42,34.45-5.42M658.63,507.55v-5.95s-4.91.77-4.91.77v5.95s4.91-.77,4.91-.77" fill="#868686"/>
        <polygon points="658.64 501.6 658.63 507.55 653.71 508.32 653.72 502.37 658.64 501.6" fill="#00df00"/>
        <polygon points="584.79 513.22 584.78 519.17 550.31 524.59 550.32 518.64 584.79 513.22" fill="#626262"/>
      </g>
      <g>
        <polygon points="545.44 455.59 505.09 431.01 623.26 412.42 663.61 436.99 545.44 455.59" fill="#6c6c6c"/>
        <path d="M545.44,455.59l118.17-18.59-.06,34.48-118.17,18.59.06-34.48ZM584.78,479.14v-5.95s-34.45,5.42-34.45,5.42v5.95s34.45-5.42,34.45-5.42M658.63,467.51v-5.95s-4.91.77-4.91.77v5.95s4.91-.77,4.91-.77" fill="#868686"/>
        <polygon points="658.64 461.56 658.63 467.51 653.71 468.29 653.72 462.34 658.64 461.56" fill="#00df00"/>
        <polygon points="584.79 473.19 584.78 479.14 550.31 484.56 550.32 478.61 584.79 473.19" fill="#626262"/>
      </g>
      <g>
        <polygon points="545.44 415.95 505.09 391.37 623.26 372.78 663.61 397.35 545.44 415.95" fill="#6c6c6c"/>
        <path d="M545.44,415.95l118.17-18.59-.06,34.48-118.17,18.59.06-34.48ZM584.78,439.5v-5.95s-34.45,5.42-34.45,5.42v5.95s34.45-5.42,34.45-5.42M658.63,427.87v-5.95s-4.91.77-4.91.77v5.95s4.91-.77,4.91-.77" fill="#868686"/>
        <polygon points="658.64 421.92 658.63 427.87 653.71 428.65 653.72 422.7 658.64 421.92" fill="#00df00"/>
        <polygon points="584.79 433.55 584.78 439.5 550.31 444.92 550.32 438.97 584.79 433.55" fill="#626262"/>
      </g>
      <g>
        <polygon points="540.35 573.82 500 549.24 500.28 382.64 540.62 407.22 540.35 573.82" fill="#686868"/>
        <polygon points="668.64 387.08 668.36 553.68 663.44 554.45 663.71 393.8 545.54 412.39 545.27 573.05 540.35 573.82 540.62 407.22 545.55 406.44 663.72 387.85 668.64 387.08" fill="#b2b2b2"/>
      </g>
      <polygon points="540.62 407.22 500.28 382.64 623.37 363.27 663.72 387.85 540.62 407.22" fill="#909090"/>
    </g>
    <g id="f" data-name="serverLeft">
      <polygon points="200.94 554.45 160.59 529.88 160.86 369.22 201.21 393.8 200.94 554.45" fill="#686868"/>
      <polygon points="201.22 387.85 160.87 363.27 165.79 362.5 206.14 387.08 201.22 387.85" fill="#909090"/>
      <polygon points="78.12 407.22 37.78 382.64 42.7 381.87 83.05 406.44 78.12 407.22" fill="#909090"/>
      <g>
        <polygon points="82.94 536.1 42.59 511.53 160.76 492.93 201.11 517.51 82.94 536.1" fill="#6c6c6c"/>
        <path d="M82.94,536.1l118.17-18.59-.06,34.48-118.17,18.59.06-34.48ZM122.28,559.65v-5.95s-34.45,5.42-34.45,5.42v5.95s34.45-5.42,34.45-5.42M196.13,548.03v-5.95s-4.91.77-4.91.77v5.95s4.91-.77,4.91-.77" fill="#868686"/>
        <polygon points="196.14 542.08 196.13 548.03 191.21 548.81 191.22 542.86 196.14 542.08" fill="#00df00"/>
        <polygon points="122.29 553.7 122.28 559.65 87.81 565.08 87.82 559.13 122.29 553.7" fill="#626262"/>
      </g>
      <g>
        <polygon points="82.94 495.62 42.59 471.04 160.76 452.45 201.11 477.02 82.94 495.62" fill="#6c6c6c"/>
        <path d="M82.94,495.62l118.17-18.59-.06,34.48-118.17,18.59.06-34.48ZM122.28,519.17v-5.95s-34.45,5.42-34.45,5.42v5.95s34.45-5.42,34.45-5.42M196.13,507.55v-5.95s-4.91.77-4.91.77v5.95s4.91-.77,4.91-.77" fill="#868686"/>
        <polygon points="196.14 501.6 196.13 507.55 191.21 508.32 191.22 502.37 196.14 501.6" fill="#00df00"/>
        <polygon points="122.29 513.22 122.28 519.17 87.81 524.59 87.82 518.64 122.29 513.22" fill="#626262"/>
      </g>
      <g>
        <polygon points="82.94 455.59 42.59 431.01 160.76 412.42 201.11 436.99 82.94 455.59" fill="#6c6c6c"/>
        <path d="M82.94,455.59l118.17-18.59-.06,34.48-118.17,18.59.06-34.48ZM122.28,479.14v-5.95s-34.45,5.42-34.45,5.42v5.95s34.45-5.42,34.45-5.42M196.13,467.51v-5.95s-4.91.77-4.91.77v5.95s4.91-.77,4.91-.77" fill="#868686"/>
        <polygon points="196.14 461.56 196.13 467.51 191.21 468.29 191.22 462.34 196.14 461.56" fill="#00df00"/>
        <polygon points="122.29 473.19 122.28 479.14 87.81 484.56 87.82 478.61 122.29 473.19" fill="#626262"/>
      </g>
      <g>
        <polygon points="82.94 415.95 42.59 391.37 160.76 372.78 201.11 397.35 82.94 415.95" fill="#6c6c6c"/>
        <path d="M82.94,415.95l118.17-18.59-.06,34.48-118.17,18.59.06-34.48ZM122.28,439.5v-5.95s-34.45,5.42-34.45,5.42v5.95s34.45-5.42,34.45-5.42M196.13,427.87v-5.95s-4.91.77-4.91.77v5.95s4.91-.77,4.91-.77" fill="#868686"/>
        <polygon points="196.14 421.92 196.13 427.87 191.21 428.65 191.22 422.7 196.14 421.92" fill="#00df00"/>
        <polygon points="122.29 433.55 122.28 439.5 87.81 444.92 87.82 438.97 122.29 433.55" fill="#626262"/>
      </g>
      <g>
        <polygon points="77.85 573.82 37.5 549.24 37.78 382.64 78.12 407.22 77.85 573.82" fill="#686868"/>
        <polygon points="206.14 387.08 205.86 553.68 200.94 554.45 201.21 393.8 83.04 412.39 82.77 573.05 77.85 573.82 78.12 407.22 83.05 406.44 201.22 387.85 206.14 387.08" fill="#b2b2b2"/>
      </g>
      <polygon points="78.12 407.22 37.78 382.64 160.87 363.27 201.22 387.85 78.12 407.22" fill="#909090"/>
    </g>
    <g id="g" data-name="computer">
      <g isolation="isolate">
        <polygon points="399.52 215.41 398.74 229.92 259.79 249.45 260.56 234.94 399.52 215.41" fill="#ababab"/>
        <polygon points="260.56 234.94 259.79 249.45 215.57 215.58 216.35 201.07 260.56 234.94" fill="#686868"/>
        <polygon points="355.3 181.54 399.52 215.41 260.56 234.94 216.35 201.07 355.3 181.54" fill="#9d9d9d"/>
      </g>
      <g isolation="isolate">
        <polygon points="446.76 52.94 446.54 173.15 186.65 209.67 186.88 89.46 446.76 52.94" fill="#242424"/>
        <polygon points="186.65 209.67 179.54 205.8 179.76 85.59 186.88 89.46 186.65 209.67" fill="#151515"/>
        <polygon points="186.88 89.46 179.76 85.59 439.64 49.06 446.76 52.94 186.88 89.46" fill="#1d1d1d"/>
        <polygon points="177.62 228.81 170.5 224.94 170.78 74.98 177.89 78.85 177.62 228.81" fill="#4e4e4e"/>
        <polygon points="177.89 78.85 170.78 74.98 448.66 35.92 455.77 39.8 177.89 78.85" fill="#6c6c6c"/>
        <path d="M177.89,78.85l277.88-39.05-.28,149.96-277.88,39.05.28-149.96ZM446.54,173.15l.22-120.21-259.88,36.52-.22,120.21,259.88-36.52" fill="#868686"/>
      </g>
      <g>
        <polygon points="485.17 236.75 496.47 245.12 495.41 245.27 489.43 246.11 488.5 246.24 477.19 237.87 478.12 237.74 484.1 236.9 485.17 236.75" fill="#555"/>
        <polygon points="498.97 233.61 524.18 237.97 533.16 244.61 500.68 249.17 495.41 245.27 496.47 245.12 485.17 236.75 484.1 236.9 482.74 235.89 498.97 233.61" fill="#9c9c9c"/>
        <polygon points="476.76 236.73 478.12 237.74 477.19 237.87 488.5 246.24 489.43 246.11 494.7 250.01 461.84 254.63 452.86 247.99 460.33 239.04 476.76 236.73" fill="#9c9c9c"/>
        <polygon points="551.46 255.12 550.74 270.42 541.35 280.34 542.08 265.03 551.46 255.12" fill="#6c6c6c"/>
        <polygon points="473.23 266.11 472.51 281.42 447.88 263.19 448.6 247.89 473.23 266.11" fill="#4e4e4e"/>
        <polygon points="542.08 265.03 541.35 280.34 501.41 285.95 502.13 270.64 542.08 265.03" fill="#818181"/>
        <path d="M497.31,232.26l29.52,4.63,24.62,18.22-9.38,9.91-39.94,5.61-28.9-4.53-24.62-18.22,9.59-10.13,39.12-5.5ZM533.16,244.61l-8.97-6.64-25.21-4.36-16.24,2.28,1.36,1.01-5.98.84-1.36-1.01-16.43,2.31-7.46,8.95,8.97,6.64,32.87-4.62-5.27-3.9,5.98-.84,5.27,3.9,32.47-4.56" fill="#757575"/>
        <polygon points="502.13 270.64 501.41 285.95 472.51 281.42 473.23 266.11 502.13 270.64" fill="#6c6c6c"/>
      </g>
      <g isolation="isolate">
        <polygon points="461.81 280 461.09 295.3 416.55 301.56 417.27 286.26 461.81 280" fill="#acacac"/>
        <polygon points="189.61 277.02 188.89 292.33 178.75 284.83 179.47 269.52 189.61 277.02" fill="#686868"/>
        <polygon points="415.73 286.47 415.01 301.78 235.92 326.95 236.64 311.64 415.73 286.47" fill="#acacac"/>
        <polygon points="236.64 311.64 235.92 326.95 190.28 293.16 191 277.86 236.64 311.64" fill="#686868"/>
        <path d="M177.27,269.17l228.03-32.05,58.13,43.02-228.03,32.05-58.13-43.02ZM415.73,286.47l-45.65-33.78-179.09,25.17,45.65,33.78,179.09-25.17M461.81,280l-45.65-33.78-44.54,6.26,45.65,33.78,44.54-6.26M211.16,265.07l10.14,7.5,138.96-19.53-10.14-7.5-138.96,19.53M414.99,245.34l-10.14-7.5-44.54,6.26,10.14,7.5,44.54-6.26M179.47,269.52l10.14,7.5,19.88-2.79-10.14-7.5-19.88,2.79" fill="#757575"/>
        <polygon points="463.42 280.15 462.7 295.45 234.68 327.5 235.4 312.19 463.42 280.15" fill="#818181"/>
        <polygon points="235.4 312.19 234.68 327.5 176.55 284.48 177.27 269.17 235.4 312.19" fill="#4e4e4e"/>
        <polygon points="350.12 245.54 360.26 253.04 221.3 272.57 211.16 265.07 350.12 245.54" fill="#9c9c9c"/>
        <polygon points="199.36 266.72 209.49 274.23 189.61 277.02 179.47 269.52 199.36 266.72" fill="#9c9c9c"/>
        <polygon points="370.08 252.69 415.73 286.47 236.64 311.64 191 277.86 370.08 252.69" fill="#9c9c9c"/>
        <polygon points="404.86 237.84 414.99 245.34 370.45 251.6 360.32 244.1 404.86 237.84" fill="#9c9c9c"/>
        <polygon points="416.17 246.21 461.81 280 417.27 286.26 371.62 252.47 416.17 246.21" fill="#9c9c9c"/>
      </g>
    </g>
    <g id="h" data-name="page">
      <polygon points="245.88 107.03 245.71 195.16 396.46 173.97 396.63 85.84 245.88 107.03" fill="#fff"/>
      <polygon points="384.05 94.39 384.04 101.17 258.41 118.82 258.43 112.04 384.05 94.39" fill="#c9c9c9"/>
      <g>
        <polygon points="396.65 72.28 396.64 79.06 252.17 99.36 252.18 92.58 396.65 72.28" fill="#c9c9c9"/>
        <polygon points="396.66 65.5 396.65 72.28 252.18 92.58 252.17 99.36 396.64 79.06 396.63 85.84 245.88 107.03 245.91 86.69 396.66 65.5" fill="#595959"/>
      </g>
    </g>
    <g id="i" data-name="content">
      <polygon points="383.96 141.84 383.91 168.96 358.79 172.49 358.84 145.37 383.96 141.84" fill="#c9c9c9"/>
      <polygon points="384.03 107.95 383.97 135.06 358.85 138.59 358.9 111.48 384.03 107.95" fill="#c9c9c9"/>
      <polygon points="352.55 146.25 352.5 173.37 321.1 177.79 321.15 150.67 352.55 146.25" fill="#c9c9c9"/>
      <polygon points="314.87 151.55 314.82 178.67 289.69 182.2 289.74 155.08 314.87 151.55" fill="#c9c9c9"/>
      <polygon points="352.62 112.36 352.57 139.47 289.75 148.3 289.81 121.19 352.62 112.36" fill="#c9c9c9"/>
      <polygon points="283.47 155.96 283.41 183.08 258.29 186.62 258.34 159.5 283.47 155.96" fill="#c9c9c9"/>
      <polygon points="283.53 122.07 283.48 149.18 258.35 152.72 258.4 125.6 283.53 122.07" fill="#c9c9c9"/>
    </g>
    <g id="j" data-name="CtoR">
      <polygon points="358.34 329.25 494.22 465.13 498.46 460.88 481.48 418.42 477.23 414.17 464.49 426.91 362.58 325 358.34 329.25"/>
      <rect x="337.5" y="312.5" width="12.5" height="12.5" opacity="0"/>
    </g>
    <g id="k" data-name="RtoC">
      <polygon points="490.13 469.22 354.25 333.34 350 337.58 366.99 380.04 371.23 384.29 383.97 371.55 485.88 473.46 490.13 469.22"/>
      <rect x="537.5" y="512.5" width="12.5" height="12.5" opacity="0"/>
    </g>
    <g id="l" data-name="LtoR">
      <polygon points="257.83 511.52 450 511.52 450 505.52 407.96 487.5 401.96 487.5 401.96 505.52 257.83 505.52 257.83 511.52"/>
      <rect x="150" y="512.5" width="12.5" height="12.5" opacity="0"/>
    </g>
    <g id="m" data-name="RtoL">
      <polygon points="450 517.3 257.83 517.3 257.83 523.31 299.87 541.32 305.88 541.32 305.88 523.31 450 523.31 450 517.3"/>
      <rect x="537.5" y="512.5" width="12.5" height="12.5" opacity="0"/>
    </g>
  </g>
</svg>