<?xml version="1.0" encoding="UTF-8"?>
<svg id="b" data-name="Layer 2" xmlns="http://www.w3.org/2000/svg" width="700" height="700" viewBox="0 0 700 700">
  <g id="c" data-name="Layer 1">
    <rect id="d" data-name="bg" width="700" height="700" fill="#e6e6e6"/>
    <g id="e" data-name="serverRight">
      <polygon points="663.44 641.95 623.09 617.38 623.36 456.72 663.71 481.3 663.44 641.95" fill="#686868"/>
      <polygon points="663.72 475.35 623.37 450.77 628.29 450 668.64 474.58 663.72 475.35" fill="#909090"/>
      <polygon points="540.62 494.72 500.28 470.14 505.2 469.37 545.55 493.94 540.62 494.72" fill="#909090"/>
      <g>
        <polygon points="545.44 623.6 505.09 599.03 623.26 580.43 663.61 605.01 545.44 623.6" fill="#6c6c6c"/>
        <path d="M545.44,623.6l118.17-18.59-.06,34.48-118.17,18.59.06-34.48ZM584.78,647.15v-5.95s-34.45,5.42-34.45,5.42v5.95s34.45-5.42,34.45-5.42M658.63,635.53v-5.95s-4.91.77-4.91.77v5.95s4.91-.77,4.91-.77" fill="#868686"/>
        <polygon points="658.64 629.58 658.63 635.53 653.71 636.31 653.72 630.36 658.64 629.58" fill="#00df00"/>
        <polygon points="584.79 641.2 584.78 647.15 550.31 652.58 550.32 646.63 584.79 641.2" fill="#626262"/>
      </g>
      <g>
        <polygon points="545.44 583.12 505.09 558.54 623.26 539.95 663.61 564.52 545.44 583.12" fill="#6c6c6c"/>
        <path d="M545.44,583.12l118.17-18.59-.06,34.48-118.17,18.59.06-34.48ZM584.78,606.67v-5.95s-34.45,5.42-34.45,5.42v5.95s34.45-5.42,34.45-5.42M658.63,595.05v-5.95s-4.91.77-4.91.77v5.95s4.91-.77,4.91-.77" fill="#868686"/>
        <polygon points="658.64 589.1 658.63 595.05 653.71 595.82 653.72 589.87 658.64 589.1" fill="#00df00"/>
        <polygon points="584.79 600.72 584.78 606.67 550.31 612.09 550.32 606.14 584.79 600.72" fill="#626262"/>
      </g>
      <g>
        <polygon points="545.44 543.09 505.09 518.51 623.26 499.92 663.61 524.49 545.44 543.09" fill="#6c6c6c"/>
        <path d="M545.44,543.09l118.17-18.59-.06,34.48-118.17,18.59.06-34.48ZM584.78,566.64v-5.95s-34.45,5.42-34.45,5.42v5.95s34.45-5.42,34.45-5.42M658.63,555.01v-5.95s-4.91.77-4.91.77v5.95s4.91-.77,4.91-.77" fill="#868686"/>
        <polygon points="658.64 549.06 658.63 555.01 653.71 555.79 653.72 549.84 658.64 549.06" fill="#00df00"/>
        <polygon points="584.79 560.69 584.78 566.64 550.31 572.06 550.32 566.11 584.79 560.69" fill="#626262"/>
      </g>
      <g>
        <polygon points="545.44 503.45 505.09 478.87 623.26 460.28 663.61 484.85 545.44 503.45" fill="#6c6c6c"/>
        <path d="M545.44,503.45l118.17-18.59-.06,34.48-118.17,18.59.06-34.48ZM584.78,527v-5.95s-34.45,5.42-34.45,5.42v5.95s34.45-5.42,34.45-5.42M658.63,515.37v-5.95s-4.91.77-4.91.77v5.95s4.91-.77,4.91-.77" fill="#868686"/>
        <polygon points="658.64 509.42 658.63 515.37 653.71 516.15 653.72 510.2 658.64 509.42" fill="#00df00"/>
        <polygon points="584.79 521.05 584.78 527 550.31 532.42 550.32 526.47 584.79 521.05" fill="#626262"/>
      </g>
      <g>
        <polygon points="540.35 661.32 500 636.74 500.28 470.14 540.62 494.72 540.35 661.32" fill="#686868"/>
        <polygon points="668.64 474.58 668.36 641.18 663.44 641.95 663.71 481.3 545.54 499.89 545.27 660.55 540.35 661.32 540.62 494.72 545.55 493.94 663.72 475.35 668.64 474.58" fill="#b2b2b2"/>
      </g>
      <polygon points="540.62 494.72 500.28 470.14 623.37 450.77 663.72 475.35 540.62 494.72" fill="#909090"/>
    </g>
    <g id="f" data-name="serverLeft">
      <polygon points="200.94 641.95 160.59 617.38 160.86 456.72 201.21 481.3 200.94 641.95" fill="#686868"/>
      <polygon points="201.22 475.35 160.87 450.77 165.79 450 206.14 474.58 201.22 475.35" fill="#909090"/>
      <polygon points="78.12 494.72 37.78 470.14 42.7 469.37 83.05 493.94 78.12 494.72" fill="#909090"/>
      <g>
        <polygon points="82.94 623.6 42.59 599.03 160.76 580.43 201.11 605.01 82.94 623.6" fill="#6c6c6c"/>
        <path d="M82.94,623.6l118.17-18.59-.06,34.48-118.17,18.59.06-34.48ZM122.28,647.15v-5.95s-34.45,5.42-34.45,5.42v5.95s34.45-5.42,34.45-5.42M196.13,635.53v-5.95s-4.91.77-4.91.77v5.95s4.91-.77,4.91-.77" fill="#868686"/>
        <polygon points="196.14 629.58 196.13 635.53 191.21 636.31 191.22 630.36 196.14 629.58" fill="#00df00"/>
        <polygon points="122.29 641.2 122.28 647.15 87.81 652.58 87.82 646.63 122.29 641.2" fill="#626262"/>
      </g>
      <g>
        <polygon points="82.94 583.12 42.59 558.54 160.76 539.95 201.11 564.52 82.94 583.12" fill="#6c6c6c"/>
        <path d="M82.94,583.12l118.17-18.59-.06,34.48-118.17,18.59.06-34.48ZM122.28,606.67v-5.95s-34.45,5.42-34.45,5.42v5.95s34.45-5.42,34.45-5.42M196.13,595.05v-5.95s-4.91.77-4.91.77v5.95s4.91-.77,4.91-.77" fill="#868686"/>
        <polygon points="196.14 589.1 196.13 595.05 191.21 595.82 191.22 589.87 196.14 589.1" fill="#00df00"/>
        <polygon points="122.29 600.72 122.28 606.67 87.81 612.09 87.82 606.14 122.29 600.72" fill="#626262"/>
      </g>
      <g>
        <polygon points="82.94 543.09 42.59 518.51 160.76 499.92 201.11 524.49 82.94 543.09" fill="#6c6c6c"/>
        <path d="M82.94,543.09l118.17-18.59-.06,34.48-118.17,18.59.06-34.48ZM122.28,566.64v-5.95s-34.45,5.42-34.45,5.42v5.95s34.45-5.42,34.45-5.42M196.13,555.01v-5.95s-4.91.77-4.91.77v5.95s4.91-.77,4.91-.77" fill="#868686"/>
        <polygon points="196.14 549.06 196.13 555.01 191.21 555.79 191.22 549.84 196.14 549.06" fill="#00df00"/>
        <polygon points="122.29 560.69 122.28 566.64 87.81 572.06 87.82 566.11 122.29 560.69" fill="#626262"/>
      </g>
      <g>
        <polygon points="82.94 503.45 42.59 478.87 160.76 460.28 201.11 484.85 82.94 503.45" fill="#6c6c6c"/>
        <path d="M82.94,503.45l118.17-18.59-.06,34.48-118.17,18.59.06-34.48ZM122.28,527v-5.95s-34.45,5.42-34.45,5.42v5.95s34.45-5.42,34.45-5.42M196.13,515.37v-5.95s-4.91.77-4.91.77v5.95s4.91-.77,4.91-.77" fill="#868686"/>
        <polygon points="196.14 509.42 196.13 515.37 191.21 516.15 191.22 510.2 196.14 509.42" fill="#00df00"/>
        <polygon points="122.29 521.05 122.28 527 87.81 532.42 87.82 526.47 122.29 521.05" fill="#626262"/>
      </g>
      <g>
        <polygon points="77.85 661.32 37.5 636.74 37.78 470.14 78.12 494.72 77.85 661.32" fill="#686868"/>
        <polygon points="206.14 474.58 205.86 641.18 200.94 641.95 201.21 481.3 83.04 499.89 82.77 660.55 77.85 661.32 78.12 494.72 83.05 493.94 201.22 475.35 206.14 474.58" fill="#b2b2b2"/>
      </g>
      <polygon points="78.12 494.72 37.78 470.14 160.87 450.77 201.22 475.35 78.12 494.72" fill="#909090"/>
    </g>
    <g id="g" data-name="computer">
      <g>
        <polygon points="386.52 225.41 385.74 239.92 246.79 259.45 247.56 244.94 386.52 225.41" fill="#ababab"/>
        <polygon points="247.56 244.94 246.79 259.45 202.57 225.58 203.35 211.07 247.56 244.94" fill="#686868"/>
        <polygon points="342.3 191.54 386.52 225.41 247.56 244.94 203.35 211.07 342.3 191.54" fill="#9d9d9d"/>
      </g>
      <g id="h" data-name="monitor" isolation="isolate">
        <polygon id="i" data-name="top" points="164.89 88.85 157.78 84.98 435.66 45.92 442.77 49.8 164.89 88.85" fill="#6c6c6c"/>
        <polygon id="j" data-name="leftside" points="164.62 238.81 157.5 234.94 157.78 84.98 164.89 88.85 164.62 238.81" fill="#4e4e4e"/>
        <polygon id="k" data-name="front" points="164.89 88.85 164.62 238.81 442.49 199.76 442.77 49.8 164.89 88.85" fill="#868686"/>
        <polygon id="l" data-name="screen" points="433.76 62.94 433.54 183.15 173.65 219.67 173.88 99.46 433.76 62.94" fill="#242424"/>
      </g>
      <polygon points="450.42 290.15 449.7 305.45 221.68 337.5 222.4 322.19 450.42 290.15" fill="#818181"/>
      <polygon points="222.4 322.19 221.68 337.5 163.55 294.48 164.27 279.17 222.4 322.19" fill="#4e4e4e"/>
      <polygon points="392.3 247.13 291.28 261.32 164.27 279.17 222.4 322.19 450.42 290.15 392.3 247.13" fill="#757575"/>
      <polygon points="337.12 255.54 347.26 263.04 208.3 282.57 198.16 275.07 337.12 255.54" fill="#9c9c9c"/>
      <polygon points="186.36 276.72 196.49 284.23 176.61 287.02 166.47 279.52 186.36 276.72" fill="#9c9c9c"/>
      <polygon points="403.17 256.21 448.81 290 404.27 296.26 358.62 262.47 403.17 256.21" fill="#9c9c9c"/>
      <polygon points="357.08 262.69 402.73 296.47 223.64 321.64 178 287.86 357.08 262.69" fill="#9c9c9c"/>
      <polygon points="391.86 247.84 401.99 255.34 357.45 261.6 347.32 254.1 391.86 247.84" fill="#9c9c9c"/>
      <g id="m" data-name="mouse">
        <polygon points="475.1 279.72 474.57 294.78 434.73 267.28 435.27 252.22 475.1 279.72" fill="#5b5b5b"/>
        <polygon points="531.61 271.78 531.08 286.84 474.57 294.78 475.1 279.72 531.61 271.78" fill="#989898"/>
        <polygon points="491.77 244.28 435.27 252.22 475.1 279.72 531.61 271.78 491.77 244.28" fill="#868686"/>
        <polygon points="480.65 248.34 493.93 257.51 465.68 261.48 452.4 252.31 480.65 248.34" fill="#999"/>
      </g>
    </g>
    <g id="n" data-name="page">
      <polygon points="232.88 117.03 232.71 205.16 383.46 183.97 383.63 95.84 232.88 117.03" fill="#fff"/>
      <polygon points="371.05 104.39 371.04 111.17 245.41 128.82 245.43 122.04 371.05 104.39" fill="#c9c9c9"/>
      <g>
        <polygon points="383.65 82.28 383.64 89.06 239.17 109.36 239.18 102.58 383.65 82.28" fill="#c9c9c9"/>
        <polygon points="383.66 75.5 383.65 82.28 239.18 102.58 239.17 109.36 383.64 89.06 383.63 95.84 232.88 117.03 232.91 96.69 383.66 75.5" fill="#595959"/>
      </g>
    </g>
    <g id="o" data-name="content">
      <polygon points="370.96 151.84 370.91 178.96 345.79 182.49 345.84 155.37 370.96 151.84" fill="#c9c9c9"/>
      <polygon points="371.03 117.95 370.97 145.06 345.85 148.59 345.9 121.48 371.03 117.95" fill="#c9c9c9"/>
      <polygon points="339.55 156.25 339.5 183.37 308.1 187.79 308.15 160.67 339.55 156.25" fill="#c9c9c9"/>
      <polygon points="301.87 161.55 301.82 188.67 276.69 192.2 276.74 165.08 301.87 161.55" fill="#c9c9c9"/>
      <polygon points="339.62 122.36 339.57 149.47 276.75 158.3 276.81 131.19 339.62 122.36" fill="#c9c9c9"/>
      <polygon points="270.47 165.96 270.41 193.08 245.29 196.62 245.34 169.5 270.47 165.96" fill="#c9c9c9"/>
      <polygon points="270.53 132.07 270.48 159.18 245.35 162.72 245.4 135.6 270.53 132.07" fill="#c9c9c9"/>
    </g>
    <polygon id="p" data-name="CtoR" points="327.34 354.25 463.22 490.13 467.46 485.88 450.48 443.42 446.23 439.17 433.49 451.91 331.58 350 327.34 354.25"/>
    <polygon id="q" data-name="RtoC" points="459.13 494.22 323.25 358.34 319 362.58 335.99 405.04 340.23 409.29 352.97 396.55 454.88 498.46 459.13 494.22"/>
    <polygon id="r" data-name="RtoL" points="450 537.3 257.83 537.3 257.83 543.31 299.87 561.32 305.88 561.32 305.88 543.31 450 543.31 450 537.3"/>
    <polygon id="s" data-name="LtoR" points="257.83 531.52 450 531.52 450 525.52 407.96 507.5 401.96 507.5 401.96 525.52 257.83 525.52 257.83 531.52"/>
  </g>
</svg>