<?xml version="1.0" encoding="UTF-8"?>
<svg id="b" data-name="Layer 2" xmlns="http://www.w3.org/2000/svg" width="600.18" height="600" viewBox="0 0 600.18 600">
  <defs>
    <style>
      .d {
        fill: #c69c6d;
      }

      .e {
        fill: #29abe2;
        opacity: .31;
      }

      .f {
        fill: #603813;
      }
    </style>
  </defs>
  <g id="c" data-name="Layer 1">
    <g>
      <rect class="e" x=".18" width="600" height="600"/>
      <polygon class="f" points="225 337.37 250 324.87 275 324.87 288 337.87 300 337.87 288 312.87 287 312.87 295.15 305.58 298.47 300.9 300.11 300.87 301.08 300.47 300.65 300.48 300.7 300.3 300.22 300.62 299.07 300.65 299.57 300.24 301.53 299.97 301.94 299.73 302.91 298.59 303.45 298.58 303.42 298.01 313 286.87 325 261.87 337 274.87 350 262.37 337.5 249.87 362.5 237.37 362.5 224.87 337 211.87 337.5 187.37 325 199.87 312 187.87 300 187.37 300 211.87 250 212.37 238 200.87 237 174.87 275 175.87 275 149.87 262.5 137.37 262.5 149.87 237.5 124.87 237.5 149.87 212.5 149.87 162.5 149.87 137.5 137.37 100 137.37 25 137.37 12.5 149.87 25 162.37 0 162.37 12.5 174.87 25 174.87 12.5 187.37 25 199.87 37.5 199.87 37.5 212.37 25 212.37 12.5 224.87 25 224.87 38 212.87 50 212.37 75 187.37 87.5 199.87 100 199.87 150 249.87 150 299.87 162.5 312.37 162.5 337.37 175 349.87 187.5 349.87 175 337.37 175 312.37 212.5 374.87 250 374.87 275 399.87 287.5 399.87 287.5 424.87 287.5 462.37 312.5 487.37 312.5 549.87 300 562.37 300 599.87 337.5 599.87 337.5 587.37 412.5 499.87 412.5 474.87 437.5 462.37 437.5 437.37 400 437.37 350 399.87 300 399.87 275 374.87 262.5 349.87 250 349.87 250 362.37 237.5 362.37 225 337.37"/>
      <polygon class="f" points="350 249.87 375 237.37 375 249.87 362.5 262.37 350 249.87"/>
      <polygon class="f" points="312.5 99.87 312.5 74.87 325 74.87 350 49.87 387.5 49.87 400 37.37 475 37.37 475 62.37 487.5 49.87 500 49.87 500 62.37 475 87.37 487.5 99.87 475 124.87 425 162.37 412.5 162.37 412.5 187.37 400 199.87 375 174.87 375 137.37 350 99.87 312.5 99.87"/>
      <polygon class="f" points="462.5 162.37 475 174.87 500 174.87 500 162.37 462.5 162.37"/>
      <polygon class="f" points="262.5 99.87 287.5 99.87 337.5 49.87 287.5 49.87 250 49.87 275 74.87 262.5 99.87"/>
      <polygon class="f" points="225 62.37 250 62.37 262.5 74.87 262.5 87.37 250 87.37 225 62.37"/>
      <polygon class="f" points="200 74.87 225 74.87 225 87.37 200 87.37 187.5 74.87 200 74.87"/>
      <rect class="f" x="212.5" y="99.87" width="25" height="12.5"/>
      <rect class="f" x="275.5" y="174.87" width="12.5" height="12.5"/>
      <polygon class="f" points="287.5 112.37 262.5 112.37 262.5 124.87 275 137.37 287.5 137.37 300 149.87 287.5 149.87 287.5 162.37 300 162.37 300 174.87 312.5 174.87 312.5 187.37 325 187.37 325 174.87 337.5 174.87 337.5 149.87 287.5 112.37"/>
      <rect class="f" x="225.5" y="112.87" width="25" height="12.5"/>
      <rect class="f" x="225.5" y="86.87" width="25" height="12.5"/>
      <rect class="f" x="187.5" y="87.87" width="25" height="12.5"/>
      <polygon class="f" points="200 99.87 200 112.37 187.5 112.37 162.5 99.87 200 99.87"/>
      <polygon class="f" points="137.5 112.37 175 112.37 212.5 124.87 225 137.37 162.5 137.37 137.5 124.87 137.5 112.37"/>
      <polygon class="f" points="275 349.87 300 349.87 337.5 362.37 337.5 374.87 325 374.87 300 362.37 275 362.37 275 349.87"/>
      <rect class="f" x="508.5" y="212.37" width="12.5" height="25"/>
      <polygon class="f" points="525 199.87 525 237.37 537.5 237.37 550 237.37 550 224.87 537.5 212.37 537.5 199.87 525 199.87"/>
      <g>
        <polygon class="f" points="587.5 212.37 600 212.37 600 174.87 600 137.37 550 187.37 550 212.37 575 199.87 587.5 212.37"/>
        <polygon class="f" points="600 549.87 600 312.37 575 312.37 575 299.87 550 299.87 537.5 312.37 512.5 312.37 487.5 349.87 487.5 399.87 512.5 424.87 575 424.87 587.5 474.87 575 487.37 600 549.87"/>
        <polygon class="f" points="550 274.87 575 274.87 587.5 287.37 600 299.87 600 287.37 600 274.87 600 224.87 575 224.87 575 212.37 562.5 212.37 562.5 224.87 537.5 249.87 525 249.87 525 262.37 537.5 262.37 537.5 274.87 512.5 274.87 512.5 299.87 537.5 299.87 550 274.87"/>
      </g>
      <polygon class="d" points="298.81 300.49 298.96 300.73 299.78 300.3 301.62 299.96 301.62 298.65 300.22 298.65 300.22 298.75 300.12 298.8 300.12 298.65 299.1 298.65 299.1 300.15 299.2 300.25 298.81 300.49"/>
    </g>
  </g>
</svg>