<?xml version="1.0" encoding="UTF-8"?>
<svg id="b" data-name="Layer 2" xmlns="http://www.w3.org/2000/svg" width="294.49" height="294.49" viewBox="0 0 294.49 294.49">
  <g id="c" data-name="Layer 1">
    <g>
      <circle cx="147.25" cy="147.25" r="147.25" fill="#fff"/>
      <path d="M147.25,2.71C67.42,2.71,2.71,67.42,2.71,147.25c0,72.26,53.03,132.14,122.3,142.83-.17-19.64-.47-62.07-.3-103.04h-36.63v-41.78h37.02c.43-27.14,1.23-48.87,2.63-55.52,4.7-22.17,26.61-28.7,41.48-32.09s43.3,2.61,43.3,2.61v36c-10.96-1.57-41.22-5.48-41.22,14.09,0,4.43-1.04,27.91-1.04,27.91v7h40.43l-6.26,41.78h-34.17v102.91c68.89-11.02,121.54-70.71,121.54-142.71C291.78,67.42,227.07,2.71,147.25,2.71Z" fill="#1979f3"/>
    </g>
  </g>
</svg>