<?xml version="1.0" encoding="UTF-8"?>
<svg id="b" data-name="Layer 2" xmlns="http://www.w3.org/2000/svg" width="427.83" height="385.04" viewBox="0 0 427.83 385.04">
  <g id="c" data-name="Layer 1">
    <g>
      <rect x="0" width="427.83" height="385.04" rx="33.39" ry="33.39" fill="#fff"/>
      <path d="M215.7,47.33c71.26,6.79,110.08,87.64,71.63,147.8-9.33,14.59-31.46,34.28-48.61,38.29-5.33,1.25-7.38.69-8.03-4.98-1.67-14.39,4.35-31.32-5.98-43.41,9.88-.06,21.71-3.73,29.48-10.01,13.64-11.04,17.66-36.4,11.31-52.15-1.28-3.17-6.18-8.45-6.59-10.41-.52-2.51,1.87-8.38,1.83-11.7-.03-3.09-1.9-14.14-5.53-14.54-8.32-.92-19.27,9.38-24.08,10.01-3.49.46-14.13-2.72-18.94-2.99-10.3-.57-19.72,3.1-28.03,3.01-3.49-.04-12.67-6.86-17.65-8.32-2.08-.61-8.61-1.96-10.16-.78-2.91,6.08-2.97,12.87-2.58,19.47.11,1.89,1.83,4.02,1.45,5.68-.35,1.54-4.04,5.28-5.24,7.66-5.91,11.75-5.44,26.39-1.33,38.66,5.79,17.27,22.82,25.38,40.03,26.9-3.4,2.06-4.48,11.68-5.99,12.98-3.1,2.67-13.1,2.36-16.99.99-10.59-3.75-15.94-26.07-29.99-16.95,2.53,3.21,6.31,4.93,8.96,8,5.21,6.04,6.15,15.4,13.69,19.27,7.94,4.08,15.83,3.4,24.33,2.16v19.46c0,2.35-5.23,2.66-7.26,2.27-14.66-2.81-37.37-21.85-46.16-33.79-44.28-60.14-4.55-146.03,69.41-152.57,4.55-.4,12.48-.43,17,0Z"/>
      <path d="M83.7,335.69c-28.69-3.64-33.34-34.34-28.55-57.92,6.11-30.06,31.86-32.06,57.41-24.76l-1.86,14.84c-17.29-3.02-35.72-5.53-38.74,16.71-2.67,19.66,2.86,39.34,26.74,34.16v-16.96h-11v-14.97h29v42.9c-5.29,1.72-11.44,5.32-17,5.99-3.63.43-12.4.46-16,0Z"/>
      <path d="M346.7,335.69l-11.54-4.96-2.01,3.03-12.46-.07v-80.82h17v26.94c27.55-9.68,38.03,5.22,36.04,31.46-.83,10.95-4.32,21.47-16.04,24.41h-11ZM353.42,293.06c-3.48-3.5-11.59-1.93-15.23.7-.79,1.33-.86,19.76-.54,22.52.63,5.49,10.3,6.64,14.44,4.32,6.2-3.49,5.86-22.99,1.33-27.54Z"/>
      <path d="M275.7,335.69c-5.68-1.26-14-7.17-14-13.47v-43.4h17v36.42c0,.29,2.02,5.07,2.24,5.25,2.88,2.51,12.1.92,14.76-2.26v-39.41h17v54.88l-11.46.07-2.01-3.03-11.54,4.96h-12Z"/>
      <path d="M171.7,335.69c-5.97-1.29-14-7.96-14-14.47v-28.44h-9.01s-.05-11.39-.05-11.39l9.06-3.07v-15.47h17v15.96h13v13.97h-13v23.45c0,4.41,9.36,6.63,13,5.48l-.13,11.36-4.88,2.62h-11Z"/>
      <path d="M212.7,252.87v29.93h24v-29.93h17v80.82h-17v-34.92h-24v34.92h-16.5l-1.28-1.5c-.03-.41.78-.75.78-1v-78.32h17Z"/>
      <rect x="125.7" y="278.82" width="17" height="54.88"/>
      <path d="M130.4,255.08c14-4.13,17.87,15.03,7.35,18.3-14.26,4.43-16.96-15.47-7.35-18.3Z"/>
    </g>
  </g>
</svg>